ENDFONT
CHARS 6715
STARTCHAR U_00E8
ENCODING 232
SWIDTH 1000 0
DWIDTH 15 0
BBX 7 13 4 0
BITMAP
20
10
08
00
00
38
44
82
FE
80
82
44
38
ENDCHAR
STARTCHAR U_01EF
ENCODING 495
SWIDTH 1000 0
DWIDTH 15 0
BBX 14 14 4 -1
BITMAP
8400
4800
3000
0000
FC00
0400
0800
1000
1800
0400
0400
8400
4800
3000
ENDCHAR
STARTCHAR U_1103
ENCODING 4355
SWIDTH 1000 0
DWIDTH 15 0
BBX 14 14 2 -1
BITMAP
0000
7FE0
8000
8000
8000
8000
8000
7FE0
0000
0000
0000
0000
0000
0000
ENDCHAR
STARTCHAR U_221E
ENCODING 8734
SWIDTH 1000 0
DWIDTH 15 0
BBX 15 6 1 3
BITMAP
3C78
4284
8102
8102
4284
3C78
ENDCHAR
STARTCHAR U_2227
ENCODING 8743
SWIDTH 1000 0
DWIDTH 15 0
BBX 11 11 2 1
BITMAP
0400
0A00
0A00
1100
1100
2080
2080
4040
4040
8020
8020
ENDCHAR
STARTCHAR U_2229
ENCODING 8745
SWIDTH 1000 0
DWIDTH 15 0
BBX 9 11 3 1
BITMAP
3E00
4100
8080
8080
8080
8080
8080
8080
8080
8080
8080
ENDCHAR
STARTCHAR U_222A
ENCODING 8746
SWIDTH 1000 0
DWIDTH 15 0
BBX 9 11 3 1
BITMAP
8080
8080
8080
8080
8080
8080
8080
8080
8080
4100
3E00
ENDCHAR
STARTCHAR U_2235
ENCODING 8757
SWIDTH 1000 0
DWIDTH 15 0
BBX 12 11 2 0
BITMAP
C030
C030
0000
0000
0000
0000
0000
0000
0000
0600
0600
ENDCHAR
STARTCHAR U_2236
ENCODING 8758
SWIDTH 1000 0
DWIDTH 15 0
BBX 2 9 7 1
BITMAP
C0
C0
00
00
00
00
00
C0
C0
ENDCHAR
STARTCHAR U_2237
ENCODING 8759
SWIDTH 1000 0
DWIDTH 15 0
BBX 9 9 3 1
BITMAP
C180
C180
0000
0000
0000
0000
0000
C180
C180
ENDCHAR
STARTCHAR U_223D
ENCODING 8765
SWIDTH 1000 0
DWIDTH 15 0
BBX 16 6 0 3
BITMAP
303C
4042
8081
8101
4202
3C0C
ENDCHAR
STARTCHAR U_224C
ENCODING 8780
SWIDTH 1000 0
DWIDTH 15 0
BBX 14 11 2 1
BITMAP
2070
4088
8104
8204
4408
3810
0000
FFFC
0000
0000
FFFC
ENDCHAR
STARTCHAR U_2252
ENCODING 8786
SWIDTH 1000 0
DWIDTH 15 0
BBX 12 10 2 1
BITMAP
C000
C000
0000
FFF0
0000
0000
FFF0
0000
0030
0030
ENDCHAR
STARTCHAR U_2288
ENCODING 8840
SWIDTH 1000 0
DWIDTH 15 0
BBX 14 14 1 -1
BITMAP
0080
0080
3FF0
4100
8100
8100
8200
4200
3FF0
0400
0400
FFF0
0800
0800
ENDCHAR
STARTCHAR U_2468
ENCODING 9320
SWIDTH 1000 0
DWIDTH 15 0
BBX 14 14 0 -1
BITMAP
0FC0
3030
4788
4848
8844
8844
88C4
8744
8044
8044
4888
4708
3030
0FC0
ENDCHAR
STARTCHAR U_24F0
ENCODING 9456
SWIDTH 1000 0
DWIDTH 15 0
BBX 14 14 0 -1
BITMAP
0FC0
1FE0
3630
65D8
F5FC
F5FC
F43C
F5DC
F5DC
F5DC
75D8
3630
1FE0
0FC0
ENDCHAR
STARTCHAR U_2500
ENCODING 9472
SWIDTH 1000 0
DWIDTH 15 0
BBX 14 14 0 -1
BITMAP
0000
0000
0000
0000
0000
0000
FFFC
0000
0000
0000
0000
0000
0000
0000
ENDCHAR
STARTCHAR U_25E7
ENCODING 9703
SWIDTH 1000 0
DWIDTH 15 0
BBX 14 14 0 -1
BITMAP
FFFC
FE04
FE04
FE04
FE04
FE04
FE04
FE04
FE04
FE04
FE04
FE04
FE04
FFFC
ENDCHAR
STARTCHAR U_2E80
ENCODING 11904
SWIDTH 1000 0
DWIDTH 15 0
BBX 14 14 3 -1
BITMAP
0000
0000
0000
0000
6000
1800
0400
0200
C000
3000
0C00
0200
0000
0000
ENDCHAR
STARTCHAR U_2E81
ENCODING 11905
SWIDTH 1000 0
DWIDTH 15 0
BBX 14 14 1 -1
BITMAP
0020
01F0
3E00
2000
2000
2000
2000
2000
2000
2000
4000
4000
4000
8000
ENDCHAR
STARTCHAR U_2E82
ENCODING 11906
SWIDTH 1000 0
DWIDTH 15 0
BBX 14 14 2 -1
BITMAP
0000
0000
0000
0000
0000
FFC0
0040
0040
0080
0080
0100
0000
0000
0000
ENDCHAR
STARTCHAR U_2E83
ENCODING 11907
SWIDTH 1000 0
DWIDTH 15 0
BBX 14 14 3 -1
BITMAP
8000
8000
8000
8000
8000
8000
8000
8000
8000
8000
8000
8100
8100
7F00
ENDCHAR
STARTCHAR U_2E84
ENCODING 11908
SWIDTH 1000 0
DWIDTH 15 0
BBX 14 14 0 -1
BITMAP
0000
0000
FFE0
0020
0020
0020
0020
0020
0020
0020
0014
0014
000C
0004
ENDCHAR
STARTCHAR U_2E85
ENCODING 11909
SWIDTH 1000 0
DWIDTH 15 0
BBX 14 14 3 -1
BITMAP
0800
0800
0800
1000
3000
5000
9000
1000
1000
1000
1000
1000
1000
1000
ENDCHAR
STARTCHAR U_2E86
ENCODING 11910
SWIDTH 1000 0
DWIDTH 15 0
BBX 14 14 1 -1
BITMAP
0000
1FC0
1040
1040
1040
1040
1040
1040
1040
2040
2040
2040
4140
8080
ENDCHAR
STARTCHAR U_2E87
ENCODING 11911
SWIDTH 1000 0
DWIDTH 15 0
BBX 14 14 0 -1
BITMAP
0000
0000
1FE0
1020
1020
1020
1020
1020
1020
1020
2014
2014
400C
8004
ENDCHAR
STARTCHAR U_2E88
ENCODING 11912
SWIDTH 1000 0
DWIDTH 15 0
BBX 14 14 2 -1
BITMAP
1000
1000
3F80
2100
4200
8000
0000
0000
0000
0000
0000
0000
0000
0000
ENDCHAR
STARTCHAR U_2E89
ENCODING 11913
SWIDTH 1000 0
DWIDTH 15 0
BBX 14 14 9 -1
BITMAP
1000
1000
1000
9000
9000
9000
9000
9000
9000
9000
9000
1000
5000
2000
ENDCHAR
STARTCHAR U_2E8A
ENCODING 11914
SWIDTH 1000 0
DWIDTH 15 0
BBX 14 14 5 -1
BITMAP
8000
8000
8000
8000
8000
8000
FC00
8000
8000
8000
8000
8000
8000
8000
ENDCHAR
STARTCHAR U_2E8B
ENCODING 11915
SWIDTH 1000 0
DWIDTH 15 0
BBX 14 14 3 -1
BITMAP
0000
0000
0000
0000
0000
0000
FF00
8100
8100
8500
8200
8040
8040
7FC0
ENDCHAR
STARTCHAR U_2E8C
ENCODING 11916
SWIDTH 1000 0
DWIDTH 15 0
BBX 14 14 2 -1
BITMAP
0400
8420
4440
2480
0000
0000
0000
0000
0000
0000
0000
0000
0000
0000
ENDCHAR
STARTCHAR U_2E8D
ENCODING 11917
SWIDTH 1000 0
DWIDTH 15 0
BBX 14 14 2 -1
BITMAP
0040
1040
8880
4900
4200
0000
0000
0000
0000
0000
0000
0000
0000
0000
ENDCHAR
STARTCHAR U_2E8E
ENCODING 11918
SWIDTH 1000 0
DWIDTH 15 0
BBX 14 14 0 -1
BITMAP
0000
0000
0000
FFFC
0880
0880
0880
0880
0880
1080
1084
2084
4084
807C
ENDCHAR
STARTCHAR U_2E8F
ENCODING 11919
SWIDTH 1000 0
DWIDTH 15 0
BBX 14 14 1 -1
BITMAP
0000
1100
1080
2040
4020
9110
1110
1100
1100
1100
2100
2108
4108
80F8
ENDCHAR
STARTCHAR U_2E90
ENCODING 11920
SWIDTH 1000 0
DWIDTH 15 0
BBX 14 14 0 -1
BITMAP
0200
0200
0200
0200
FFFC
0280
0280
0480
0480
0880
0880
1084
2084
C07C
ENDCHAR
STARTCHAR U_2E91
ENCODING 11921
SWIDTH 1000 0
DWIDTH 15 0
BBX 14 14 1 -1
BITMAP
0100
1080
2040
4020
8020
1F00
1100
1100
1100
1100
2100
2108
4108
80F8
ENDCHAR
STARTCHAR U_2E92
ENCODING 11922
SWIDTH 1000 0
DWIDTH 15 0
BBX 14 14 2 -1
BITMAP
0000
0000
FF80
8080
8080
8080
FF80
8000
8000
8000
8020
8020
7FE0
0000
ENDCHAR
STARTCHAR U_2E93
ENCODING 11923
SWIDTH 1000 0
DWIDTH 15 0
BBX 14 14 2 -1
BITMAP
0000
0800
0800
1080
2080
4100
FE00
0400
0800
1000
2080
4040
FFE0
0020
ENDCHAR
STARTCHAR U_2E94
ENCODING 11924
SWIDTH 1000 0
DWIDTH 15 0
BBX 14 14 1 -1
BITMAP
0000
0000
0800
0800
1FE0
1040
1040
2080
2080
7F80
0100
0100
0100
FFF0
ENDCHAR
STARTCHAR U_2E95
ENCODING 11925
SWIDTH 1000 0
DWIDTH 15 0
BBX 14 14 1 -1
BITMAP
0000
FFE0
0020
0020
0020
0020
7FE0
0020
0020
0020
0020
FFE0
0020
0000
ENDCHAR
STARTCHAR U_2E96
ENCODING 11926
SWIDTH 1000 0
DWIDTH 15 0
BBX 14 14 1 -1
BITMAP
1000
1000
1000
1800
5400
5400
9000
1000
1000
1000
1000
1000
1000
1000
ENDCHAR
STARTCHAR U_2E97
ENCODING 11927
SWIDTH 1000 0
DWIDTH 15 0
BBX 14 14 1 -1
BITMAP
0000
0000
0000
0000
0000
0400
0400
2520
2490
4490
8490
0400
1400
0800
ENDCHAR
STARTCHAR U_2E98
ENCODING 11928
SWIDTH 1000 0
DWIDTH 15 0
BBX 14 14 0 -1
BITMAP
0800
0800
0800
FE00
0800
0800
0A00
0C00
3800
C800
0800
0800
2800
1000
ENDCHAR
STARTCHAR U_2E99
ENCODING 11929
SWIDTH 1000 0
DWIDTH 15 0
BBX 14 14 0 -1
BITMAP
0800
0800
0800
0FF8
1020
2820
4840
0440
0280
0100
0280
0440
1830
E00C
ENDCHAR
STARTCHAR U_2E9B
ENCODING 11931
SWIDTH 1000 0
DWIDTH 15 0
BBX 14 14 0 -1
BITMAP
FFFC
0200
1200
2200
4200
8200
FFFC
0200
0300
0500
0904
1104
2104
C1FC
ENDCHAR
STARTCHAR U_2E9C
ENCODING 11932
SWIDTH 1000 0
DWIDTH 15 0
BBX 14 14 0 -1
BITMAP
FFFC
8004
BFF4
8004
BFF4
8004
0000
0000
0000
0000
0000
0000
0000
0000
ENDCHAR
STARTCHAR U_2E9D
ENCODING 11933
SWIDTH 1000 0
DWIDTH 15 0
BBX 14 14 3 -1
BITMAP
FF00
8100
8100
8100
FF00
8100
8100
8100
FF00
8100
8100
8100
8100
8700
ENDCHAR
STARTCHAR U_2E9E
ENCODING 11934
SWIDTH 1000 0
DWIDTH 15 0
BBX 14 14 0 -1
BITMAP
0100
01FC
0900
0900
0FF8
1008
2008
5010
8820
0440
0280
0100
0E00
F000
ENDCHAR
STARTCHAR U_2E9F
ENCODING 11935
SWIDTH 1000 0
DWIDTH 15 0
BBX 14 14 1 -1
BITMAP
0000
0000
3FE0
2020
2420
2220
2220
FFF0
4420
4220
4220
4020
3FE0
0040
ENDCHAR
STARTCHAR U_2EA0
ENCODING 11936
SWIDTH 1000 0
DWIDTH 15 0
BBX 14 14 1 -1
BITMAP
0000
FFC0
8040
8040
FFC0
8400
8400
FFE0
8200
8200
8100
9890
E050
8030
ENDCHAR
STARTCHAR U_2EA1
ENCODING 11937
SWIDTH 1000 0
DWIDTH 15 0
BBX 14 14 3 -1
BITMAP
2000
1000
0800
4400
2000
1000
0800
0000
0400
0800
1000
2000
4000
8000
ENDCHAR
STARTCHAR U_2EA2
ENCODING 11938
SWIDTH 1000 0
DWIDTH 15 0
BBX 14 14 0 -1
BITMAP
0200
0200
8208
4210
2220
1340
0A80
0240
0A20
1210
2208
C204
0200
0E00
ENDCHAR
STARTCHAR U_2EA3
ENCODING 11939
SWIDTH 1000 0
DWIDTH 15 0
BBX 14 14 0 -1
BITMAP
0000
0000
0000
0000
0000
2910
4488
8244
0000
0000
0000
0000
0000
0000
ENDCHAR
STARTCHAR U_2EA4
ENCODING 11940
SWIDTH 1000 0
DWIDTH 15 0
BBX 14 14 1 -1
BITMAP
0020
01F0
FE40
2440
1280
0000
0000
0000
0000
0000
0000
0000
0000
0000
ENDCHAR
STARTCHAR U_2EA5
ENCODING 11941
SWIDTH 1000 0
DWIDTH 15 0
BBX 14 14 1 -1
BITMAP
01F0
3E40
2240
2220
4210
8208
0000
0000
0000
0000
0000
0000
0000
0000
ENDCHAR
STARTCHAR U_2EA6
ENCODING 11942
SWIDTH 1000 0
DWIDTH 15 0
BBX 14 14 2 -1
BITMAP
0400
0400
4400
2400
2400
1400
1400
0400
0C00
3400
C400
0400
0400
0400
ENDCHAR
STARTCHAR U_2EA7
ENCODING 11943
SWIDTH 1000 0
DWIDTH 15 0
BBX 14 14 0 -1
BITMAP
1100
1FF0
2100
0100
FFFC
0000
0000
0000
0000
0000
0000
0000
0000
0000
ENDCHAR
STARTCHAR U_2EA8
ENCODING 11944
SWIDTH 1000 0
DWIDTH 15 0
BBX 14 14 4 -1
BITMAP
8800
5000
2000
5000
8800
0400
0C00
1400
2400
4400
8400
0400
8800
7000
ENDCHAR
STARTCHAR U_2EA9
ENCODING 11945
SWIDTH 1000 0
DWIDTH 15 0
BBX 14 14 3 -1
BITMAP
FE00
1000
1000
1000
1000
1000
FE00
1000
1000
1000
1000
1600
1800
E000
ENDCHAR
STARTCHAR U_2EAA
ENCODING 11946
SWIDTH 1000 0
DWIDTH 15 0
BBX 14 14 0 -1
BITMAP
0000
7C00
0400
0800
1000
5000
5C00
5000
5000
5000
5C00
F000
0000
0000
ENDCHAR
STARTCHAR U_2EAB
ENCODING 11947
SWIDTH 1000 0
DWIDTH 15 0
BBX 14 14 0 -1
BITMAP
0000
0000
0000
0000
FFFC
8844
8844
8844
8844
FFFC
8004
0000
0000
0000
ENDCHAR
STARTCHAR U_2EAC
ENCODING 11948
SWIDTH 1000 0
DWIDTH 7 0
BBX 7 15 0 -1
BITMAP
3E
00
00
FE
08
2A
2A
2A
2A
2A
2A
4A
88
08
00
ENDCHAR
STARTCHAR U_2EAD
ENCODING 11949
SWIDTH 1000 0
DWIDTH 15 0
BBX 14 14 3 -1
BITMAP
2000
1000
1000
FC00
0400
0800
1000
3800
5400
9000
1000
1000
1000
1000
ENDCHAR
STARTCHAR U_2EAE
ENCODING 11950
SWIDTH 1000 0
DWIDTH 15 0
BBX 14 14 0 -1
BITMAP
2040
2040
7E7C
4890
8508
8508
0000
0000
0000
0000
0000
0000
0000
0000
ENDCHAR
STARTCHAR U_2EAF
ENCODING 11951
SWIDTH 1000 0
DWIDTH 15 0
BBX 14 14 0 -1
BITMAP
1000
1000
2000
2400
4400
F800
1000
2800
FC00
4400
0000
2800
5400
5400
ENDCHAR
STARTCHAR U_2EB0
ENCODING 11952
SWIDTH 1000 0
DWIDTH 15 0
BBX 14 14 0 -1
BITMAP
0800
0800
1000
2000
4800
F000
1000
2000
4800
F000
0000
0800
3000
C000
ENDCHAR
STARTCHAR U_2EB1
ENCODING 11953
SWIDTH 1000 0
DWIDTH 15 0
BBX 14 14 0 -1
BITMAP
0000
FFFC
8004
9C14
8324
80C4
8724
B814
0000
0000
0000
0000
0000
0000
ENDCHAR
STARTCHAR U_2EB2
ENCODING 11954
SWIDTH 1000 0
DWIDTH 15 0
BBX 14 14 0 -1
BITMAP
0000
0000
0000
FFFC
8844
8844
8844
FFFC
8004
0000
0000
0000
0000
0000
ENDCHAR
STARTCHAR U_2EB3
ENCODING 11955
SWIDTH 1000 0
DWIDTH 15 0
BBX 14 14 0 -1
BITMAP
0000
7FFC
4004
8888
1060
6018
0000
0000
0000
0000
0000
0000
0000
0000
ENDCHAR
STARTCHAR U_2EB4
ENCODING 11956
SWIDTH 1000 0
DWIDTH 15 0
BBX 14 14 0 -1
BITMAP
0000
7FFC
4888
8890
0880
0880
0880
0880
0880
1080
1080
2084
4044
803C
ENDCHAR
STARTCHAR U_2EB5
ENCODING 11957
SWIDTH 1000 0
DWIDTH 15 0
BBX 14 14 2 -1
BITMAP
0000
0000
FFE0
9120
9120
9120
9120
9120
9120
9120
9120
9120
8020
0000
ENDCHAR
STARTCHAR U_2EB6
ENCODING 11958
SWIDTH 1000 0
DWIDTH 15 0
BBX 14 14 0 -1
BITMAP
1020
0840
7FF8
0200
3FF0
0200
0200
FFFC
0400
0800
1000
2000
C000
0000
ENDCHAR
STARTCHAR U_2EB7
ENCODING 11959
SWIDTH 1000 0
DWIDTH 15 0
BBX 14 14 1 -1
BITMAP
2020
1040
0880
7FF0
0200
0200
3FE0
0200
0200
FFF8
0000
0000
0000
0000
ENDCHAR
STARTCHAR U_2EB8
ENCODING 11960
SWIDTH 1000 0
DWIDTH 15 0
BBX 14 14 1 -1
BITMAP
0880
0880
F8F8
0880
0880
0000
FFF8
0200
0200
7FF0
0200
0200
0200
0200
ENDCHAR
STARTCHAR U_2EB9
ENCODING 11961
SWIDTH 1000 0
DWIDTH 15 0
BBX 14 14 0 -1
BITMAP
0200
0218
3FF0
0220
0240
7FFC
0100
0200
0400
0800
1000
2000
C000
0000
ENDCHAR
STARTCHAR U_2EBA
ENCODING 11962
SWIDTH 1000 0
DWIDTH 15 0
BBX 14 14 0 -1
BITMAP
0200
0200
3FE0
0220
0220
FFFC
0220
0220
3FE0
0200
0200
0200
0200
0200
ENDCHAR
STARTCHAR U_2EBB
ENCODING 11963
SWIDTH 1000 0
DWIDTH 15 0
BBX 14 14 0 -1
BITMAP
0100
0100
3FF0
0110
FFFC
0110
3FF0
0100
7FFC
0000
0000
0000
0000
0000
ENDCHAR
STARTCHAR U_2EBC
ENCODING 11964
SWIDTH 1000 0
DWIDTH 15 0
BBX 14 14 1 -1
BITMAP
1FE0
1020
1420
1220
1120
1020
1020
10A0
1120
1620
2220
2020
40A0
8040
ENDCHAR
STARTCHAR U_2EBD
ENCODING 11965
SWIDTH 1000 0
DWIDTH 15 0
BBX 14 14 1 -1
BITMAP
0000
1800
E1F0
8010
8010
8010
8010
F9F0
8010
8010
8010
8010
F9F0
8010
ENDCHAR
STARTCHAR U_2EBF
ENCODING 11967
SWIDTH 1000 0
DWIDTH 15 0
BBX 14 14 0 -1
BITMAP
1020
1020
FEFC
1020
1020
0000
0000
0000
0000
0000
0000
0000
0000
0000
ENDCHAR
STARTCHAR U_2EC4
ENCODING 11972
SWIDTH 1000 0
DWIDTH 15 0
BBX 14 14 0 -1
BITMAP
0000
FFFC
0480
0480
7FF8
4488
4488
4488
4888
4898
50E8
4008
4008
7FF8
ENDCHAR
STARTCHAR U_2EC6
ENCODING 11974
SWIDTH 1000 0
DWIDTH 15 0
BBX 14 14 0 -1
BITMAP
0800
1FC0
2080
C100
3FF0
2210
2210
3FF0
2210
2210
3FF0
4210
4210
8030
ENDCHAR
STARTCHAR U_2EC7
ENCODING 11975
SWIDTH 1000 0
DWIDTH 15 0
BBX 14 14 0 -1
BITMAP
0800
1FC0
1080
3FF0
6210
A210
2510
2890
3210
2510
2890
3010
2050
2020
ENDCHAR
STARTCHAR U_2ECA
ENCODING 11978
SWIDTH 1000 0
DWIDTH 15 0
BBX 14 14 0 -1
BITMAP
7E00
4200
4200
4200
7E00
0800
0800
0800
4F00
4800
4800
4800
4F00
F000
ENDCHAR
STARTCHAR U_2ECD
ENCODING 11981
SWIDTH 1000 0
DWIDTH 15 0
BBX 14 14 0 -1
BITMAP
4000
3000
1000
8000
6000
2000
0000
E000
2000
2000
2000
2000
5800
87FC
ENDCHAR
STARTCHAR U_2ECE
ENCODING 11982
SWIDTH 1000 0
DWIDTH 15 0
BBX 14 14 0 -1
BITMAP
4000
3000
1000
0000
F000
1000
2000
7000
1000
1000
2000
2000
5800
87FC
ENDCHAR
STARTCHAR U_2ECF
ENCODING 11983
SWIDTH 1000 0
DWIDTH 15 0
BBX 14 14 9 -1
BITMAP
F800
8800
9000
9000
A000
9000
8800
8800
C800
B000
8000
8000
8000
8000
ENDCHAR
STARTCHAR U_2ED6
ENCODING 11990
SWIDTH 1000 0
DWIDTH 15 0
BBX 14 14 0 -1
BITMAP
F800
8800
9000
A000
A000
9000
8800
8800
8800
8800
F000
8000
8000
8000
ENDCHAR
STARTCHAR U_2ED7
ENCODING 11991
SWIDTH 1000 0
DWIDTH 15 0
BBX 14 14 0 -1
BITMAP
7FF8
0200
FFF8
9248
8A88
1AC0
6230
0000
0000
0000
0000
0000
0000
0000
ENDCHAR
STARTCHAR U_2ED8
ENCODING 11992
SWIDTH 1000 0
DWIDTH 15 0
BBX 14 14 0 -1
BITMAP
0200
7FF0
0200
3FE0
0200
FFF8
0000
3FE0
2020
3FE0
2020
3FE0
2020
2060
ENDCHAR
STARTCHAR U_2ED9
ENCODING 11993
SWIDTH 1000 0
DWIDTH 15 0
BBX 14 14 1 -1
BITMAP
0400
0400
FFE0
0400
0400
7FC0
0400
0400
FFF0
0410
0410
0410
0460
0400
ENDCHAR
STARTCHAR U_2EF2
ENCODING 12018
SWIDTH 1000 0
DWIDTH 15 0
BBX 14 14 0 -1
BITMAP
0800
1F80
2100
FFE0
2220
3FE0
2220
7FF0
4210
7FF0
4210
7FF0
0204
01FC
ENDCHAR
STARTCHAR U_3047
ENCODING 12359
SWIDTH 1000 0
DWIDTH 15 0
BBX 14 14 2 -1
BITMAP
0000
0000
0000
3C00
0000
7E00
0C00
1800
7800
E800
CF80
8000
0000
0000
ENDCHAR
STARTCHAR U_31C0
ENCODING 12736
SWIDTH 1000 0
DWIDTH 15 0
BBX 14 14 2 -1
BITMAP
0000
0000
0000
0000
0080
0300
0C00
F000
4000
0000
0000
0000
0000
0000
ENDCHAR
STARTCHAR U_31C1
ENCODING 12737
SWIDTH 1000 0
DWIDTH 15 0
BBX 14 14 5 -1
BITMAP
8000
4000
4000
2000
2000
2000
2000
2000
2000
2000
2000
2000
A000
4000
ENDCHAR
STARTCHAR U_31C2
ENCODING 12738
SWIDTH 1000 0
DWIDTH 15 0
BBX 14 14 2 -1
BITMAP
8000
8000
8000
4000
4000
4000
2000
2000
1000
1000
0800
0400
0280
0100
ENDCHAR
STARTCHAR U_31C3
ENCODING 12739
SWIDTH 1000 0
DWIDTH 15 0
BBX 14 14 0 -1
BITMAP
0000
0000
0000
0000
8000
4000
2000
1810
0608
01F0
0000
0000
0000
0000
ENDCHAR
STARTCHAR U_31C4
ENCODING 12740
SWIDTH 1000 0
DWIDTH 15 0
BBX 14 14 3 -1
BITMAP
0000
8000
8000
8000
8000
8000
8000
8000
8000
8000
8000
FE00
0000
0000
ENDCHAR
STARTCHAR U_31C5
ENCODING 12741
SWIDTH 1000 0
DWIDTH 15 0
BBX 14 14 2 -1
BITMAP
0000
0000
F800
0800
0800
0800
0800
0800
0800
0800
0800
0F80
0000
0000
ENDCHAR
STARTCHAR U_31C6
ENCODING 12742
SWIDTH 1000 0
DWIDTH 15 0
BBX 14 14 2 -1
BITMAP
0000
0000
FF80
0080
0080
0080
0080
0080
0080
0080
0080
0080
0280
0100
ENDCHAR
STARTCHAR U_31C7
ENCODING 12743
SWIDTH 1000 0
DWIDTH 15 0
BBX 14 14 2 -1
BITMAP
0000
0000
FFC0
0040
0040
0040
0080
0080
0100
0100
0200
0400
0800
1000
ENDCHAR
STARTCHAR U_31C8
ENCODING 12744
SWIDTH 1000 0
DWIDTH 15 0
BBX 14 14 0 -1
BITMAP
0000
FE00
0200
0200
0200
0200
0200
0200
0200
0200
0208
0208
0208
01F0
ENDCHAR
STARTCHAR U_31C9
ENCODING 12745
SWIDTH 1000 0
DWIDTH 15 0
BBX 14 14 2 -1
BITMAP
8000
8000
8000
8000
8000
8000
FFC0
0040
0040
0040
0080
0080
0500
0200
ENDCHAR
STARTCHAR U_31CA
ENCODING 12746
SWIDTH 1000 0
DWIDTH 15 0
BBX 14 14 2 -1
BITMAP
0000
0000
F800
0800
0800
0800
0800
0800
0800
0900
0A00
0C00
0800
0000
ENDCHAR
STARTCHAR U_31CB
ENCODING 12747
SWIDTH 1000 0
DWIDTH 15 0
BBX 14 14 2 -1
BITMAP
0000
FFC0
0080
0100
03C0
0040
0040
0040
0080
0080
0100
0200
0400
1800
ENDCHAR
STARTCHAR U_31CC
ENCODING 12748
SWIDTH 1000 0
DWIDTH 15 0
BBX 14 14 3 -1
BITMAP
0000
FC00
0400
0800
1000
1000
0800
0400
0400
0400
0400
2800
1000
0000
ENDCHAR
STARTCHAR U_31CD
ENCODING 12749
SWIDTH 1000 0
DWIDTH 15 0
BBX 14 14 0 -1
BITMAP
0000
0000
FE00
0200
0200
0200
0200
0200
01FC
0000
0000
0000
0000
0000
ENDCHAR
STARTCHAR U_31CE
ENCODING 12750
SWIDTH 1000 0
DWIDTH 15 0
BBX 14 14 2 -1
BITMAP
0000
FC00
0400
0400
0400
0400
0780
0080
0080
0080
0080
0080
0080
0080
ENDCHAR
STARTCHAR U_31CF
ENCODING 12751
SWIDTH 1000 0
DWIDTH 15 0
BBX 14 14 2 -1
BITMAP
8000
8000
4000
4000
2000
2000
1000
1000
0800
0400
0200
0300
01C0
0080
ENDCHAR
STARTCHAR U_31D0
ENCODING 12752
SWIDTH 1000 0
DWIDTH 15 0
BBX 14 14 1 -1
BITMAP
0000
0000
0000
0000
0000
0020
FFF0
0000
0000
0000
0000
0000
0000
0000
ENDCHAR
STARTCHAR U_31D1
ENCODING 12753
SWIDTH 1000 0
DWIDTH 15 0
BBX 14 14 7 -1
BITMAP
0000
8000
8000
8000
8000
8000
8000
8000
8000
8000
8000
8000
8000
0000
ENDCHAR
STARTCHAR U_31D2
ENCODING 12754
SWIDTH 1000 0
DWIDTH 15 0
BBX 14 14 2 -1
BITMAP
0000
0000
0100
0100
0200
0200
0400
0800
1000
2000
C000
0000
0000
0000
ENDCHAR
STARTCHAR U_31D3
ENCODING 12755
SWIDTH 1000 0
DWIDTH 15 0
BBX 14 14 3 -1
BITMAP
0000
0800
0800
0800
0800
0800
0800
0800
0800
1000
1000
2000
4000
8000
ENDCHAR
STARTCHAR U_31D4
ENCODING 12756
SWIDTH 1000 0
DWIDTH 15 0
BBX 14 14 4 -1
BITMAP
0000
0000
0000
8000
4000
2000
1000
0800
0800
0000
0000
0000
0000
0000
ENDCHAR
STARTCHAR U_31D5
ENCODING 12757
SWIDTH 1000 0
DWIDTH 15 0
BBX 14 14 2 -1
BITMAP
0000
0000
0000
FF80
0080
0080
0080
0080
0080
0080
0080
0080
0000
0000
ENDCHAR
STARTCHAR U_31D6
ENCODING 12758
SWIDTH 1000 0
DWIDTH 15 0
BBX 14 14 1 -1
BITMAP
0000
0000
0000
0000
FFF0
0020
0040
0000
0000
0000
0000
0000
0000
0000
ENDCHAR
STARTCHAR U_31D7
ENCODING 12759
SWIDTH 1000 0
DWIDTH 15 0
BBX 14 14 3 -1
BITMAP
0000
0000
8000
8000
8000
8000
8000
8000
8000
8000
FF80
0000
0000
0000
ENDCHAR
STARTCHAR U_31D8
ENCODING 12760
SWIDTH 1000 0
DWIDTH 15 0
BBX 14 14 2 -1
BITMAP
0000
0000
0080
0080
0080
0080
0080
0080
0080
0080
0080
FF80
0000
0000
ENDCHAR
STARTCHAR U_31D9
ENCODING 12761
SWIDTH 1000 0
DWIDTH 15 0
BBX 14 14 6 -1
BITMAP
8000
8000
8000
8000
8000
8000
8000
8000
8000
9000
A000
C000
8000
0000
ENDCHAR
STARTCHAR U_31DA
ENCODING 12762
SWIDTH 1000 0
DWIDTH 15 0
BBX 14 14 4 -1
BITMAP
1000
1000
1000
1000
1000
1000
1000
1000
1000
1000
1000
9000
5000
2000
ENDCHAR
STARTCHAR U_31DB
ENCODING 12763
SWIDTH 1000 0
DWIDTH 15 0
BBX 14 14 4 -1
BITMAP
0000
0800
0800
1000
1000
2000
4000
8000
4000
2000
1000
1000
0800
0800
ENDCHAR
STARTCHAR U_31DC
ENCODING 12764
SWIDTH 1000 0
DWIDTH 15 0
BBX 14 14 1 -1
BITMAP
0000
0000
0400
0400
0400
0800
0800
1000
2000
4000
FFE0
0000
0000
0000
ENDCHAR
STARTCHAR U_31DD
ENCODING 12765
SWIDTH 1000 0
DWIDTH 15 0
BBX 14 14 0 -1
BITMAP
0000
2000
2000
5000
9000
0800
0800
0400
0200
0100
0080
0040
0020
001C
ENDCHAR
STARTCHAR U_31DE
ENCODING 12766
SWIDTH 1000 0
DWIDTH 15 0
BBX 14 14 3 -1
BITMAP
0000
8000
8000
8000
8000
8000
8000
FF80
0080
0080
0080
0080
0080
0000
ENDCHAR
STARTCHAR U_31DF
ENCODING 12767
SWIDTH 1000 0
DWIDTH 15 0
BBX 14 14 4 -1
BITMAP
0000
8000
8000
8000
8000
8000
8000
8000
8000
8200
8200
8200
7E00
0000
ENDCHAR
STARTCHAR U_31E0
ENCODING 12768
SWIDTH 1000 0
DWIDTH 15 0
BBX 14 14 1 -1
BITMAP
0000
0000
FFE0
0040
0080
0100
0200
0400
0800
1000
2008
4008
4008
3FF8
ENDCHAR
STARTCHAR U_31E1
ENCODING 12769
SWIDTH 1000 0
DWIDTH 15 0
BBX 14 14 1 -1
BITMAP
0000
0000
FFE0
0040
0080
0100
03F0
0010
0010
0010
0010
0010
00A0
0040
ENDCHAR
STARTCHAR U_31E2
ENCODING 12770
SWIDTH 1000 0
DWIDTH 15 0
BBX 14 14 1 -1
BITMAP
0000
0000
0040
0040
0040
0080
0080
0100
0100
0200
0400
8800
5000
2000
ENDCHAR
STARTCHAR U_31E3
ENCODING 12771
SWIDTH 1000 0
DWIDTH 15 0
BBX 14 14 1 -1
BITMAP
0000
0000
0000
3FC0
4020
8010
8010
8010
8010
4020
3FC0
0000
0000
0000
ENDCHAR
STARTCHAR U_33E1
ENCODING 13281
SWIDTH 1000 0
DWIDTH 15 0
BBX 14 14 0 -1
BITMAP
31FC
4904
8504
8504
0504
0504
05FC
0504
0904
1104
2104
4104
81FC
FD04
ENDCHAR
STARTCHAR U_33E2
ENCODING 13282
SWIDTH 1000 0
DWIDTH 15 0
BBX 14 14 0 -1
BITMAP
31FC
4904
8504
8504
0504
0504
19FC
0504
0504
0504
8504
8504
49FC
3104
ENDCHAR
STARTCHAR U_33E4
ENCODING 13284
SWIDTH 1000 0
DWIDTH 15 0
BBX 14 14 1 -1
BITMAP
0000
FBF8
8208
8208
8208
8208
F3F8
0A08
0A08
0A08
0A08
8A08
73F8
0000
ENDCHAR
STARTCHAR U_3400
ENCODING 13312
SWIDTH 1000 0
DWIDTH 15 0
BBX 14 14 0 -1
BITMAP 
0840
0840
0840
0840
0840
7878
0840
0840
0840
0840
0840
0840
FFFC
0000
ENDCHAR
STARTCHAR U_3401
ENCODING 13313
SWIDTH 1000 0
DWIDTH 15 0
BBX 14 14 0 -1
BITMAP 
0000
FFFC
0200
0200
7FF8
4208
4208
4508
44C8
4848
5008
4008
7FF8
4008
ENDCHAR
STARTCHAR U_3402
ENCODING 13314
SWIDTH 1000 0
DWIDTH 15 0
BBX 14 14 0 -1
BITMAP 
0200
0238
03C0
7E00
0208
0208
01F8
1040
1040
1E7C
F1C0
1444
1844
103C
ENDCHAR
STARTCHAR U_3403
ENCODING 13315
SWIDTH 1000 0
DWIDTH 15 0
BBX 14 14 0 -1
BITMAP 
0200
0500
0880
1040
2020
4010
FFF8
0200
0200
0200
0200
0200
0200
0000
ENDCHAR
STARTCHAR U_3404
ENCODING 13316
SWIDTH 1000 0
DWIDTH 15 0
BBX 14 14 0 -1
BITMAP 
0100
0100
0100
3FF8
0100
1100
1100
2100
7FFC
0100
0100
0100
0100
0100
ENDCHAR
STARTCHAR U_3405
ENCODING 13317
SWIDTH 1000 0
DWIDTH 15 0
BBX 14 14 0 -1
BITMAP 
0000
0010
1018
0810
0420
0220
0140
0080
0140
0220
0410
1808
6008
0000
ENDCHAR
STARTCHAR U_3406
ENCODING 13318
SWIDTH 1000 0
DWIDTH 15 0
BBX 14 14 0 -1
BITMAP 
0070
1F80
1000
1FE0
1020
1FE0
1020
1FE0
1000
1FF0
1010
1010
20A0
4040
ENDCHAR
STARTCHAR U_3407
ENCODING 13319
SWIDTH 1000 0
DWIDTH 15 0
BBX 14 14 0 -1
BITMAP 
0400
0400
07C0
7C40
0444
0844
103C
6000
3FF0
0060
0384
1C04
2004
1FFC
ENDCHAR
STARTCHAR U_3408
ENCODING 13320
SWIDTH 1000 0
DWIDTH 15 0
BBX 14 14 0 -1
BITMAP 
0E00
0100
0280
0440
1830
E00C
0000
3FF0
0060
0180
0604
1804
2004
1FFC
ENDCHAR
STARTCHAR U_3409
ENCODING 13321
SWIDTH 1000 0
DWIDTH 15 0
BBX 14 14 0 -1
BITMAP 
0000
FFFC
0100
0100
0100
0500
0200
0000
7FF0
0180
0E00
3008
4008
3FF8
ENDCHAR
STARTCHAR U_340A
ENCODING 13322
SWIDTH 1000 0
DWIDTH 15 0
BBX 14 14 0 -1
BITMAP 
0100
0100
FFFC
0100
0100
1FF0
0000
3FF0
0060
0180
0600
1804
2004
1FFC
ENDCHAR
STARTCHAR U_340B
ENCODING 13323
SWIDTH 1000 0
DWIDTH 15 0
BBX 14 14 0 -1
BITMAP 
0200
0200
1FE0
0200
0200
7FF8
0000
0000
7FF0
0040
0780
3804
4004
3FFC
ENDCHAR
STARTCHAR U_340C
ENCODING 13324
SWIDTH 1000 0
DWIDTH 15 0
BBX 14 14 0 -1
BITMAP 
0800
1000
1FF8
2000
4200
1270
1390
1E10
7210
12A0
1240
1204
1004
0FFC
ENDCHAR
STARTCHAR U_340D
ENCODING 13325
SWIDTH 1000 0
DWIDTH 15 0
BBX 14 14 0 -1
BITMAP 
0078
7F80
0008
1108
0890
0890
0000
7FF0
0040
0180
0604
1804
2004
1FFC
ENDCHAR
STARTCHAR U_340E
ENCODING 13326
SWIDTH 1000 0
DWIDTH 15 0
BBX 14 14 0 -1
BITMAP 
0200
0100
7FF8
0840
0480
0300
0CC0
3030
DFCC
0180
0600
1808
2008
1FF8
ENDCHAR
STARTCHAR U_340F
ENCODING 13327
SWIDTH 1000 0
DWIDTH 15 0
BBX 14 14 0 -1
BITMAP 
7FF8
0200
0200
3FF0
0410
0410
FFFC
0000
7FF8
0060
0780
3804
4004
3FFC
ENDCHAR
STARTCHAR U_3410
ENCODING 13328
SWIDTH 1000 0
DWIDTH 15 0
BBX 14 14 0 -1
BITMAP 
0800
1000
FFF8
2490
2490
1860
6498
0000
3FE0
00C0
0300
0C08
1008
0FF8
ENDCHAR
STARTCHAR U_3411
ENCODING 13329
SWIDTH 1000 0
DWIDTH 15 0
BBX 14 14 0 -1
BITMAP 
0400
07E0
0C20
1240
0180
0E60
709C
0340
0080
1FE0
0080
0F00
3008
1FF8
ENDCHAR
STARTCHAR U_3412
ENCODING 13330
SWIDTH 1000 0
DWIDTH 15 0
BBX 14 14 0 -1
BITMAP 
0FE0
0220
05A0
0860
1FE0
2820
0820
0FE0
0000
1FE0
0060
0380
0C10
1FF8
ENDCHAR
STARTCHAR U_3413
ENCODING 13331
SWIDTH 1000 0
DWIDTH 15 0
BBX 14 14 0 -1
BITMAP 
7FF8
0020
1F20
1120
1120
1F20
00A0
0040
7FE0
0040
0188
0E08
1008
1FF8
ENDCHAR
STARTCHAR U_3414
ENCODING 13332
SWIDTH 1000 0
DWIDTH 15 0
BBX 14 14 0 -1
BITMAP 
0400
0200
7FF8
0000
1FC0
1040
1FC0
0000
7FE0
0040
0180
0608
0808
0FF8
ENDCHAR
STARTCHAR U_3415
ENCODING 13333
SWIDTH 1000 0
DWIDTH 15 0
BBX 14 14 0 -1
BITMAP 
0200
3FE0
2220
3FE0
2220
3FE0
0000
7FE0
00C0
0300
0C00
3010
4010
3FF0
ENDCHAR
STARTCHAR U_3416
ENCODING 13334
SWIDTH 1000 0
DWIDTH 15 0
BBX 14 14 0 -1
BITMAP 
0840
0840
0840
7F40
0840
0840
3E40
0040
3E40
2240
2240
2244
3E44
223C
ENDCHAR
STARTCHAR U_3417
ENCODING 13335
SWIDTH 1000 0
DWIDTH 15 0
BBX 14 14 0 -1
BITMAP 
0200
1FD0
0220
FFFC
0400
1FA0
E420
03E0
0000
3FE0
0080
0F08
1008
1FF8
ENDCHAR
STARTCHAR U_3418
ENCODING 13336
SWIDTH 1000 0
DWIDTH 15 0
BBX 14 14 0 -1
BITMAP 
2220
1240
0A80
FFFC
0680
0A60
3218
C200
1FE0
0180
0600
1800
2008
1FF8
ENDCHAR
STARTCHAR U_3419
ENCODING 13337
SWIDTH 1000 0
DWIDTH 15 0
BBX 14 14 0 -1
BITMAP 
7FF8
0000
3FF0
2010
3FF0
0840
FFFC
0000
3FF0
0060
0380
0C00
3008
1FF8
ENDCHAR
STARTCHAR U_341A
ENCODING 13338
SWIDTH 1000 0
DWIDTH 15 0
BBX 14 14 0 -1
BITMAP 
3FE0
0200
1FC0
0440
FFF8
1040
1040
1FC0
0000
3FE0
0180
0E00
3010
1FF0
ENDCHAR
STARTCHAR U_341B
ENCODING 13339
SWIDTH 1000 0
DWIDTH 15 0
BBX 14 14 0 -1
BITMAP 
1100
17FC
2200
65F8
A908
2108
21F8
0000
3FF8
0030
01C0
0E00
3008
3FF8
ENDCHAR
STARTCHAR U_341C
ENCODING 13340
SWIDTH 1000 0
DWIDTH 15 0
BBX 14 14 0 -1
BITMAP 
1440
1240
1040
FEF0
1050
9250
5450
1850
3050
D450
1290
1090
5114
260C
ENDCHAR
STARTCHAR U_341D
ENCODING 13341
SWIDTH 1000 0
DWIDTH 15 0
BBX 14 14 0 -1
BITMAP 
1100
11FC
FA04
11F4
1914
F114
11F4
300C
3FF0
0060
0380
1C00
2008
1FF8
ENDCHAR
STARTCHAR U_341E
ENCODING 13342
SWIDTH 1000 0
DWIDTH 15 0
BBX 14 14 0 -1
BITMAP 
0840
7FF8
0840
0FC0
0840
0FC0
0840
FFFC
1020
6FD8
8084
0700
1820
0FE0
ENDCHAR
STARTCHAR U_341F
ENCODING 13343
SWIDTH 1000 0
DWIDTH 15 0
BBX 14 14 0 -1
BITMAP 
0480
7CF8
0480
3CF0
0480
7CF8
0480
0000
3FF0
00C0
0300
0C08
1008
0FF8
ENDCHAR
STARTCHAR U_3420
ENCODING 13344
SWIDTH 1000 0
DWIDTH 15 0
BBX 14 14 0 -1
BITMAP 
0E00
F080
5480
FC80
0880
1080
FC80
1084
3FFC
0060
0780
3800
2008
1FF8
ENDCHAR
STARTCHAR U_3421
ENCODING 13345
SWIDTH 1000 0
DWIDTH 15 0
BBX 14 14 0 -1
BITMAP 
23F8
2040
23F8
FAA8
2AA8
2AA8
2A08
2840
2BF8
2840
28A0
2B18
4804
47FC
ENDCHAR
STARTCHAR U_3422
ENCODING 13346
SWIDTH 1000 0
DWIDTH 15 0
BBX 14 14 0 -1
BITMAP 
43F0
2488
8250
53F0
2020
2FFC
C040
4140
4080
FFF0
00C4
1F04
2004
1FFC
ENDCHAR
STARTCHAR U_3423
ENCODING 13347
SWIDTH 1000 0
DWIDTH 15 0
BBX 14 14 0 -1
BITMAP 
0100
7FFC
4080
5FFC
4888
4FF8
4888
5FFC
4080
4FF8
4030
41C0
4E04
87FC
ENDCHAR
STARTCHAR U_3424
ENCODING 13348
SWIDTH 1000 0
DWIDTH 15 0
BBX 14 14 0 -1
BITMAP 
2020
23FC
2040
FDF8
25C8
2538
25C8
2538
25C8
2538
27FC
2490
4508
87FC
ENDCHAR
STARTCHAR U_3425
ENCODING 13349
SWIDTH 1000 0
DWIDTH 15 0
BBX 14 14 0 -1
BITMAP 
2010
5390
FABC
2394
7294
AB94
72D4
FF28
0000
7FF0
00C0
1F04
2004
1FFC
ENDCHAR
STARTCHAR U_3426
ENCODING 13350
SWIDTH 1000 0
DWIDTH 15 0
BBX 14 14 0 -1
BITMAP 
1BB0
2208
3BB8
2088
3AB8
2288
FFFC
1120
27D0
C10C
3FE0
0204
0C04
1FFC
ENDCHAR
STARTCHAR U_3427
ENCODING 13351
SWIDTH 1000 0
DWIDTH 15 0
BBX 14 14 0 -1
BITMAP 
0080
2080
1880
0880
0080
FFFC
0188
0290
0480
0880
1080
2080
C280
0100
ENDCHAR
STARTCHAR U_3428
ENCODING 13352
SWIDTH 1000 0
DWIDTH 15 0
BBX 14 14 0 -1
BITMAP 
FDFC
0808
9090
6060
2020
FDFC
2424
2020
2020
2020
2020
2020
2020
6060
ENDCHAR
STARTCHAR U_3429
ENCODING 13353
SWIDTH 1000 0
DWIDTH 15 0
BBX 14 14 0 -1
BITMAP 
2848
2848
2848
FDFC
2848
2848
2848
2848
FDFC
2848
2848
2848
2888
4908
ENDCHAR
STARTCHAR U_342A
ENCODING 13354
SWIDTH 1000 0
DWIDTH 15 0
BBX 14 14 0 -1
BITMAP 
0200
0200
FFFC
0200
2210
2210
2210
3FF0
0200
0500
0500
0880
3060
C01C
ENDCHAR
STARTCHAR U_342B
ENCODING 13355
SWIDTH 1000 0
DWIDTH 15 0
BBX 14 14 0 -1
BITMAP 
0200
0100
0100
FFFC
0000
5028
4C48
4288
4108
4288
4448
5828
4008
7FF8
ENDCHAR
STARTCHAR U_342C
ENCODING 13356
SWIDTH 1000 0
DWIDTH 15 0
BBX 14 14 0 -1
BITMAP 
0400
0200
FFFC
0800
1040
2020
3FD0
0000
1240
1240
1240
2240
2248
4238
ENDCHAR
STARTCHAR U_342D
ENCODING 13357
SWIDTH 1000 0
DWIDTH 15 0
BBX 14 14 0 -1
BITMAP 
0400
0200
FFFC
0000
2010
3FF8
2010
2FD0
2850
2850
2FD0
2010
3FF0
2010
ENDCHAR
STARTCHAR U_342E
ENCODING 13358
SWIDTH 1000 0
DWIDTH 15 0
BBX 14 14 0 -1
BITMAP 
0200
FFFC
1020
6498
BFF4
0480
1FE0
0480
7FF8
0A20
3940
C880
0A60
0C1C
ENDCHAR
STARTCHAR U_342F
ENCODING 13359
SWIDTH 1000 0
DWIDTH 15 0
BBX 14 14 0 -1
BITMAP 
0200
FFFC
1020
3FF0
2010
3FF0
0200
7FF8
1220
2210
1FE0
1420
1320
1FE0
ENDCHAR
STARTCHAR U_3430
ENCODING 13360
SWIDTH 1000 0
DWIDTH 15 0
BBX 14 14 0 -1
BITMAP 
0800
0800
13F8
1208
3208
5208
9208
1208
1208
1208
1208
13F8
1208
1000
ENDCHAR
STARTCHAR U_3431
ENCODING 13361
SWIDTH 1000 0
DWIDTH 15 0
BBX 14 14 0 -1
BITMAP 
0200
0200
0500
0880
1040
2120
C21C
0480
1920
0240
1C80
0100
0600
7800
ENDCHAR
STARTCHAR U_3432
ENCODING 13362
SWIDTH 1000 0
DWIDTH 15 0
BBX 14 14 0 -1
BITMAP 
1080
1080
1080
2080
2FFC
6080
A080
2140
2140
2120
2220
2210
2408
2804
ENDCHAR
STARTCHAR U_3433
ENCODING 13363
SWIDTH 1000 0
DWIDTH 15 0
BBX 14 14 0 -1
BITMAP 
1000
1000
17FC
2120
2120
6120
A120
2120
2120
2220
2224
2224
2424
281C
ENDCHAR
STARTCHAR U_3434
ENCODING 13364
SWIDTH 1000 0
DWIDTH 15 0
BBX 14 14 0 -1
BITMAP 
0000
0900
0900
09FC
1104
1104
3204
D4C4
1024
1028
1008
1010
1020
11C0
ENDCHAR
STARTCHAR U_3435
ENCODING 13365
SWIDTH 1000 0
DWIDTH 15 0
BBX 14 14 0 -1
BITMAP 
0800
0BF8
1040
1040
3040
5040
97FC
1040
1040
1040
1040
1040
1140
1080
ENDCHAR
STARTCHAR U_3436
ENCODING 13366
SWIDTH 1000 0
DWIDTH 15 0
BBX 14 14 0 -1
BITMAP 
0800
0BF8
1208
1208
3208
5208
93F8
1200
1200
1200
1200
1204
1204
11FC
ENDCHAR
STARTCHAR U_3437
ENCODING 13367
SWIDTH 1000 0
DWIDTH 15 0
BBX 14 14 0 -1
BITMAP 
0800
0BF0
1010
1210
3210
5210
9420
17FC
1004
1004
17F4
1004
1014
1008
ENDCHAR
STARTCHAR U_3438
ENCODING 13368
SWIDTH 1000 0
DWIDTH 15 0
BBX 14 14 0 -1
BITMAP 
0900
0900
13FC
3244
5444
9048
1040
1040
10A0
10A0
1110
1110
1208
1404
ENDCHAR
STARTCHAR U_3439
ENCODING 13369
SWIDTH 1000 0
DWIDTH 15 0
BBX 14 14 0 -1
BITMAP 
0A00
0A00
13F8
3200
55F0
9000
17F0
1010
1010
1010
1010
1014
100C
1004
ENDCHAR
STARTCHAR U_343A
ENCODING 13370
SWIDTH 1000 0
DWIDTH 15 0
BBX 14 14 0 -1
BITMAP 
1120
1120
2220
6620
AA20
2220
2220
2220
2220
2250
2250
2288
2288
2304
ENDCHAR
STARTCHAR U_343B
ENCODING 13371
SWIDTH 1000 0
DWIDTH 15 0
BBX 14 14 0 -1
BITMAP 
0840
0840
1040
17FC
3444
5444
9444
14A4
1514
160C
1404
1404
1414
1408
ENDCHAR
STARTCHAR U_343C
ENCODING 13372
SWIDTH 1000 0
DWIDTH 15 0
BBX 14 14 0 -1
BITMAP 
08D0
0B90
1090
1090
3090
5090
97FC
1090
1090
1090
1090
1090
1110
1610
ENDCHAR
STARTCHAR U_343D
ENCODING 13373
SWIDTH 1000 0
DWIDTH 15 0
BBX 14 14 0 -1
BITMAP 
1000
17F0
2410
2410
6630
A550
2490
2490
2550
2630
2410
2814
280C
3004
ENDCHAR
STARTCHAR U_343E
ENCODING 13374
SWIDTH 1000 0
DWIDTH 15 0
BBX 14 14 0 -1
BITMAP 
0800
0BF8
1000
1000
3000
57FC
9120
1120
1120
1120
1120
1124
1224
141C
ENDCHAR
STARTCHAR U_343F
ENCODING 13375
SWIDTH 1000 0
DWIDTH 15 0
BBX 14 14 0 -1
BITMAP 
0838
0BC0
1040
1040
33F8
5040
9040
17FC
1040
1040
1040
1040
1140
1080
ENDCHAR
STARTCHAR U_3440
ENCODING 13376
SWIDTH 1000 0
DWIDTH 15 0
BBX 14 14 0 -1
BITMAP 
1080
1080
2080
2080
6FF8
A080
2080
2140
2120
2220
2210
2488
286C
2020
ENDCHAR
STARTCHAR U_3441
ENCODING 13377
SWIDTH 1000 0
DWIDTH 15 0
BBX 14 14 0 -1
BITMAP 
0840
0840
1248
3248
5248
93F8
1040
1040
1444
1444
1444
1444
17FC
1404
ENDCHAR
STARTCHAR U_3442
ENCODING 13378
SWIDTH 1000 0
DWIDTH 15 0
BBX 14 14 0 -1
BITMAP 
0800
0FFC
1040
3040
57FC
9444
1444
14A4
1494
150C
160C
1404
1404
140C
ENDCHAR
STARTCHAR U_3443
ENCODING 13379
SWIDTH 1000 0
DWIDTH 15 0
BBX 14 14 0 -1
BITMAP 
1020
1220
24FC
6424
A924
2524
2224
2424
2524
2924
2AA4
2424
2054
2088
ENDCHAR
STARTCHAR U_3444
ENCODING 13380
SWIDTH 1000 0
DWIDTH 15 0
BBX 14 14 0 -1
BITMAP 
1000
13F8
2208
2288
6248
A208
2FFC
2208
2490
2450
2410
27FC
2010
2030
ENDCHAR
STARTCHAR U_3445
ENCODING 13381
SWIDTH 1000 0
DWIDTH 15 0
BBX 14 14 0 -1
BITMAP 
1200
1200
27FC
2480
6880
A080
2080
20F8
2080
2080
2080
2080
2080
2FFC
ENDCHAR
STARTCHAR U_3446
ENCODING 13382
SWIDTH 1000 0
DWIDTH 15 0
BBX 14 14 0 -1
BITMAP 
0BF0
0A10
1210
1210
3210
53F0
9120
1120
1120
1120
1120
1224
1424
181C
ENDCHAR
STARTCHAR U_3447
ENCODING 13383
SWIDTH 1000 0
DWIDTH 15 0
BBX 14 14 0 -1
BITMAP 
1100
13F0
2410
2820
6040
A7F8
2008
2008
2008
23F8
2008
2008
2008
27F8
ENDCHAR
STARTCHAR U_3448
ENCODING 13384
SWIDTH 1000 0
DWIDTH 15 0
BBX 14 14 0 -1
BITMAP 
0880
0880
17FC
1100
3100
5240
9240
13FC
1040
1250
1248
1444
1140
10C0
ENDCHAR
STARTCHAR U_3449
ENCODING 13385
SWIDTH 1000 0
DWIDTH 15 0
BBX 14 14 0 -1
BITMAP 
17F0
1410
27F0
6490
A490
25F0
2530
2530
2770
24D0
2450
2490
2894
2B08
ENDCHAR
STARTCHAR U_344A
ENCODING 13386
SWIDTH 1000 0
DWIDTH 15 0
BBX 14 14 0 -1
BITMAP 
1100
1080
2FFC
2120
6120
A120
2528
2524
2924
2120
2120
2220
2220
2C60
ENDCHAR
STARTCHAR U_344B
ENCODING 13387
SWIDTH 1000 0
DWIDTH 15 0
BBX 14 14 0 -1
BITMAP 
08A0
08A0
10A0
17FC
34A4
54A4
94A4
17FC
14A4
14A4
14A4
14A4
17FC
1404
ENDCHAR
STARTCHAR U_344C
ENCODING 13388
SWIDTH 1000 0
DWIDTH 15 0
BBX 14 14 0 -1
BITMAP 
0800
0FFC
1400
15FC
3420
5420
9420
14F8
1420
1420
1420
15FC
1400
17FC
ENDCHAR
STARTCHAR U_344D
ENCODING 13389
SWIDTH 1000 0
DWIDTH 15 0
BBX 14 14 0 -1
BITMAP 
0840
0840
13F8
1040
31F0
5040
97FC
1040
10E0
10E0
1150
1248
1444
1040
ENDCHAR
STARTCHAR U_344E
ENCODING 13390
SWIDTH 1000 0
DWIDTH 15 0
BBX 14 14 0 -1
BITMAP 
1248
1248
2490
2920
6490
A490
2248
2000
2080
2888
2888
2888
2888
2FF8
ENDCHAR
STARTCHAR U_344F
ENCODING 13391
SWIDTH 1000 0
DWIDTH 15 0
BBX 14 14 0 -1
BITMAP 
0880
0840
13FC
1204
3428
5020
97FC
1020
1220
1120
1020
1020
10E0
1040
ENDCHAR
STARTCHAR U_3450
ENCODING 13392
SWIDTH 1000 0
DWIDTH 15 0
BBX 14 14 0 -1
BITMAP 
0840
0840
1040
1078
3040
5040
97FC
1040
1150
1148
1244
1444
11C0
1080
ENDCHAR
STARTCHAR U_3451
ENCODING 13393
SWIDTH 1000 0
DWIDTH 15 0
BBX 14 14 0 -1
BITMAP 
0840
0840
1288
33FC
5208
9208
13F8
1208
1208
13F8
1208
1208
13F8
1208
ENDCHAR
STARTCHAR U_3452
ENCODING 13394
SWIDTH 1000 0
DWIDTH 15 0
BBX 14 14 0 -1
BITMAP 
0200
0D80
3060
C01C
1FC0
0200
3FF0
2210
2210
3FF0
0200
0D80
3060
C01C
ENDCHAR
STARTCHAR U_3453
ENCODING 13395
SWIDTH 1000 0
DWIDTH 15 0
BBX 14 14 0 -1
BITMAP 
0840
0880
1110
1208
37F4
5080
9080
17FC
1080
1178
1148
1250
1220
14DC
ENDCHAR
STARTCHAR U_3454
ENCODING 13396
SWIDTH 1000 0
DWIDTH 15 0
BBX 14 14 0 -1
BITMAP 
0FFC
0840
1040
1080
33F8
5208
9248
1248
1248
1248
1248
1090
1108
1604
ENDCHAR
STARTCHAR U_3455
ENCODING 13397
SWIDTH 1000 0
DWIDTH 15 0
BBX 14 14 0 -1
BITMAP 
0840
0840
1248
1248
33F8
5080
90F8
1108
1608
1090
1050
1020
10C0
1300
ENDCHAR
STARTCHAR U_3456
ENCODING 13398
SWIDTH 1000 0
DWIDTH 15 0
BBX 14 14 0 -1
BITMAP 
1120
1120
2220
6620
AAF8
22A8
22A8
22A8
22F8
2220
2220
2220
2220
2220
ENDCHAR
STARTCHAR U_3457
ENCODING 13399
SWIDTH 1000 0
DWIDTH 15 0
BBX 14 14 0 -1
BITMAP 
0840
0880
13F8
1208
33F8
5208
93F8
1208
1278
178C
1018
1068
1188
1618
ENDCHAR
STARTCHAR U_3458
ENCODING 13400
SWIDTH 1000 0
DWIDTH 15 0
BBX 14 14 0 -1
BITMAP 
1028
1024
2FFC
6020
A4A0
24A0
24A4
2FE4
24A8
24A8
2490
28B0
2054
2188
ENDCHAR
STARTCHAR U_3459
ENCODING 13401
SWIDTH 1000 0
DWIDTH 15 0
BBX 14 14 0 -1
BITMAP 
1000
1FFC
2480
24A0
67A0
A4A0
24A0
27A0
24A0
24A0
27A0
2CA0
20A4
209C
ENDCHAR
STARTCHAR U_345A
ENCODING 13402
SWIDTH 1000 0
DWIDTH 15 0
BBX 14 14 0 -1
BITMAP 
17BC
12A4
22A4
22A8
6FA8
A2B0
22A8
22A4
2FA4
22B4
22A8
24A0
24A0
29A0
ENDCHAR
STARTCHAR U_345B
ENCODING 13403
SWIDTH 1000 0
DWIDTH 15 0
BBX 14 14 0 -1
BITMAP 
1080
1FFC
2080
67F0
A490
2490
27F0
2080
21C0
22A0
2490
388C
2080
2080
ENDCHAR
STARTCHAR U_345C
ENCODING 13404
SWIDTH 1000 0
DWIDTH 15 0
BBX 14 14 0 -1
BITMAP 
0A0C
0A70
1240
3740
527C
9248
1248
1348
1648
1248
1248
1248
1288
1688
ENDCHAR
STARTCHAR U_345D
ENCODING 13405
SWIDTH 1000 0
DWIDTH 15 0
BBX 14 14 0 -1
BITMAP 
0BF8
0840
1040
13F8
3040
5040
97FC
1000
1110
17FC
1110
1110
1210
1410
ENDCHAR
STARTCHAR U_345E
ENCODING 13406
SWIDTH 1000 0
DWIDTH 15 0
BBX 14 14 0 -1
BITMAP 
1080
1080
2488
2290
6080
A140
2230
2C0C
2120
2FFC
2120
2120
2220
2C20
ENDCHAR
STARTCHAR U_345F
ENCODING 13407
SWIDTH 1000 0
DWIDTH 15 0
BBX 14 14 0 -1
BITMAP 
0838
0BC0
1200
1200
33F8
5220
9220
1220
1220
17FC
1000
1110
1208
1408
ENDCHAR
STARTCHAR U_3460
ENCODING 13408
SWIDTH 1000 0
DWIDTH 15 0
BBX 14 14 0 -1
BITMAP 
1100
157C
2548
6530
A510
2528
2544
2100
2080
2080
27F8
2080
2080
2FFC
ENDCHAR
STARTCHAR U_3461
ENCODING 13409
SWIDTH 1000 0
DWIDTH 15 0
BBX 14 14 0 -1
BITMAP 
17BC
14A4
24A4
27A4
64A4
A4A4
27A4
2424
2434
2428
2520
24A0
2560
2620
ENDCHAR
STARTCHAR U_3462
ENCODING 13410
SWIDTH 1000 0
DWIDTH 15 0
BBX 14 14 0 -1
BITMAP 
123C
1224
2224
2FA4
6224
A224
2224
2FA4
2234
242C
2520
28A0
29A0
2EA0
ENDCHAR
STARTCHAR U_3463
ENCODING 13411
SWIDTH 1000 0
DWIDTH 15 0
BBX 14 14 0 -1
BITMAP 
1210
1210
2210
2F7C
6210
A630
2738
26B8
2A54
2A54
3290
2210
2210
2210
ENDCHAR
STARTCHAR U_3464
ENCODING 13412
SWIDTH 1000 0
DWIDTH 15 0
BBX 14 14 0 -1
BITMAP 
1110
1110
27FC
6110
A110
2000
27FC
2444
2444
27FC
2444
2444
2444
27FC
ENDCHAR
STARTCHAR U_3465
ENCODING 13413
SWIDTH 1000 0
DWIDTH 15 0
BBX 14 14 0 -1
BITMAP 
09F8
0908
1108
31F8
5108
9108
11F8
1200
13FC
14A4
1924
1244
1094
1108
ENDCHAR
STARTCHAR U_3466
ENCODING 13414
SWIDTH 1000 0
DWIDTH 15 0
BBX 14 14 0 -1
BITMAP 
1078
1780
2400
67FC
A404
27FC
2450
2448
27FC
2440
2440
24A0
2890
2B0C
ENDCHAR
STARTCHAR U_3467
ENCODING 13415
SWIDTH 1000 0
DWIDTH 15 0
BBX 14 14 0 -1
BITMAP 
1070
13C0
1040
27FC
2150
6248
AC44
23F0
2020
2040
27FC
2040
2140
2080
ENDCHAR
STARTCHAR U_3468
ENCODING 13416
SWIDTH 1000 0
DWIDTH 15 0
BBX 14 14 0 -1
BITMAP 
17F8
1408
2408
67F8
A000
2400
27F8
2880
2080
2FF8
2080
2140
2220
2C1C
ENDCHAR
STARTCHAR U_3469
ENCODING 13417
SWIDTH 1000 0
DWIDTH 15 0
BBX 14 14 0 -1
BITMAP 
0000
0BFC
0954
1154
3154
51FC
1040
10BC
1108
1388
1450
1020
1040
0180
ENDCHAR
STARTCHAR U_346A
ENCODING 13418
SWIDTH 1000 0
DWIDTH 15 0
BBX 14 14 0 -1
BITMAP 
1040
17F8
2210
2120
60C0
A120
2E1C
2210
23F0
2210
23F0
2210
2410
2810
ENDCHAR
STARTCHAR U_346B
ENCODING 13419
SWIDTH 1000 0
DWIDTH 15 0
BBX 14 14 0 -1
BITMAP 
0100
1180
1240
2420
6990
A00C
27E0
2040
2240
2118
2A04
2908
20F8
0000
ENDCHAR
STARTCHAR U_346C
ENCODING 13420
SWIDTH 1000 0
DWIDTH 15 0
BBX 14 14 0 -1
BITMAP 
1010
1410
2410
647C
BF90
2490
2490
297C
2944
2544
2244
2544
297C
3044
ENDCHAR
STARTCHAR U_346D
ENCODING 13421
SWIDTH 1000 0
DWIDTH 15 0
BBX 14 14 0 -1
BITMAP 
0BF8
0A48
13F8
2248
63F8
A000
2FFC
2110
2110
2110
2110
2210
2410
2810
ENDCHAR
STARTCHAR U_346E
ENCODING 13422
SWIDTH 1000 0
DWIDTH 15 0
BBX 14 14 0 -1
BITMAP 
17FC
1404
2040
67F8
A040
23F8
2248
23F8
2248
23F8
2040
2FFC
2040
2040
ENDCHAR
STARTCHAR U_346F
ENCODING 13423
SWIDTH 1000 0
DWIDTH 15 0
BBX 14 14 0 -1
BITMAP 
17FC
1080
23F8
6208
A3F8
2208
2208
23F8
2208
23F8
2000
2110
2208
2404
ENDCHAR
STARTCHAR U_3470
ENCODING 13424
SWIDTH 1000 0
DWIDTH 15 0
BBX 14 14 0 -1
BITMAP 
0200
13F0
1410
17E0
2020
6FF8
A108
2290
2C60
21D0
2E50
21C8
2644
0080
ENDCHAR
STARTCHAR U_3471
ENCODING 13425
SWIDTH 1000 0
DWIDTH 15 0
BBX 14 14 0 -1
BITMAP 
13F8
1010
2120
6FFC
A148
2240
2CC0
2000
2080
2FFC
2080
22A0
2490
2888
ENDCHAR
STARTCHAR U_3472
ENCODING 13426
SWIDTH 1000 0
DWIDTH 15 0
BBX 14 14 0 -1
BITMAP 
1040
13F8
1040
2040
27FC
6404
A514
24A4
25F4
2444
27FC
2444
2454
2408
ENDCHAR
STARTCHAR U_3473
ENCODING 13427
SWIDTH 1000 0
DWIDTH 15 0
BBX 14 14 0 -1
BITMAP 
1400
17FC
2884
6494
A7F4
2084
250C
2400
27FC
2884
2494
27F4
2084
270C
ENDCHAR
STARTCHAR U_3474
ENCODING 13428
SWIDTH 1000 0
DWIDTH 15 0
BBX 14 14 0 -1
BITMAP 
17F0
1010
2FFC
2010
67F0
A000
2FFC
2884
27F8
2488
2FF8
2220
21F0
2E0C
ENDCHAR
STARTCHAR U_3475
ENCODING 13429
SWIDTH 1000 0
DWIDTH 15 0
BBX 14 14 0 -1
BITMAP 
1040
1020
13FC
2200
2A40
667C
A290
2610
2AFC
2A10
2210
2228
2444
2884
ENDCHAR
STARTCHAR U_3476
ENCODING 13430
SWIDTH 1000 0
DWIDTH 15 0
BBX 14 14 0 -1
BITMAP 
1400
17FC
2800
67F8
A000
2FF0
2110
2950
2550
2FF0
2110
2550
2554
2928
ENDCHAR
STARTCHAR U_3477
ENCODING 13431
SWIDTH 1000 0
DWIDTH 15 0
BBX 14 14 0 -1
BITMAP 
1220
14A0
2FBC
6020
A7A0
24A0
249C
2780
24A0
24BC
27A0
24A0
24A4
299C
ENDCHAR
STARTCHAR U_3478
ENCODING 13432
SWIDTH 1000 0
DWIDTH 15 0
BBX 14 14 0 -1
BITMAP 
1080
17F8
2080
23F0
6210
A3F0
2000
2FFC
2008
23E8
2228
23E8
2008
2018
ENDCHAR
STARTCHAR U_3479
ENCODING 13433
SWIDTH 1000 0
DWIDTH 15 0
BBX 14 14 0 -1
BITMAP 
0300
0CC0
3FF0
C10C
3FF8
2108
3FF8
2108
3FF8
0FE0
0820
0FE0
0820
0FE0
ENDCHAR
STARTCHAR U_347A
ENCODING 13434
SWIDTH 1000 0
DWIDTH 15 0
BBX 14 14 0 -1
BITMAP 
1220
13FC
2420
2DF8
6420
A5FC
2420
27FC
2000
2FF8
2210
223C
2404
2818
ENDCHAR
STARTCHAR U_347B
ENCODING 13435
SWIDTH 1000 0
DWIDTH 15 0
BBX 14 14 0 -1
BITMAP 
1080
1040
17FC
1504
20A0
2A48
6A94
A1F0
2600
2040
2444
2444
2444
27FC
ENDCHAR
STARTCHAR U_347C
ENCODING 13436
SWIDTH 1000 0
DWIDTH 15 0
BBX 14 14 0 -1
BITMAP 
2020
2020
405C
DF84
5548
5530
5568
5F84
5578
5548
5548
5F48
4048
4078
ENDCHAR
STARTCHAR U_347D
ENCODING 13437
SWIDTH 1000 0
DWIDTH 15 0
BBX 14 14 0 -1
BITMAP 
1080
1488
2290
6FFC
A804
27F0
2410
2410
27F0
2080
27F0
2080
2080
2FFC
ENDCHAR
STARTCHAR U_347E
ENCODING 13438
SWIDTH 1000 0
DWIDTH 15 0
BBX 14 14 0 -1
BITMAP 
1100
13F8
2510
2AA0
64C0
AF80
2080
2FFC
2000
27F0
2000
27F0
2410
27F0
ENDCHAR
STARTCHAR U_347F
ENCODING 13439
SWIDTH 1000 0
DWIDTH 15 0
BBX 14 14 0 -1
BITMAP 
1248
1490
1248
17FC
2444
27FC
6444
A7FC
2040
27FC
20E0
2150
2148
264C
ENDCHAR
STARTCHAR U_3480
ENCODING 13440
SWIDTH 1000 0
DWIDTH 15 0
BBX 14 14 0 -1
BITMAP 
1080
1040
2FFC
2220
6140
AFF8
2888
2FF8
2888
2BE8
2A28
2A28
2BE8
2818
ENDCHAR
STARTCHAR U_3481
ENCODING 13441
SWIDTH 1000 0
DWIDTH 15 0
BBX 14 14 0 -1
BITMAP 
17FC
1444
2444
25F4
6444
A7FC
2514
24A4
25F4
2444
27FC
2444
2444
27FC
ENDCHAR
STARTCHAR U_3482
ENCODING 13442
SWIDTH 1000 0
DWIDTH 15 0
BBX 14 14 0 -1
BITMAP 
1210
1738
2210
6084
A7F8
2090
2FFC
2040
2180
27F8
2A08
23F8
2208
23F8
ENDCHAR
STARTCHAR U_3483
ENCODING 13443
SWIDTH 1000 0
DWIDTH 15 0
BBX 14 14 0 -1
BITMAP 
1028
17FC
2020
2FA0
6020
AFA0
2020
2FA0
2890
2F90
2890
2F90
2488
284C
ENDCHAR
STARTCHAR U_3484
ENCODING 13444
SWIDTH 1000 0
DWIDTH 15 0
BBX 14 14 0 -1
BITMAP 
2420
2428
27A4
48A0
D4FC
72A0
4920
4650
4488
5904
4000
4A48
4924
5124
ENDCHAR
STARTCHAR U_3485
ENCODING 13445
SWIDTH 1000 0
DWIDTH 15 0
BBX 14 14 0 -1
BITMAP 
1040
1FFC
2080
2370
6490
A1E0
2698
2060
2380
2C44
2328
2510
2988
2104
ENDCHAR
STARTCHAR U_3486
ENCODING 13446
SWIDTH 1000 0
DWIDTH 15 0
BBX 14 14 0 -1
BITMAP 
1080
1360
2C1C
23E0
6000
A7F0
2410
27F0
2F7C
2104
2924
2514
2924
230C
ENDCHAR
STARTCHAR U_3487
ENCODING 13447
SWIDTH 1000 0
DWIDTH 15 0
BBX 14 14 0 -1
BITMAP 
1400
17FC
26A8
2AA8
62A8
AFFC
22A8
22A8
22A8
2FFC
2000
2528
2494
2894
ENDCHAR
STARTCHAR U_3488
ENCODING 13448
SWIDTH 1000 0
DWIDTH 15 0
BBX 14 14 0 -1
BITMAP
1020
1FA0
2120
223C
7FC8
A548
27A8
2528
2728
2510
2790
3928
2128
2144
ENDCHAR
STARTCHAR U_3489
ENCODING 13449
SWIDTH 1000 0
DWIDTH 15 0
BBX 14 14 0 -1
BITMAP 
1488
1290
2FFC
2804
63F0
A210
2210
23F0
2080
2FFC
2080
22A0
2490
2888
ENDCHAR
STARTCHAR U_348A
ENCODING 13450
SWIDTH 1000 0
DWIDTH 15 0
BBX 14 14 0 -1
BITMAP 
17BC
1294
2AD4
66B4
A294
2294
2DAC
2000
2208
2208
2BAC
2A28
2AA8
3F7C
ENDCHAR
STARTCHAR U_348B
ENCODING 13451
SWIDTH 1000 0
DWIDTH 15 0
BBX 14 14 0 -1
BITMAP 
148C
14B0
2FE0
24A0
64BC
A7A8
24A8
27A8
24A8
24A8
2FE8
2028
2528
28C8
ENDCHAR
STARTCHAR U_348C
ENCODING 13452
SWIDTH 1000 0
DWIDTH 15 0
BBX 14 14 0 -1
BITMAP 
1210
1210
2AD4
2738
6210
A528
28C4
2FFC
2804
23F0
2210
2210
2214
2C1C
ENDCHAR
STARTCHAR U_348D
ENCODING 13453
SWIDTH 1000 0
DWIDTH 15 0
BBX 14 14 0 -1
BITMAP
1080
1110
23F8
2110
62A8
A7FC
2080
2130
23C0
2108
27FC
2040
2448
28C4
ENDCHAR
STARTCHAR U_348E
ENCODING 13454
SWIDTH 1000 0
DWIDTH 15 0
BBX 14 14 0 -1
BITMAP 
1030
13C0
2080
2FF8
6120
AE1C
2120
2F3C
2120
2738
2120
2F3C
2120
2120
ENDCHAR
STARTCHAR U_348F
ENCODING 13455
SWIDTH 1000 0
DWIDTH 15 0
BBX 14 14 0 -1
BITMAP 
1080
1FFC
2924
27F8
6120
A7F8
2120
2FFC
2210
2488
2844
2000
2160
2080
ENDCHAR
STARTCHAR U_3490
ENCODING 13456
SWIDTH 1000 0
DWIDTH 15 0
BBX 14 14 0 -1
BITMAP 
1420
17BC
2A50
2948
6200
A3FC
2404
2BE4
2224
23E4
2224
23E4
2014
2008
ENDCHAR
STARTCHAR U_3491
ENCODING 13457
SWIDTH 1000 0
DWIDTH 15 0
BBX 14 14 0 -1
BITMAP 
17FC
1440
2690
25FC
6490
A6FC
2590
24FC
2490
25FC
2690
26FC
2480
27FC
ENDCHAR
STARTCHAR U_3492
ENCODING 13458
SWIDTH 1000 0
DWIDTH 15 0
BBX 14 14 0 -1
BITMAP 
1140
1948
2550
2FFC
6410
A220
2FFC
2080
27F0
2080
2FFC
2080
2490
2888
ENDCHAR
STARTCHAR U_3493
ENCODING 13459
SWIDTH 1000 0
DWIDTH 15 0
BBX 14 14 0 -1
BITMAP 
1420
12F8
2020
2FFC
6250
A2F8
2420
2EF8
2220
22F8
2220
2420
2B20
20FC
ENDCHAR
STARTCHAR U_3494
ENCODING 13460
SWIDTH 1000 0
DWIDTH 15 0
BBX 14 14 0 -1
BITMAP 
17FC
14A4
24A4
27FC
6200
A7FC
2884
27F4
2494
2494
27F4
2094
2FF4
200C
ENDCHAR
STARTCHAR U_3495
ENCODING 13461
SWIDTH 1000 0
DWIDTH 15 0
BBX 14 14 0 -1
BITMAP 
1080
1FFC
2440
2450
6990
AAFC
2690
24FC
2890
2AFC
2A90
2490
24FC
2880
ENDCHAR
STARTCHAR U_3496
ENCODING 13462
SWIDTH 1000 0
DWIDTH 15 0
BBX 14 14 0 -1
BITMAP 
1210
1FFC
2210
27F8
6448
A7F8
2448
27F8
2040
2FFC
2844
2854
2BF4
280C
ENDCHAR
STARTCHAR U_3497
ENCODING 13463
SWIDTH 1000 0
DWIDTH 15 0
BBX 14 14 0 -1
BITMAP 
1120
17F8
2120
21E0
6120
AFFC
2804
27F8
2120
23E0
2080
27F0
2080
2FFC
ENDCHAR
STARTCHAR U_3498
ENCODING 13464
SWIDTH 1000 0
DWIDTH 15 0
BBX 14 14 0 -1
BITMAP 
17DC
1514
2514
27D4
6448
A7C8
2514
2524
27C0
2040
27F8
2040
2040
2FFC
ENDCHAR
STARTCHAR U_3499
ENCODING 13465
SWIDTH 1000 0
DWIDTH 15 0
BBX 14 14 0 -1
BITMAP 
1210
1420
297C
2944
6A7C
A444
247C
2910
2F7C
2054
2554
2AD4
2A5C
2010
ENDCHAR
STARTCHAR U_349A
ENCODING 13466
SWIDTH 1000 0
DWIDTH 15 0
BBX 14 14 0 -1
BITMAP 
17FC
1248
27FC
2040
6FFC
A000
27F8
2008
2FFC
2008
27F8
2080
2A54
2BF4
ENDCHAR
STARTCHAR U_349B
ENCODING 13467
SWIDTH 1000 0
DWIDTH 15 0
BBX 14 14 0 -1
BITMAP 
17BC
1084
24A4
2294
64A4
A084
2240
23F8
2440
2FF8
2440
27F8
2440
27FC
ENDCHAR
STARTCHAR U_349C
ENCODING 13468
SWIDTH 1000 0
DWIDTH 15 0
BBX 14 14 0 -1
BITMAP 
1698
18E8
2888
2EF8
6828
A8A8
2EB8
28A8
2928
2968
3FFC
2000
2410
2808
ENDCHAR
STARTCHAR U_349D
ENCODING 13469
SWIDTH 1000 0
DWIDTH 15 0
BBX 14 14 0 -1
BITMAP 
1120
17F8
2120
27F8
6528
A7F8
2050
27F8
2440
2648
2528
2430
2454
298C
ENDCHAR
STARTCHAR U_349E
ENCODING 13470
SWIDTH 1000 0
DWIDTH 15 0
BBX 14 14 0 -1
BITMAP 
1444
17FC
2240
27F8
6C40
A7F8
2440
27F8
2440
27F8
2000
2F3C
29E4
280C
ENDCHAR
STARTCHAR U_349F
ENCODING 13471
SWIDTH 1000 0
DWIDTH 15 0
BBX 14 14 0 -1
BITMAP 
1040
1FFC
2440
67F8
A440
27F8
2440
27FC
2AA4
2AAC
2288
2650
2A20
231C
ENDCHAR
STARTCHAR U_34A0
ENCODING 13472
SWIDTH 1000 0
DWIDTH 15 0
BBX 14 14 0 -1
BITMAP 
1200
137C
2244
2FA8
6890
6528
A244
2480
2920
2738
2120
2738
2120
2FFC
ENDCHAR
STARTCHAR U_34A1
ENCODING 13473
SWIDTH 1000 0
DWIDTH 15 0
BBX 14 14 0 -1
BITMAP 
11A8
1E10
2AA4
2548
6830
6FC4
AA7C
3210
2F98
2234
2AD0
2A90
2A90
2FB0
ENDCHAR
STARTCHAR U_34A2
ENCODING 13474
SWIDTH 1000 0
DWIDTH 15 0
BBX 14 14 0 -1
BITMAP 
1080
1140
1220
2DDC
2000
5DDC
D554
5DDC
4000
4FF8
4948
4FF8
4948
4958
ENDCHAR
STARTCHAR U_34A3
ENCODING 13475
SWIDTH 1000 0
DWIDTH 15 0
BBX 14 14 0 -1
BITMAP 
1040
27FC
24A8
6540
67FC
A548
257C
2548
257C
2400
2528
2A84
2888
30F8
ENDCHAR
STARTCHAR U_34A4
ENCODING 13476
SWIDTH 1000 0
DWIDTH 15 0
BBX 14 14 0 -1
BITMAP 
17F8
1210
23F0
2210
6FFC
6010
AFFC
2528
2738
2528
2738
2528
2FFC
2108
ENDCHAR
STARTCHAR U_34A5
ENCODING 13477
SWIDTH 1000 0
DWIDTH 15 0
BBX 14 14 0 -1
BITMAP 
2AA8
2FF8
2AA8
4AA8
4FF8
C000
CFF8
4000
47F0
4410
47F0
4220
4140
5FFC
ENDCHAR
STARTCHAR U_34A6
ENCODING 13478
SWIDTH 1000 0
DWIDTH 15 0
BBX 14 14 0 -1
BITMAP 
27F0
2490
27F0
4490
47F0
DF7C
5554
5F7C
5554
5F7C
4080
4FF8
4080
5FFC
ENDCHAR
STARTCHAR U_34A7
ENCODING 13479
SWIDTH 1000 0
DWIDTH 15 0
BBX 14 14 0 -1
BITMAP 
1210
2F90
2028
6ABC
6DE8
A8A8
2FBC
2228
2FA8
2ABC
2FA8
28A8
28BC
29A0
ENDCHAR
STARTCHAR U_34A8
ENCODING 13480
SWIDTH 1000 0
DWIDTH 15 0
BBX 14 14 0 -1
BITMAP 
1280
15EC
2924
2D6C
69A4
6D6C
A080
2FFC
2110
23F8
2614
2BF0
2204
23FC
ENDCHAR
STARTCHAR U_34A9
ENCODING 13481
SWIDTH 1000 0
DWIDTH 15 0
BBX 14 14 0 -1
BITMAP 
1100
21F8
2210
6FFC
6080
A358
2CE0
2358
22E0
2738
2528
2738
2294
2FBC
ENDCHAR
STARTCHAR U_34AA
ENCODING 13482
SWIDTH 1000 0
DWIDTH 15 0
BBX 14 14 0 -1
BITMAP 
0300
0CC0
3038
FEF4
28A0
34D0
3EF0
0000
09F8
2E40
28A8
2970
3EA8
E164
ENDCHAR
STARTCHAR U_34AB
ENCODING 13483
SWIDTH 1000 0
DWIDTH 15 0
BBX 14 14 0 -1
BITMAP 
1FF0
1000
1000
1000
1FE0
1000
1000
FFFC
0880
0880
0880
1084
6084
807C
ENDCHAR
STARTCHAR U_34AC
ENCODING 13484
SWIDTH 1000 0
DWIDTH 15 0
BBX 14 14 0 -1
BITMAP 
0000
7C00
01F0
0040
FE40
2840
29F0
2840
2840
2840
4BF8
4804
4804
87FC
ENDCHAR
STARTCHAR U_34AD
ENCODING 13485
SWIDTH 1000 0
DWIDTH 15 0
BBX 14 14 0 -1
BITMAP 
0000
FDF8
8508
8508
8508
FDF8
4890
4890
4890
4890
4A90
4C94
8914
821C
ENDCHAR
STARTCHAR U_34AE
ENCODING 13486
SWIDTH 1000 0
DWIDTH 15 0
BBX 14 14 0 -1
BITMAP 
03FC
0020
7C40
00A0
0114
FE38
28D0
2910
2838
28D4
2910
4854
4424
83FC
ENDCHAR
STARTCHAR U_34AF
ENCODING 13487
SWIDTH 1000 0
DWIDTH 15 0
BBX 14 14 0 -1
BITMAP 
2110
27BC
A910
6800
37FC
2040
FA48
575C
5248
5040
57FC
5840
53F8
8040
ENDCHAR
STARTCHAR U_34B0
ENCODING 13488
SWIDTH 1000 0
DWIDTH 15 0
BBX 14 14 0 -1
BITMAP 
0C00
0200
0500
0880
1040
2030
C00C
1FE0
0200
0200
0200
0200
7FF8
0000
ENDCHAR
STARTCHAR U_34B1
ENCODING 13489
SWIDTH 1000 0
DWIDTH 15 0
BBX 14 14 0 -1
BITMAP 
0C00
0300
04C0
1830
E20C
0200
07E0
0820
1440
2240
0180
0100
0600
7800
ENDCHAR
STARTCHAR U_34B2
ENCODING 13490
SWIDTH 1000 0
DWIDTH 15 0
BBX 14 14 0 -1
BITMAP 
0C00
0200
0500
0880
1040
2030
C00C
3FF0
2010
3FF0
2010
2010
3FF0
2010
ENDCHAR
STARTCHAR U_34B3
ENCODING 13491
SWIDTH 1000 0
DWIDTH 15 0
BBX 14 14 0 -1
BITMAP 
7FFC
4104
5144
4924
4924
4924
5554
5554
5554
638C
4104
4104
413C
4108
ENDCHAR
STARTCHAR U_34B4
ENCODING 13492
SWIDTH 1000 0
DWIDTH 15 0
BBX 14 14 0 -1
BITMAP 
0E00
0180
0240
0C30
300C
C100
1110
1110
1110
1FF0
2108
2108
2108
3FF8
ENDCHAR
STARTCHAR U_34B5
ENCODING 13493
SWIDTH 1000 0
DWIDTH 15 0
BBX 14 14 0 -1
BITMAP 
0400
0400
0800
3FE0
2020
2020
3FE0
2020
2020
3FE0
0000
1040
2030
4010
ENDCHAR
STARTCHAR U_34B6
ENCODING 13494
SWIDTH 1000 0
DWIDTH 15 0
BBX 14 14 0 -1
BITMAP 
0100
0480
0480
0840
1020
2210
C40C
1FE0
1020
1020
1FE0
1020
1020
1FE0
ENDCHAR
STARTCHAR U_34B7
ENCODING 13495
SWIDTH 1000 0
DWIDTH 15 0
BBX 14 14 0 -1
BITMAP 
0000
1FE0
1120
1120
1120
12A0
1460
1860
1020
FFFC
0000
0840
1020
2020
ENDCHAR
STARTCHAR U_34B8
ENCODING 13496
SWIDTH 1000 0
DWIDTH 15 0
BBX 14 14 0 -1
BITMAP 
1020
0820
0840
FFFC
0200
0410
1A60
6580
1940
6320
0D1C
F100
0500
0200
ENDCHAR
STARTCHAR U_34B9
ENCODING 13497
SWIDTH 1000 0
DWIDTH 15 0
BBX 14 14 0 -1
BITMAP 
1020
FEFC
1020
7CF8
4488
7CF8
4488
7CF8
4488
7CF8
4488
FFFC
2850
4488
ENDCHAR
STARTCHAR U_34BA
ENCODING 13498
SWIDTH 1000 0
DWIDTH 15 0
BBX 14 14 0 -1
BITMAP 
FFFC
8004
8844
8484
BFF4
8004
9104
9104
9284
9444
9004
9FE4
8014
8008
ENDCHAR
STARTCHAR U_34BB
ENCODING 13499
SWIDTH 1000 0
DWIDTH 15 0
BBX 14 14 0 -1
BITMAP 
7FF8
4008
5FE8
4008
3FF0
2010
3FF0
2010
3FF0
2010
3FF0
0440
0844
F03C
ENDCHAR
STARTCHAR U_34BC
ENCODING 13500
SWIDTH 1000 0
DWIDTH 15 0
BBX 14 14 0 -1
BITMAP 
1040
FFF8
1040
1FC0
0200
0200
7FF0
4210
6310
5290
5AD0
6730
4210
4230
ENDCHAR
STARTCHAR U_34BD
ENCODING 13501
SWIDTH 1000 0
DWIDTH 15 0
BBX 14 14 0 -1
BITMAP 
7FF8
4008
5FE8
4008
5FE8
0920
1FF0
0200
7FFC
0820
17D0
E44C
04D0
07F0
ENDCHAR
STARTCHAR U_34BE
ENCODING 13502
SWIDTH 1000 0
DWIDTH 15 0
BBX 14 14 0 -1
BITMAP 
3FF0
2010
2FD0
2010
0FC0
2100
FDFC
42A0
7DFC
44A4
44AC
44A0
5484
887C
ENDCHAR
STARTCHAR U_34BF
ENCODING 13503
SWIDTH 1000 0
DWIDTH 15 0
BBX 14 14 0 -1
BITMAP 
7FF8
4008
5FE8
0000
1040
FE90
ABFC
9290
FEFC
1090
FEFC
9290
FA90
86FC
ENDCHAR
STARTCHAR U_34C0
ENCODING 13504
SWIDTH 1000 0
DWIDTH 15 0
BBX 14 14 0 -1
BITMAP 
7FFC
4004
8208
0200
0200
0300
0280
0240
0220
0220
0200
0200
0200
0200
ENDCHAR
STARTCHAR U_34C1
ENCODING 13505
SWIDTH 1000 0
DWIDTH 15 0
BBX 14 14 0 -1
BITMAP 
0000
7FFC
4008
8010
0880
0840
1030
2010
0000
0000
0000
0000
0000
0000
ENDCHAR
STARTCHAR U_34C2
ENCODING 13506
SWIDTH 1000 0
DWIDTH 15 0
BBX 14 14 0 -1
BITMAP 
7FFC
4004
8008
7C40
01FC
FE48
2888
2890
2910
29A0
2860
4890
4B0C
87FC
ENDCHAR
STARTCHAR U_34C3
ENCODING 13507
SWIDTH 1000 0
DWIDTH 15 0
BBX 14 14 0 -1
BITMAP 
0000
7FFC
5008
8830
7DC0
0040
3C40
0078
3DC0
0040
3C48
2448
3C48
2438
ENDCHAR
STARTCHAR U_34C4
ENCODING 13508
SWIDTH 1000 0
DWIDTH 15 0
BBX 14 14 0 -1
BITMAP 
2020
4820
FCFC
4128
AA20
EC20
3020
4860
A460
5060
24A0
C920
3124
C61C
ENDCHAR
STARTCHAR U_34C5
ENCODING 13509
SWIDTH 1000 0
DWIDTH 15 0
BBX 14 14 0 -1
BITMAP 
4008
37FC
1040
0040
0040
0840
1040
1040
2040
E040
2040
2040
2140
2080
ENDCHAR
STARTCHAR U_34C6
ENCODING 13510
SWIDTH 1000 0
DWIDTH 15 0
BBX 14 14 0 -1
BITMAP 
4080
2080
2140
0220
0C1C
0000
0200
1230
2240
C380
4200
4204
4204
41FC
ENDCHAR
STARTCHAR U_34C7
ENCODING 13511
SWIDTH 1000 0
DWIDTH 15 0
BBX 14 14 0 -1
BITMAP 
0010
4038
27C0
2080
0080
0088
0FFC
0080
0080
2140
4120
4210
8408
1804
ENDCHAR
STARTCHAR U_34C8
ENCODING 13512
SWIDTH 1000 0
DWIDTH 15 0
BBX 14 14 0 -1
BITMAP 
0000
0008
4FFC
2080
2080
0100
0100
0200
07F8
2A08
2208
4208
43F8
8200
ENDCHAR
STARTCHAR U_34C9
ENCODING 13513
SWIDTH 1000 0
DWIDTH 15 0
BBX 14 14 0 -1
BITMAP 
0010
4078
2780
2080
0088
0FFC
0080
1080
17F0
2410
4410
C410
07F0
0400
ENDCHAR
STARTCHAR U_34CA
ENCODING 13514
SWIDTH 1000 0
DWIDTH 15 0
BBX 14 14 0 -1
BITMAP 
47FC
2404
2404
15F4
1404
0404
05F4
1514
2514
25F4
E514
2404
2414
2408
ENDCHAR
STARTCHAR U_34CB
ENCODING 13515
SWIDTH 1000 0
DWIDTH 15 0
BBX 14 14 0 -1
BITMAP 
0120
4120
2120
17F8
1120
0120
0120
0120
1FFC
2000
6120
2310
2408
2808
ENDCHAR
STARTCHAR U_34CC
ENCODING 13516
SWIDTH 1000 0
DWIDTH 15 0
BBX 14 14 0 -1
BITMAP 
4040
20A0
2110
160C
1000
03F8
0040
1040
2040
C3F8
4040
4040
4040
47FC
ENDCHAR
STARTCHAR U_34CD
ENCODING 13517
SWIDTH 1000 0
DWIDTH 15 0
BBX 14 14 0 -1
BITMAP 
8080
4040
2FFC
2080
1100
1220
0210
07E8
2008
C140
4140
4240
4444
583C
ENDCHAR
STARTCHAR U_34CE
ENCODING 13518
SWIDTH 1000 0
DWIDTH 15 0
BBX 14 14 0 -1
BITMAP 
83F0
4010
27FC
1010
13F0
0000
07FC
1404
21F0
C110
40A0
4040
41B0
460C
ENDCHAR
STARTCHAR U_34CF
ENCODING 13519
SWIDTH 1000 0
DWIDTH 15 0
BBX 14 14 0 -1
BITMAP 
8FFC
4804
4924
2A14
2C0C
0804
09E4
0924
2924
C924
4924
49E4
4814
4808
ENDCHAR
STARTCHAR U_34D0
ENCODING 13520
SWIDTH 1000 0
DWIDTH 15 0
BBX 14 14 0 -1
BITMAP 
4040
2040
13F8
1040
0040
07FC
0110
1110
2250
CC4C
41F0
4040
4040
47FC
ENDCHAR
STARTCHAR U_34D1
ENCODING 13521
SWIDTH 1000 0
DWIDTH 15 0
BBX 14 14 0 -1
BITMAP 
0080
4080
27F0
1080
1080
0FFC
0210
1120
27F8
C080
4FFC
4080
4080
4080
ENDCHAR
STARTCHAR U_34D2
ENCODING 13522
SWIDTH 1000 0
DWIDTH 15 0
BBX 14 14 0 -1
BITMAP 
4100
2178
0F80
2100
C104
40FC
0200
0D80
3060
C21C
1200
2290
4248
0600
ENDCHAR
STARTCHAR U_34D3
ENCODING 13523
SWIDTH 1000 0
DWIDTH 15 0
BBX 14 14 0 -1
BITMAP 
4040
2040
17FC
1040
0040
07FC
0514
14A4
27FC
C444
4444
47FC
4444
444C
ENDCHAR
STARTCHAR U_34D4
ENCODING 13524
SWIDTH 1000 0
DWIDTH 15 0
BBX 14 14 0 -1
BITMAP 
4108
2208
2788
14FC
1788
0488
07A8
1498
2F88
C188
4288
4488
58A8
4110
ENDCHAR
STARTCHAR U_34D5
ENCODING 13525
SWIDTH 1000 0
DWIDTH 15 0
BBX 14 14 0 -1
BITMAP 
4050
4048
2FFC
2840
0820
0FE0
0824
0924
2D68
CBA8
4910
4A94
5468
50C4
ENDCHAR
STARTCHAR U_34D6
ENCODING 13526
SWIDTH 1000 0
DWIDTH 15 0
BBX 14 14 0 -1
BITMAP 
43F8
2248
23F8
1248
13F8
0150
07FC
1150
27FC
E040
23F8
2040
2040
2040
ENDCHAR
STARTCHAR U_34D7
ENCODING 13527
SWIDTH 1000 0
DWIDTH 15 0
BBX 14 14 0 -1
BITMAP 
413C
2794
2114
1794
1114
07A4
014C
0080
1120
23C0
C088
47F4
4250
44C8
ENDCHAR
STARTCHAR U_34D8
ENCODING 13528
SWIDTH 1000 0
DWIDTH 15 0
BBX 14 14 0 -1
BITMAP 
7FF0
4010
5FD0
4410
4BD0
7450
5290
4F10
7010
5FD0
4210
4F90
8214
BFE8
ENDCHAR
STARTCHAR U_34D9
ENCODING 13529
SWIDTH 1000 0
DWIDTH 15 0
BBX 14 14 0 -1
BITMAP 
0400
8204
8024
BFF4
8884
8884
8504
8504
8204
8504
8884
B064
FFFC
8004
ENDCHAR
STARTCHAR U_34DA
ENCODING 13530
SWIDTH 1000 0
DWIDTH 15 0
BBX 14 14 0 -1
BITMAP 
0004
7F04
0804
0824
0824
0824
0824
0824
0824
0924
0E04
F004
4014
0008
ENDCHAR
STARTCHAR U_34DB
ENCODING 13531
SWIDTH 1000 0
DWIDTH 15 0
BBX 14 14 0 -1
BITMAP 
0000
01FC
0044
7E44
0844
0844
0844
0844
0844
0A44
7C44
2084
0114
0608
ENDCHAR
STARTCHAR U_34DC
ENCODING 13532
SWIDTH 1000 0
DWIDTH 15 0
BBX 14 14 0 -1
BITMAP 
1000
11FC
2024
2424
4424
F824
0824
1024
2424
4444
FA44
0084
0114
0608
ENDCHAR
STARTCHAR U_34DD
ENCODING 13533
SWIDTH 1000 0
DWIDTH 15 0
BBX 14 14 0 -1
BITMAP 
1204
1204
1224
7FA4
1224
1224
1224
FFA4
1224
1224
2204
2204
4214
8208
ENDCHAR
STARTCHAR U_34DE
ENCODING 13534
SWIDTH 1000 0
DWIDTH 15 0
BBX 14 14 0 -1
BITMAP 
10FC
1E24
F024
1024
1024
1E24
F024
1044
1044
1E84
F084
1104
1128
1210
ENDCHAR
STARTCHAR U_34DF
ENCODING 13535
SWIDTH 1000 0
DWIDTH 15 0
BBX 14 14 0 -1
BITMAP 
0404
0404
3F84
24A4
2424
3FA4
30A4
2924
2624
2224
2504
4884
5094
8008
ENDCHAR
STARTCHAR U_34E0
ENCODING 13536
SWIDTH 1000 0
DWIDTH 15 0
BBX 14 14 0 -1
BITMAP 
1008
1008
1248
1F48
1048
1048
1048
FE48
8248
8248
8208
8248
FE38
8210
ENDCHAR
STARTCHAR U_34E1
ENCODING 13537
SWIDTH 1000 0
DWIDTH 15 0
BBX 14 14 0 -1
BITMAP 
1004
1004
2024
7F24
8824
8824
0824
FFA4
0824
0824
88A4
8884
88BC
7F08
ENDCHAR
STARTCHAR U_34E2
ENCODING 13538
SWIDTH 1000 0
DWIDTH 15 0
BBX 14 14 0 -1
BITMAP 
1004
1004
3F04
4244
A244
1444
0844
1444
6344
8144
7E44
4204
423C
7E08
ENDCHAR
STARTCHAR U_34E3
ENCODING 13539
SWIDTH 1000 0
DWIDTH 15 0
BBX 14 14 0 -1
BITMAP 
0804
0804
1404
2204
41A4
80A4
7E24
0024
7E24
4224
4224
4204
7E34
4208
ENDCHAR
STARTCHAR U_34E4
ENCODING 13540
SWIDTH 1000 0
DWIDTH 15 0
BBX 14 14 0 -1
BITMAP 
0804
0804
FFA4
0824
0824
7F24
0024
0024
7F24
4124
4124
4104
7F3C
4108
ENDCHAR
STARTCHAR U_34E5
ENCODING 13541
SWIDTH 1000 0
DWIDTH 15 0
BBX 14 14 0 -1
BITMAP 
1004
1204
9244
5444
3844
1044
FE44
0244
0244
FE44
0204
0224
FE1C
0008
ENDCHAR
STARTCHAR U_34E6
ENCODING 13542
SWIDTH 1000 0
DWIDTH 15 0
BBX 14 14 0 -1
BITMAP 
0004
FE04
0804
1044
2044
FE44
8244
8244
8244
FE44
8204
8224
821C
FE08
ENDCHAR
STARTCHAR U_34E7
ENCODING 13543
SWIDTH 1000 0
DWIDTH 15 0
BBX 14 14 0 -1
BITMAP 
0804
0804
1424
2224
5324
8924
7E24
0424
0824
7E24
4224
4204
7E14
4208
ENDCHAR
STARTCHAR U_34E8
ENCODING 13544
SWIDTH 1000 0
DWIDTH 15 0
BBX 14 14 0 -1
BITMAP 
0804
0804
0904
FFA4
0824
4924
4924
AAA4
9CA4
0824
1424
1204
213C
C108
ENDCHAR
STARTCHAR U_34E9
ENCODING 13545
SWIDTH 1000 0
DWIDTH 15 0
BBX 14 14 0 -1
BITMAP 
1004
1F04
1224
2424
7FA4
A4A4
24A4
3FA4
24A4
24A4
3FA4
2484
2494
4588
ENDCHAR
STARTCHAR U_34EA
ENCODING 13546
SWIDTH 1000 0
DWIDTH 15 0
BBX 14 14 0 -1
BITMAP 
2000
10FC
FE24
8224
FE24
8224
8224
FE24
8024
9024
8844
9C44
E494
8308
ENDCHAR
STARTCHAR U_34EB
ENCODING 13547
SWIDTH 1000 0
DWIDTH 15 0
BBX 14 14 0 -1
BITMAP 
0804
0804
FFC4
1214
2114
C0D4
0014
7F94
1214
1214
FFC4
1204
2214
4208
ENDCHAR
STARTCHAR U_34EC
ENCODING 13548
SWIDTH 1000 0
DWIDTH 15 0
BBX 14 14 0 -1
BITMAP 
0804
4904
2A24
7F24
0824
FFA4
1424
2224
4124
BEA4
1204
1204
2214
C608
ENDCHAR
STARTCHAR U_34ED
ENCODING 13549
SWIDTH 1000 0
DWIDTH 15 0
BBX 14 14 0 -1
BITMAP 
3F84
2084
3FA4
20A4
3FA4
1024
3FA4
44A4
A4A4
2AA4
3184
3F84
0094
0188
ENDCHAR
STARTCHAR U_34EE
ENCODING 13550
SWIDTH 1000 0
DWIDTH 15 0
BBX 14 14 0 -1
BITMAP 
7FC4
4444
4454
5F54
4454
4454
7FD4
4054
5F54
5154
5144
5F44
4054
8188
ENDCHAR
STARTCHAR U_34EF
ENCODING 13551
SWIDTH 1000 0
DWIDTH 15 0
BBX 14 14 0 -1
BITMAP 
2484
2484
4924
9224
4924
24A4
24A4
0024
FFA4
88A4
FFA4
8884
FF94
8088
ENDCHAR
STARTCHAR U_34F0
ENCODING 13552
SWIDTH 1000 0
DWIDTH 15 0
BBX 14 14 0 -1
BITMAP 
FF84
0804
0824
3E24
AAA4
AAA4
BEA4
AAA4
AAA4
AAA4
BE84
8084
FF94
8088
ENDCHAR
STARTCHAR U_34F1
ENCODING 13553
SWIDTH 1000 0
DWIDTH 15 0
BBX 14 14 0 -1
BITMAP 
0804
3604
C184
0024
7F24
0024
78A4
4AA4
7AA4
4AA4
7A84
4A84
4894
9988
ENDCHAR
STARTCHAR U_34F2
ENCODING 13554
SWIDTH 1000 0
DWIDTH 15 0
BBX 14 14 0 -1
BITMAP 
07C4
7804
4004
7FD4
4054
7FD4
4014
7FD4
6A54
6A54
7FD4
6A44
6A44
AACC
ENDCHAR
STARTCHAR U_34F3
ENCODING 13555
SWIDTH 1000 0
DWIDTH 15 0
BBX 14 14 0 -1
BITMAP 
3F04
2104
2124
3F24
2124
3F24
0024
FFA4
0824
2824
2F04
2804
5814
8788
ENDCHAR
STARTCHAR U_34F4
ENCODING 13556
SWIDTH 1000 0
DWIDTH 15 0
BBX 14 14 0 -1
BITMAP 
FF04
2004
FF24
A924
A924
A924
A924
AA24
1024
FF24
1004
2404
4214
8108
ENDCHAR
STARTCHAR U_34F5
ENCODING 13557
SWIDTH 1000 0
DWIDTH 15 0
BBX 14 14 0 -1
BITMAP 
7BC4
4A44
4A44
7BD4
0014
7F94
0014
FFD4
1014
3F94
0084
0084
0514
0208
ENDCHAR
STARTCHAR U_34F6
ENCODING 13558
SWIDTH 1000 0
DWIDTH 15 0
BBX 14 14 0 -1
BITMAP 
2004
F7C4
2244
7254
2254
F454
2454
28D4
0414
FFD4
0A14
1104
2084
C06C
ENDCHAR
STARTCHAR U_34F7
ENCODING 13559
SWIDTH 1000 0
DWIDTH 15 0
BBX 14 14 0 -1
BITMAP 
0804
1004
7F24
4124
7F24
4124
7F24
4124
7F24
0824
FF84
0804
2A14
4908
ENDCHAR
STARTCHAR U_34F8
ENCODING 13560
SWIDTH 1000 0
DWIDTH 15 0
BBX 14 14 0 -1
BITMAP 
F784
9484
94A4
F7A4
1424
1424
F7A4
80A4
80A4
F7A4
1404
1404
1414
FF88
ENDCHAR
STARTCHAR U_34F9
ENCODING 13561
SWIDTH 1000 0
DWIDTH 15 0
BBX 14 14 0 -1
BITMAP 
7FE4
4204
5254
4A94
4214
4514
58D4
4214
4214
5254
4A94
4204
4504
98CC
ENDCHAR
STARTCHAR U_34FA
ENCODING 13562
SWIDTH 1000 0
DWIDTH 15 0
BBX 14 14 0 -1
BITMAP 
0404
0704
0414
7FD4
4454
5F94
4414
43D4
4414
7FD4
5114
4A04
4404
BBCC
ENDCHAR
STARTCHAR U_34FB
ENCODING 13563
SWIDTH 1000 0
DWIDTH 15 0
BBX 14 14 0 -1
BITMAP 
7F84
5284
52A4
7FA4
0024
FFA4
0824
0824
4FA4
4824
4804
4804
4F94
F008
ENDCHAR
STARTCHAR U_34FC
ENCODING 13564
SWIDTH 1000 0
DWIDTH 15 0
BBX 14 14 0 -1
BITMAP 
0404
0404
7FC4
0414
0E14
3514
C4D4
0414
1B14
E4D4
2484
1504
2484
4C4C
ENDCHAR
STARTCHAR U_34FD
ENCODING 13565
SWIDTH 1000 0
DWIDTH 15 0
BBX 14 14 0 -1
BITMAP 
0804
8884
FF84
0024
0824
FFA4
80A4
3E24
0024
FFA4
0804
2A04
4914
8908
ENDCHAR
STARTCHAR U_34FE
ENCODING 13566
SWIDTH 1000 0
DWIDTH 15 0
BBX 14 14 0 -1
BITMAP 
7F88
4088
7F88
4408
5528
4E28
5528
4028
5428
5F08
6408
BFA8
8418
0408
ENDCHAR
STARTCHAR U_34FF
ENCODING 13567
SWIDTH 1000 0
DWIDTH 15 0
BBX 14 14 0 -1
BITMAP 
1F04
0404
FFE4
0E14
1514
2494
0A14
1514
2494
D574
0E14
1504
3494
0C0C
ENDCHAR
STARTCHAR U_3500
ENCODING 13568
SWIDTH 1000 0
DWIDTH 15 0
BBX 14 14 0 -1
BITMAP 
3F88
208C
3F88
20A8
3FA8
0428
FFE8
3FA8
20A8
3FA8
0408
1508
24A8
4C58
ENDCHAR
STARTCHAR U_3501
ENCODING 13569
SWIDTH 1000 0
DWIDTH 15 0
BBX 14 14 0 -1
BITMAP 
F440
1284
9124
60C4
4054
BF14
0014
7FD4
4054
4054
7FD4
4044
2094
FFE8
ENDCHAR
STARTCHAR U_3502
ENCODING 13570
SWIDTH 1000 0
DWIDTH 15 0
BBX 14 14 0 -1
BITMAP 
4908
2A08
1C08
7F28
0828
2A28
4928
88A8
4128
77A8
9508
6F88
4138
8110
ENDCHAR
STARTCHAR U_3503
ENCODING 13571
SWIDTH 1000 0
DWIDTH 15 0
BBX 14 14 0 -1
BITMAP 
11FC
2024
45CC
F800
11FC
2524
FDFC
0100
A904
54FC
0000
FFFC
0404
780C
ENDCHAR
STARTCHAR U_3504
ENCODING 13572
SWIDTH 1000 0
DWIDTH 15 0
BBX 14 14 0 -1
BITMAP 
FF84
1404
FFA4
94A4
94A4
FFA4
0824
4924
2A24
FFA4
0824
2A04
4914
8888
ENDCHAR
STARTCHAR U_3505
ENCODING 13573
SWIDTH 1000 0
DWIDTH 15 0
BBX 14 14 0 -1
BITMAP 
0404
7F84
0494
FFD4
0494
7F94
0414
5554
75D4
4454
7FC4
4444
75C4
954C
ENDCHAR
STARTCHAR U_3506
ENCODING 13574
SWIDTH 1000 0
DWIDTH 15 0
BBX 14 14 0 -1
BITMAP 
4204
73C4
A514
FFD4
2114
5294
94D4
0014
3F94
2084
3F84
2084
3F94
2088
ENDCHAR
STARTCHAR U_3507
ENCODING 13575
SWIDTH 1000 0
DWIDTH 15 0
BBX 14 14 0 -1
BITMAP 
7A84
0924
9154
6094
4054
BB94
0A94
7A94
4474
FBC4
0844
0A84
5114
26C8
ENDCHAR
STARTCHAR U_3508
ENCODING 13576
SWIDTH 1000 0
DWIDTH 15 0
BBX 14 14 0 -1
BITMAP 
1204
FFC4
1214
0014
1214
F3D4
1214
F394
1214
1214
F3C4
1204
1214
1208
ENDCHAR
STARTCHAR U_3509
ENCODING 13577
SWIDTH 1000 0
DWIDTH 15 0
BBX 14 14 0 -1
BITMAP 
3F84
2084
3F94
2014
2F94
2214
2F94
4A94
4F94
4204
5FC4
9244
9754
9048
ENDCHAR
STARTCHAR U_350A
ENCODING 13578
SWIDTH 1000 0
DWIDTH 15 0
BBX 14 14 0 -1
BITMAP 
0804
FF84
0024
7F24
4124
5D24
5524
7F24
2224
3E24
2204
3E04
0094
FF08
ENDCHAR
STARTCHAR U_350B
ENCODING 13579
SWIDTH 1000 0
DWIDTH 15 0
BBX 14 14 0 -1
BITMAP 
FD04
9104
FDE4
8604
FC14
91D4
9014
FC14
0014
7F94
5284
5284
5294
FFC8
ENDCHAR
STARTCHAR U_350C
ENCODING 13580
SWIDTH 1000 0
DWIDTH 15 0
BBX 14 14 0 -1
BITMAP 
F844
57C4
7454
7294
5114
FA94
1454
FFD4
2914
2904
2904
5A84
8C54
080C
ENDCHAR
STARTCHAR U_350D
ENCODING 13581
SWIDTH 1000 0
DWIDTH 15 0
BBX 14 14 0 -1
BITMAP 
4204
7384
A504
7F94
4094
7F94
4094
7F94
4094
7F84
2104
FFC4
2114
4108
ENDCHAR
STARTCHAR U_350E
ENCODING 13582
SWIDTH 1000 0
DWIDTH 15 0
BBX 14 14 0 -1
BITMAP 
9220
FEFC
5048
FE30
42FC
7E20
4020
7EF8
4220
7E20
0000
FFFC
0804
F018
ENDCHAR
STARTCHAR U_350F
ENCODING 13583
SWIDTH 1000 0
DWIDTH 15 0
BBX 14 14 0 -1
BITMAP 
FFC4
1004
3F04
5114
1114
1F14
0014
FBD4
2114
79D4
CB44
4944
4944
79CC
ENDCHAR
STARTCHAR U_3510
ENCODING 13584
SWIDTH 1000 0
DWIDTH 15 0
BBX 14 14 0 -1
BITMAP 
4204
7BC4
A294
1454
FFD4
1214
F3D4
1214
F3D4
1214
F3C4
1204
1F94
E008
ENDCHAR
STARTCHAR U_3511
ENCODING 13585
SWIDTH 1000 0
DWIDTH 15 0
BBX 14 14 0 -1
BITMAP 
0820
FEFC
2440
4010
FEFC
8248
FEFC
8010
FEFC
8210
FFFC
0804
1004
E018
ENDCHAR
STARTCHAR U_3512
ENCODING 13586
SWIDTH 1000 0
DWIDTH 15 0
BBX 14 14 0 -1
BITMAP 
8884
FF84
2424
7FA4
C424
7FA4
4424
7FA4
4424
FFC4
A144
DEC4
9254
9EC8
ENDCHAR
STARTCHAR U_3513
ENCODING 13587
SWIDTH 1000 0
DWIDTH 15 0
BBX 14 14 0 -1
BITMAP 
0E20
7020
1020
11FC
1024
FE24
1024
1024
1024
1044
1044
1084
1094
1308
ENDCHAR
STARTCHAR U_3514
ENCODING 13588
SWIDTH 1000 0
DWIDTH 15 0
BBX 14 14 0 -1
BITMAP 
1000
10F8
FE88
1288
1288
2288
4A88
84F8
0000
0FC0
3030
4008
3030
0FC0
ENDCHAR
STARTCHAR U_3515
ENCODING 13589
SWIDTH 1000 0
DWIDTH 15 0
BBX 14 14 0 -1
BITMAP 
2020
2020
7F20
80FC
3E24
0024
FC24
0424
0424
0424
0444
0544
0354
0188
ENDCHAR
STARTCHAR U_3516
ENCODING 13590
SWIDTH 1000 0
DWIDTH 15 0
BBX 14 14 0 -1
BITMAP 
1000
FF7C
1144
1144
1144
1144
2144
C37C
0000
7FFC
0004
0004
0024
0018
ENDCHAR
STARTCHAR U_3517
ENCODING 13591
SWIDTH 1000 0
DWIDTH 15 0
BBX 14 14 0 -1
BITMAP 
2820
2820
FE20
2A20
2AFC
FE24
A824
A824
FE24
2A24
2A24
2A24
4E54
8888
ENDCHAR
STARTCHAR U_3518
ENCODING 13592
SWIDTH 1000 0
DWIDTH 15 0
BBX 14 14 0 -1
BITMAP 
0C30
4920
69A0
4924
497C
7F24
4924
0824
4944
4944
4944
7FA8
4118
0000
ENDCHAR
STARTCHAR U_3519
ENCODING 13593
SWIDTH 1000 0
DWIDTH 15 0
BBX 14 14 0 -1
BITMAP 
4220
2420
0020
7F20
12FC
1224
1224
FFA4
1224
1224
1224
2244
2244
C28C
ENDCHAR
STARTCHAR U_351A
ENCODING 13594
SWIDTH 1000 0
DWIDTH 15 0
BBX 14 14 0 -1
BITMAP 
0C00
1008
6810
0810
0AF8
FC24
0828
0848
7E48
2290
2490
3D60
2020
0000
ENDCHAR
STARTCHAR U_351B
ENCODING 13595
SWIDTH 1000 0
DWIDTH 15 0
BBX 14 14 0 -1
BITMAP 
0200
FFFC
0200
3FF0
0000
1FE0
1020
1FE0
0200
FFFC
0204
0404
1814
E008
ENDCHAR
STARTCHAR U_351C
ENCODING 13596
SWIDTH 1000 0
DWIDTH 15 0
BBX 14 14 0 -1
BITMAP 
0F90
F010
4910
2AFC
0014
FF14
0214
0414
0924
FE24
4844
0844
2894
1308
ENDCHAR
STARTCHAR U_351D
ENCODING 13597
SWIDTH 1000 0
DWIDTH 15 0
BBX 14 14 0 -1
BITMAP 
0110
FF90
0810
087C
FF94
8894
CC94
AA94
AA94
DD94
8894
88A4
88A4
89CC
ENDCHAR
STARTCHAR U_351E
ENCODING 13598
SWIDTH 1000 0
DWIDTH 15 0
BBX 14 14 0 -1
BITMAP 
0620
7820
0820
FF7C
0824
2A24
EBA4
2A24
2AA4
6BA4
A844
0844
0894
0908
ENDCHAR
STARTCHAR U_351F
ENCODING 13599
SWIDTH 1000 0
DWIDTH 15 0
BBX 14 14 0 -1
BITMAP 
2840
2840
7EF0
8850
3ED0
0870
0E54
F094
410C
0200
7FF0
0210
0C10
7060
ENDCHAR
STARTCHAR U_3520
ENCODING 13600
SWIDTH 1000 0
DWIDTH 15 0
BBX 14 14 0 -1
BITMAP 
7E20
4220
7E20
4220
7EFC
2024
7F24
8924
4924
5524
6324
7F44
0154
0388
ENDCHAR
STARTCHAR U_3521
ENCODING 13601
SWIDTH 1000 0
DWIDTH 15 0
BBX 14 14 0 -1
BITMAP 
2020
4020
FF20
A520
99FC
9924
A524
FF24
0024
8844
EE44
8844
A9B4
CE88
ENDCHAR
STARTCHAR U_3522
ENCODING 13602
SWIDTH 1000 0
DWIDTH 15 0
BBX 14 14 0 -1
BITMAP 
2100
43F8
9410
63F8
4248
93F8
EA04
0204
ABF8
0200
7FF8
0408
1808
6030
ENDCHAR
STARTCHAR U_3523
ENCODING 13603
SWIDTH 1000 0
DWIDTH 15 0
BBX 14 14 0 -1
BITMAP 
7F20
4920
4920
7F20
497C
4924
7F24
0024
FFA4
AAA4
FFA4
AAC4
FFD4
0088
ENDCHAR
STARTCHAR U_3524
ENCODING 13604
SWIDTH 1000 0
DWIDTH 15 0
BBX 14 14 0 -1
BITMAP 
1020
0820
FFA0
82A0
7CFC
2A24
FF24
2A24
C9A4
7F24
4924
7F44
4954
7F88
ENDCHAR
STARTCHAR U_3525
ENCODING 13605
SWIDTH 1000 0
DWIDTH 15 0
BBX 14 14 0 -1
BITMAP 
FFA0
A2A0
FFA0
4420
94FC
F724
0424
F3A4
9024
F4A4
9724
F424
94A4
B3CC
ENDCHAR
STARTCHAR U_3526
ENCODING 13606
SWIDTH 1000 0
DWIDTH 15 0
BBX 14 14 0 -1
BITMAP 
4440
FE40
1040
FE40
11FC
FE44
5444
FE44
4444
7C44
4684
7C84
5894
6708
ENDCHAR
STARTCHAR U_3527
ENCODING 13607
SWIDTH 1000 0
DWIDTH 15 0
BBX 14 14 0 -1
BITMAP 
1F20
1020
FFA0
9120
FEFC
9024
BE24
AA24
BE24
8044
BE44
AA44
AA84
7F8C
ENDCHAR
STARTCHAR U_3528
ENCODING 13608
SWIDTH 1000 0
DWIDTH 15 0
BBX 14 14 0 -1
BITMAP 
7FFC
4004
8504
3DE4
0504
7DF4
0004
1FC4
1044
1FC4
1044
1FC4
1044
21D8
ENDCHAR
STARTCHAR U_3529
ENCODING 13609
SWIDTH 1000 0
DWIDTH 15 0
BBX 14 14 0 -1
BITMAP 
2000
3FFC
4204
9FC4
0204
3FE4
0404
0884
1FC4
0824
3FE4
2524
7FF4
000C
ENDCHAR
STARTCHAR U_352A
ENCODING 13610
SWIDTH 1000 0
DWIDTH 15 0
BBX 14 14 0 -1
BITMAP 
2000
3FFC
4204
83E4
0204
7FF4
5254
4894
6514
5254
4534
4894
5254
7FFC
ENDCHAR
STARTCHAR U_352B
ENCODING 13611
SWIDTH 1000 0
DWIDTH 15 0
BBX 14 14 0 -1
BITMAP 
0400
0400
0400
FFFC
0400
0400
0800
0A08
0A30
13C0
1200
2200
4204
81FC
ENDCHAR
STARTCHAR U_352C
ENCODING 13612
SWIDTH 1000 0
DWIDTH 15 0
BBX 14 14 0 -1
BITMAP 
2038
3FC0
2008
1FF8
0000
3FF0
2010
3FF0
2010
3FF0
0200
FFFC
0200
0200
ENDCHAR
STARTCHAR U_352D
ENCODING 13613
SWIDTH 1000 0
DWIDTH 15 0
BBX 14 14 0 -1
BITMAP 
03F0
4210
4210
43F0
4210
7BF0
4000
4FFC
4040
4440
5978
E140
42C0
0C3C
ENDCHAR
STARTCHAR U_352E
ENCODING 13614
SWIDTH 1000 0
DWIDTH 15 0
BBX 14 14 0 -1
BITMAP 
5110
FA10
525C
77D0
2030
FBCC
AA40
FBD0
2254
FA58
23D0
FA50
5254
8ADC
ENDCHAR
STARTCHAR U_352F
ENCODING 13615
SWIDTH 1000 0
DWIDTH 15 0
BBX 14 14 0 -1
BITMAP 
8008
FFFC
8000
9FE0
9020
9020
A020
CFD8
8840
8840
8FC0
8008
FFFC
8000
ENDCHAR
STARTCHAR U_3530
ENCODING 13616
SWIDTH 1000 0
DWIDTH 15 0
BBX 14 14 0 -1
BITMAP 
FFF8
8840
8840
8840
9E40
A260
D250
8C48
8440
8840
9040
A040
8040
FFFC
ENDCHAR
STARTCHAR U_3531
ENCODING 13617
SWIDTH 1000 0
DWIDTH 15 0
BBX 14 14 0 -1
BITMAP 
FFFC
8000
8D78
B108
A108
BD78
A108
A108
BFF8
8100
8240
8C20
B010
FFFC
ENDCHAR
STARTCHAR U_3532
ENCODING 13618
SWIDTH 1000 0
DWIDTH 15 0
BBX 14 14 0 -1
BITMAP 
FFFC
8840
9440
E340
88F0
BE50
A250
BE50
A250
BE50
A494
AC94
B30C
FFFC
ENDCHAR
STARTCHAR U_3533
ENCODING 13619
SWIDTH 1000 0
DWIDTH 15 0
BBX 14 14 0 -1
BITMAP 
FFFC
8800
9470
EB50
BE50
A250
BE50
A250
BE50
A850
A454
AA94
B10C
FFFC
ENDCHAR
STARTCHAR U_3534
ENCODING 13620
SWIDTH 1000 0
DWIDTH 15 0
BBX 14 14 0 -1
BITMAP 
FFFC
8000
9FF0
9110
9FF0
9110
9FF0
8440
9FF0
8440
BFF8
8820
9010
FFFC
ENDCHAR
STARTCHAR U_3535
ENCODING 13621
SWIDTH 1000 0
DWIDTH 15 0
BBX 14 14 0 -1
BITMAP 
FFFC
8000
BEF8
A288
BEF8
A080
9E78
8440
9FF0
8440
BFF8
8820
9010
FFFC
ENDCHAR
STARTCHAR U_3536
ENCODING 13622
SWIDTH 1000 0
DWIDTH 15 0
BBX 14 14 0 -1
BITMAP 
FFFC
8830
FF48
94B0
FF48
A2FC
BE20
A2FC
BE48
8878
FF48
8878
88CC
FFFC
ENDCHAR
STARTCHAR U_3537
ENCODING 13623
SWIDTH 1000 0
DWIDTH 15 0
BBX 14 14 0 -1
BITMAP 
FFFC
8000
BFF8
8100
8100
BFF8
A108
A108
A288
AC48
A008
A018
8000
FFFC
ENDCHAR
STARTCHAR U_3538
ENCODING 13624
SWIDTH 1000 0
DWIDTH 15 0
BBX 14 14 0 -1
BITMAP 
FFFC
80F8
BF00
A1E0
A100
AFF8
A908
ABC0
A900
A9E0
A920
A928
D238
FFFC
ENDCHAR
STARTCHAR U_3539
ENCODING 13625
SWIDTH 1000 0
DWIDTH 15 0
BBX 14 14 0 -1
BITMAP 
1040
1040
1040
13FC
FC44
1044
1044
1044
1044
1044
1084
1084
1114
1608
ENDCHAR
STARTCHAR U_353A
ENCODING 13626
SWIDTH 1000 0
DWIDTH 15 0
BBX 14 14 0 -1
BITMAP 
0200
0200
0200
FFFC
0200
1220
1220
1020
FCFC
1020
1020
1020
1004
0FFC
ENDCHAR
STARTCHAR U_353B
ENCODING 13627
SWIDTH 1000 0
DWIDTH 15 0
BBX 14 14 0 -1
BITMAP 
0008
FFFC
0100
0200
0E40
3230
C208
0200
0000
0200
0208
FFFC
0200
0200
ENDCHAR
STARTCHAR U_353C
ENCODING 13628
SWIDTH 1000 0
DWIDTH 15 0
BBX 14 14 0 -1
BITMAP 
1140
1120
FBFC
1620
1BF8
1A20
F3F8
5220
13FC
3200
0200
FFFC
0200
0200
ENDCHAR
STARTCHAR U_353D
ENCODING 13629
SWIDTH 1000 0
DWIDTH 15 0
BBX 14 14 0 -1
BITMAP 
0200
0200
03FC
0200
0200
7FF8
4008
4FC8
4848
4848
4848
4FC8
4008
7FF8
ENDCHAR
STARTCHAR U_353E
ENCODING 13630
SWIDTH 1000 0
DWIDTH 15 0
BBX 14 14 0 -1
BITMAP 
7FE0
4020
4020
4020
4020
4020
4020
4020
40A0
4040
4004
4004
4004
3FFC
ENDCHAR
STARTCHAR U_353F
ENCODING 13631
SWIDTH 1000 0
DWIDTH 15 0
BBX 14 14 0 -1
BITMAP 
0010
7FF8
1020
1020
1020
1020
1020
1020
11E0
1E20
1020
0020
0020
0020
ENDCHAR
STARTCHAR U_3540
ENCODING 13632
SWIDTH 1000 0
DWIDTH 15 0
BBX 14 14 0 -1
BITMAP 
0200
0200
7FF8
4208
7FF8
4208
7FF8
0000
3FF0
2010
2090
2064
2004
1FF8
ENDCHAR
STARTCHAR U_3541
ENCODING 13633
SWIDTH 1000 0
DWIDTH 15 0
BBX 14 14 0 -1
BITMAP 
C33C
3424
0C24
3224
C9A4
0824
FFA4
1024
1424
2424
2824
492C
9120
3EA0
ENDCHAR
STARTCHAR U_3542
ENCODING 13634
SWIDTH 1000 0
DWIDTH 15 0
BBX 14 14 0 -1
BITMAP 
0008
7FFC
4100
4180
4240
4430
490C
7080
4000
4FF8
4010
4020
8040
8080
ENDCHAR
STARTCHAR U_3543
ENCODING 13635
SWIDTH 1000 0
DWIDTH 15 0
BBX 14 14 0 -1
BITMAP 
3FF8
2000
2000
2FF8
2220
2220
2220
2FF8
2220
2220
2220
4220
4420
9820
ENDCHAR
STARTCHAR U_3544
ENCODING 13636
SWIDTH 1000 0
DWIDTH 15 0
BBX 14 14 0 -1
BITMAP 
7FFC
4000
5FFC
4100
4100
4200
4410
4820
5FC0
4100
4210
4408
9FFC
9004
ENDCHAR
STARTCHAR U_3545
ENCODING 13637
SWIDTH 1000 0
DWIDTH 15 0
BBX 14 14 0 -1
BITMAP 
3FFC
2000
2FF8
2888
2888
2FF8
2888
2888
2FF8
2080
2080
4080
4080
8080
ENDCHAR
STARTCHAR U_3546
ENCODING 13638
SWIDTH 1000 0
DWIDTH 15 0
BBX 14 14 0 -1
BITMAP 
0010
3FF8
2080
2080
2FF8
2080
2080
2080
27F0
2410
2410
4410
47F0
8410
ENDCHAR
STARTCHAR U_3547
ENCODING 13639
SWIDTH 1000 0
DWIDTH 15 0
BBX 14 14 0 -1
BITMAP 
3FFC
2000
2100
2080
2FF8
2000
2410
2410
2210
2220
2220
4220
4000
9FFC
ENDCHAR
STARTCHAR U_3548
ENCODING 13640
SWIDTH 1000 0
DWIDTH 15 0
BBX 14 14 0 -1
BITMAP 
3FFC
2100
2080
3FFC
2100
2200
2684
3A58
2260
2220
2220
4210
4288
8304
ENDCHAR
STARTCHAR U_3549
ENCODING 13641
SWIDTH 1000 0
DWIDTH 15 0
BBX 14 14 0 -1
BITMAP 
7FFC
4100
4100
42C0
4C20
701C
4FE0
4000
5FF0
5010
5010
5010
9FF0
9010
ENDCHAR
STARTCHAR U_354A
ENCODING 13642
SWIDTH 1000 0
DWIDTH 15 0
BBX 14 14 0 -1
BITMAP 
3FFC
2090
2088
3FFC
2080
2FF8
2888
2888
2FF8
2888
2888
2FF8
4888
8898
ENDCHAR
STARTCHAR U_354B
ENCODING 13643
SWIDTH 1000 0
DWIDTH 15 0
BBX 14 14 0 -1
BITMAP 
3FFC
2080
2140
2630
380C
27F0
2080
2080
2FF8
2080
2490
42A0
4080
9FFC
ENDCHAR
STARTCHAR U_354C
ENCODING 13644
SWIDTH 1000 0
DWIDTH 15 0
BBX 14 14 0 -1
BITMAP 
7FFC
4000
4FF0
4810
4FF0
4810
4FF0
4000
4FF0
4080
5FF8
4880
4480
8180
ENDCHAR
STARTCHAR U_354D
ENCODING 13645
SWIDTH 1000 0
DWIDTH 15 0
BBX 14 14 0 -1
BITMAP 
7FFC
4000
4440
4840
5FFC
6840
4840
4FFC
4840
4840
4FFC
4840
4840
8FFC
ENDCHAR
STARTCHAR U_354E
ENCODING 13646
SWIDTH 1000 0
DWIDTH 15 0
BBX 14 14 0 -1
BITMAP 
7FFC
4000
4080
4FF8
4080
5FFC
4200
4410
4FF8
4000
4FF8
4948
4948
9FFC
ENDCHAR
STARTCHAR U_354F
ENCODING 13647
SWIDTH 1000 0
DWIDTH 15 0
BBX 14 14 0 -1
BITMAP 
7FFC
4000
5F08
4048
5F28
5148
5128
5F0C
4018
5168
4A08
4408
5F08
8008
ENDCHAR
STARTCHAR U_3550
ENCODING 13648
SWIDTH 1000 0
DWIDTH 15 0
BBX 14 14 0 -1
BITMAP 
7FFC
4000
4400
5E78
5008
5E78
5008
5E78
4800
5FFC
6004
4AA4
5154
8008
ENDCHAR
STARTCHAR U_3551
ENCODING 13649
SWIDTH 1000 0
DWIDTH 15 0
BBX 14 14 0 -1
BITMAP 
7FFC
4000
4408
5F08
4408
5F7C
4008
5F08
5148
5F28
4008
5108
4A08
9F18
ENDCHAR
STARTCHAR U_3552
ENCODING 13650
SWIDTH 1000 0
DWIDTH 15 0
BBX 14 14 0 -1
BITMAP 
7FFC
4420
5FF8
4100
5FFC
4140
4E50
4248
5FF8
4240
4750
4A20
5254
8488
ENDCHAR
STARTCHAR U_3553
ENCODING 13651
SWIDTH 1000 0
DWIDTH 15 0
BBX 14 14 0 -1
BITMAP 
7FF8
4000
4FE0
4D60
4BA0
4FE0
4100
5FF0
4AA0
5110
4100
5FF0
4100
BFF8
ENDCHAR
STARTCHAR U_3554
ENCODING 13652
SWIDTH 1000 0
DWIDTH 15 0
BBX 14 14 0 -1
BITMAP 
7FFC
5430
5D24
55FC
5D54
55FC
5C00
65FC
5C00
7548
5D10
75A4
5E48
B4B0
ENDCHAR
STARTCHAR U_3555
ENCODING 13653
SWIDTH 1000 0
DWIDTH 15 0
BBX 14 14 0 -1
BITMAP 
0200
0200
0400
0440
0820
10F0
7F10
0100
0200
0400
0820
1010
21F8
7E08
ENDCHAR
STARTCHAR U_3556
ENCODING 13654
SWIDTH 1000 0
DWIDTH 15 0
BBX 14 14 0 -1
BITMAP 
0200
0480
0840
1FE0
0820
1450
3EF8
0100
7FFC
0100
0920
1110
2108
0100
ENDCHAR
STARTCHAR U_3557
ENCODING 13655
SWIDTH 1000 0
DWIDTH 15 0
BBX 14 14 0 -1
BITMAP 
2800
FE00
1020
7C20
1040
FE40
2090
3C88
457C
4B84
1000
2800
4400
83FC
ENDCHAR
STARTCHAR U_3558
ENCODING 13656
SWIDTH 1000 0
DWIDTH 15 0
BBX 14 14 0 -1
BITMAP 
1840
2020
7FF0
2020
5050
8888
FBFC
0500
18C0
2230
CB0C
32C0
CA38
0600
ENDCHAR
STARTCHAR U_3559
ENCODING 13657
SWIDTH 1000 0
DWIDTH 15 0
BBX 14 14 0 -1
BITMAP 
1020
2020
4478
FE90
4920
49FC
AF24
2124
5DFC
C458
2854
1050
2894
C51C
ENDCHAR
STARTCHAR U_355A
ENCODING 13658
SWIDTH 1000 0
DWIDTH 15 0
BBX 14 14 0 -1
BITMAP 
3FF0
1010
1210
0920
0920
0440
4440
2280
2100
0280
0440
0820
3010
C00C
ENDCHAR
STARTCHAR U_355B
ENCODING 13659
SWIDTH 1000 0
DWIDTH 15 0
BBX 14 14 0 -1
BITMAP 
0000
3FF0
0020
1840
0780
1870
E00C
0000
3FF0
0820
0440
0380
1C60
E01C
ENDCHAR
STARTCHAR U_355C
ENCODING 13660
SWIDTH 1000 0
DWIDTH 15 0
BBX 14 14 0 -1
BITMAP 
0100
3FF8
2108
2108
3FF8
0100
0000
7FF8
1010
0820
04C0
0300
1CC0
E03C
ENDCHAR
STARTCHAR U_355D
ENCODING 13661
SWIDTH 1000 0
DWIDTH 15 0
BBX 14 14 0 -1
BITMAP 
0200
0200
FFFC
0200
3FF0
2010
3FF0
0000
3FF0
1020
0840
0780
1860
E01C
ENDCHAR
STARTCHAR U_355E
ENCODING 13662
SWIDTH 1000 0
DWIDTH 15 0
BBX 14 14 0 -1
BITMAP 
7F00
417C
4144
7F44
4444
4448
5F28
5528
5528
5510
5530
5728
8428
04C4
ENDCHAR
STARTCHAR U_355F
ENCODING 13663
SWIDTH 1000 0
DWIDTH 15 0
BBX 14 14 0 -1
BITMAP 
1000
10FC
1E44
1044
9248
FE28
AA28
AA10
AA10
FE30
AA28
AA48
AA84
8704
ENDCHAR
STARTCHAR U_3560
ENCODING 13664
SWIDTH 1000 0
DWIDTH 15 0
BBX 14 14 0 -1
BITMAP 
6120
13FC
0E20
03FC
0A20
33F8
C220
43FC
0000
7FF8
2010
1060
0F80
F07C
ENDCHAR
STARTCHAR U_3561
ENCODING 13665
SWIDTH 1000 0
DWIDTH 15 0
BBX 14 14 0 -1
BITMAP 
1000
1C00
10FC
FE84
8284
7C48
2848
5430
AA30
4430
FE30
4448
4488
7D04
ENDCHAR
STARTCHAR U_3562
ENCODING 13666
SWIDTH 1000 0
DWIDTH 15 0
BBX 14 14 0 -1
BITMAP 
1000
1E7C
1044
FF44
8144
7E44
0024
7E28
4A28
6610
5210
7E28
2428
C344
ENDCHAR
STARTCHAR U_3563
ENCODING 13667
SWIDTH 1000 0
DWIDTH 15 0
BBX 14 14 0 -1
BITMAP 
0480
0480
0480
0480
0840
1040
6030
800C
1FE0
1020
1020
1020
1020
1FE0
ENDCHAR
STARTCHAR U_3564
ENCODING 13668
SWIDTH 1000 0
DWIDTH 15 0
BBX 14 14 0 -1
BITMAP 
0080
0080
F880
8FF0
8890
8890
8890
8890
8890
8890
F910
8114
0214
0C0C
ENDCHAR
STARTCHAR U_3565
ENCODING 13669
SWIDTH 1000 0
DWIDTH 15 0
BBX 14 14 0 -1
BITMAP 
0040
0040
0040
F840
8840
8840
8840
8840
88A0
88A0
F890
8110
0208
0C04
ENDCHAR
STARTCHAR U_3566
ENCODING 13670
SWIDTH 1000 0
DWIDTH 15 0
BBX 14 14 0 -1
BITMAP 
0000
3FF0
2010
2010
2010
3FF0
0200
0200
FFFC
0300
0480
0840
1030
600C
ENDCHAR
STARTCHAR U_3567
ENCODING 13671
SWIDTH 1000 0
DWIDTH 15 0
BBX 14 14 0 -1
BITMAP 
03FC
0204
FA04
8A04
8BFC
8A00
8A00
8A00
8A00
FA00
8A00
0200
0400
1800
ENDCHAR
STARTCHAR U_3568
ENCODING 13672
SWIDTH 1000 0
DWIDTH 15 0
BBX 14 14 0 -1
BITMAP 
03F0
0210
FA10
8B10
8A90
8A50
8A50
8A10
8A10
8A10
FA10
0214
0414
180C
ENDCHAR
STARTCHAR U_3569
ENCODING 13673
SWIDTH 1000 0
DWIDTH 15 0
BBX 14 14 0 -1
BITMAP 
0040
0040
07F8
F040
9040
9040
97F8
9040
9040
9040
F7FC
0040
0040
0040
ENDCHAR
STARTCHAR U_356A
ENCODING 13674
SWIDTH 1000 0
DWIDTH 15 0
BBX 14 14 0 -1
BITMAP 
0040
0040
FBFC
8A44
8A44
8840
8840
8860
88A0
F8A0
80A0
0124
0124
061C
ENDCHAR
STARTCHAR U_356B
ENCODING 13675
SWIDTH 1000 0
DWIDTH 15 0
BBX 14 14 0 -1
BITMAP 
0080
0040
07FC
F900
8900
89F8
8908
8908
8908
F908
8908
0208
0228
0C10
ENDCHAR
STARTCHAR U_356C
ENCODING 13676
SWIDTH 1000 0
DWIDTH 15 0
BBX 14 14 0 -1
BITMAP 
0040
0020
F8A0
8890
8910
8908
8A08
8C44
8844
F880
8890
0118
026C
0384
ENDCHAR
STARTCHAR U_356D
ENCODING 13677
SWIDTH 1000 0
DWIDTH 15 0
BBX 14 14 0 -1
BITMAP 
0010
0060
F1C0
9640
9040
9040
9FFC
9040
90A0
90A0
F110
0110
0208
0404
ENDCHAR
STARTCHAR U_356E
ENCODING 13678
SWIDTH 1000 0
DWIDTH 15 0
BBX 14 14 0 -1
BITMAP 
0120
0210
0408
FA14
9210
9120
9120
90C0
90C0
90C0
F120
0210
0408
0804
ENDCHAR
STARTCHAR U_356F
ENCODING 13679
SWIDTH 1000 0
DWIDTH 15 0
BBX 14 14 0 -1
BITMAP 
0400
0200
7FF8
4308
4488
4848
5028
6FD8
4848
4848
4848
4FC8
4028
4018
ENDCHAR
STARTCHAR U_3570
ENCODING 13680
SWIDTH 1000 0
DWIDTH 15 0
BBX 14 14 0 -1
BITMAP 
0030
00C0
F780
9080
90F8
9780
9080
90F8
9F80
9080
F080
0084
0084
007C
ENDCHAR
STARTCHAR U_3571
ENCODING 13681
SWIDTH 1000 0
DWIDTH 15 0
BBX 14 14 1 -1
BITMAP
0080
0090
F888
8FFC
8880
8880
8880
88C0
8940
8940
F940
8A44
0244
0C3C
ENDCHAR
STARTCHAR U_3572
ENCODING 13682
SWIDTH 1000 0
DWIDTH 15 0
BBX 14 14 0 -1
BITMAP 
0040
0040
F840
8FFC
8840
88E0
88E0
8950
8950
FA48
8A48
0444
0040
0040
ENDCHAR
STARTCHAR U_3573
ENCODING 13683
SWIDTH 1000 0
DWIDTH 15 0
BBX 14 14 0 -1
BITMAP 
0004
0514
F514
9514
9494
94A4
9464
9444
94A4
9514
F60C
0404
07FC
0004
ENDCHAR
STARTCHAR U_3574
ENCODING 13684
SWIDTH 1000 0
DWIDTH 15 0
BBX 14 14 0 -1
BITMAP 
07FC
0404
0408
F9E0
8920
8920
8920
8920
8920
F920
8920
0124
0224
0C1C
ENDCHAR
STARTCHAR U_3575
ENCODING 13685
SWIDTH 1000 0
DWIDTH 15 0
BBX 14 14 0 -1
BITMAP 
07FC
0040
F840
8840
8840
8840
8BF8
8840
8840
F840
8840
0040
0040
07FC
ENDCHAR
STARTCHAR U_3576
ENCODING 13686
SWIDTH 1000 0
DWIDTH 15 0
BBX 14 14 0 -1
BITMAP 
07F8
0080
F080
9080
9080
97F0
9090
9090
9090
F110
9110
0110
0110
0FFC
ENDCHAR
STARTCHAR U_3577
ENCODING 13687
SWIDTH 1000 0
DWIDTH 15 0
BBX 14 14 0 -1
BITMAP 
0020
0040
FA88
8BFC
8A08
8A08
8A08
8BF8
8A08
8A08
FA08
8A08
03F8
0208
ENDCHAR
STARTCHAR U_3578
ENCODING 13688
SWIDTH 1000 0
DWIDTH 15 0
BBX 14 14 0 -1
BITMAP 
0100
0080
F080
97F8
9000
9000
9210
9210
9110
F120
9120
0020
0040
0FFC
ENDCHAR
STARTCHAR U_3579
ENCODING 13689
SWIDTH 1000 0
DWIDTH 15 0
BBX 14 14 0 -1
BITMAP 
0100
0120
F110
9FFC
9100
9100
9108
9108
9290
9250
F220
0460
0890
330C
ENDCHAR
STARTCHAR U_357A
ENCODING 13690
SWIDTH 1000 0
DWIDTH 15 0
BBX 14 14 0 -1
BITMAP 
7CF8
4488
4488
4488
7CF8
0000
FFFC
0800
1000
3FF0
0010
0010
0120
00C0
ENDCHAR
STARTCHAR U_357B
ENCODING 13691
SWIDTH 1000 0
DWIDTH 15 0
BBX 14 14 0 -1
BITMAP 
0200
0100
FFFC
0100
0340
0D30
3108
C104
0100
3FF8
2008
2008
2008
3FF8
ENDCHAR
STARTCHAR U_357C
ENCODING 13692
SWIDTH 1000 0
DWIDTH 15 0
BBX 14 14 0 -1
BITMAP 
0200
0200
F3FC
9404
9914
90A4
9444
94A4
9514
F404
97F4
0004
0014
0008
ENDCHAR
STARTCHAR U_357D
ENCODING 13693
SWIDTH 1000 0
DWIDTH 15 0
BBX 14 14 0 -1
BITMAP 
0020
0220
F120
94A0
94A0
94A0
9420
9420
9420
F470
9548
0648
0484
0104
ENDCHAR
STARTCHAR U_357E
ENCODING 13694
SWIDTH 1000 0
DWIDTH 15 0
BBX 14 14 0 -1
BITMAP 
0200
0200
0AC0
1220
2210
C208
0200
0000
7E84
4298
42E0
4280
7E84
427C
ENDCHAR
STARTCHAR U_357F
ENCODING 13695
SWIDTH 1000 0
DWIDTH 15 0
BBX 14 14 0 -1
BITMAP 
00F0
3F00
0200
0200
FFFC
0700
0AC0
3230
C20C
1FE0
1020
1020
1FE0
1020
ENDCHAR
STARTCHAR U_3580
ENCODING 13696
SWIDTH 1000 0
DWIDTH 15 0
BBX 14 14 0 -1
BITMAP 
0080
0080
F7F0
9090
9FFC
9090
97F0
9080
97F0
9080
F080
8FF8
0080
0080
ENDCHAR
STARTCHAR U_3581
ENCODING 13697
SWIDTH 1000 0
DWIDTH 15 0
BBX 14 14 0 -1
BITMAP 
0304
00C8
F030
91C8
9644
9040
97FC
9080
9120
F240
9490
0108
03FC
0004
ENDCHAR
STARTCHAR U_3582
ENCODING 13698
SWIDTH 1000 0
DWIDTH 15 0
BBX 14 14 0 -1
BITMAP 
0040
0040
F3F8
9248
9248
93F8
9248
9248
93F8
F050
9020
0054
018C
0604
ENDCHAR
STARTCHAR U_3583
ENCODING 13699
SWIDTH 1000 0
DWIDTH 15 0
BBX 14 14 0 -1
BITMAP 
0038
07C0
F400
9400
97FC
9400
9400
95F8
9508
F508
9508
0508
09F8
1108
ENDCHAR
STARTCHAR U_3584
ENCODING 13700
SWIDTH 1000 0
DWIDTH 15 0
BBX 14 14 0 -1
BITMAP 
0208
0248
F248
9248
9768
9AD8
9248
9248
9248
F248
9248
0248
0408
0808
ENDCHAR
STARTCHAR U_3585
ENCODING 13701
SWIDTH 1000 0
DWIDTH 15 0
BBX 14 14 0 -1
BITMAP 
0028
0028
F020
97FC
9420
9424
9424
97A8
9428
F410
9410
0434
084C
1184
ENDCHAR
STARTCHAR U_3586
ENCODING 13702
SWIDTH 1000 0
DWIDTH 15 0
BBX 14 14 0 -1
BITMAP 
00A0
00A0
F0A0
97FC
94A4
94A4
94A4
97FC
94A4
94A4
F4A4
94A4
07FC
0404
ENDCHAR
STARTCHAR U_3587
ENCODING 13703
SWIDTH 1000 0
DWIDTH 15 0
BBX 14 14 0 -1
BITMAP 
07FC
0040
F080
97FC
94A4
94A4
94A4
94A4
94A4
94A4
F4A4
84A4
04A4
040C
ENDCHAR
STARTCHAR U_3588
ENCODING 13704
SWIDTH 1000 0
DWIDTH 15 0
BBX 14 14 0 -1
BITMAP 
0200
1FC0
0280
7FF8
0200
0CC0
1700
2420
47C0
8000
0FE0
0820
0820
0FE0
ENDCHAR
STARTCHAR U_3589
ENCODING 13705
SWIDTH 1000 0
DWIDTH 15 0
BBX 14 14 0 -1
BITMAP 
0080
0140
F220
9418
9884
9080
9080
94F0
9480
F480
9480
0480
0480
1FFC
ENDCHAR
STARTCHAR U_358A
ENCODING 13706
SWIDTH 1000 0
DWIDTH 15 0
BBX 14 14 0 -1
BITMAP 
07F0
0010
F010
93F0
9010
9010
97F0
9020
9FFC
F020
9220
0120
0020
0060
ENDCHAR
STARTCHAR U_358B
ENCODING 13707
SWIDTH 1000 0
DWIDTH 15 0
BBX 14 14 0 -1
BITMAP 
0200
0500
08C0
3030
C84C
0840
0840
1040
0000
7C88
44B0
44C4
7C84
447C
ENDCHAR
STARTCHAR U_358C
ENCODING 13708
SWIDTH 1000 0
DWIDTH 15 0
BBX 14 14 0 -1
BITMAP 
1100
1100
27E0
6120
A120
2224
2424
281C
0000
7C88
44B0
44C4
7C84
447C
ENDCHAR
STARTCHAR U_358D
ENCODING 13709
SWIDTH 1000 0
DWIDTH 15 0
BBX 14 14 0 -1
BITMAP 
0480
0280
2080
1080
01FC
FE80
0080
0080
0000
7C88
44B0
44C4
7C84
447C
ENDCHAR
STARTCHAR U_358E
ENCODING 13710
SWIDTH 1000 0
DWIDTH 15 0
BBX 14 14 0 -1
BITMAP 
0088
7C90
44E0
4484
7C84
027C
0500
0880
3060
C89C
0880
0880
1080
2080
ENDCHAR
STARTCHAR U_358F
ENCODING 13711
SWIDTH 1000 0
DWIDTH 15 0
BBX 14 14 0 -1
BITMAP 
07F8
0408
F408
97F8
9408
9408
97F8
9080
9080
F7F8
8080
0080
0080
0FFC
ENDCHAR
STARTCHAR U_3590
ENCODING 13712
SWIDTH 1000 0
DWIDTH 15 0
BBX 14 14 0 -1
BITMAP 
7CF8
4488
7CF8
0000
3FF0
0210
FFFC
0210
3FF0
0200
0200
0400
0800
3000
ENDCHAR
STARTCHAR U_3591
ENCODING 13713
SWIDTH 1000 0
DWIDTH 15 0
BBX 14 14 0 -1
BITMAP 
0030
0028
EFFC
A020
A4A0
A4A4
A4A4
AFE4
A4A8
A4A8
E490
0894
102C
00C4
ENDCHAR
STARTCHAR U_3592
ENCODING 13714
SWIDTH 1000 0
DWIDTH 15 0
BBX 14 14 0 -1
BITMAP 
0210
0110
F120
97F8
9048
97F8
9440
97FC
90C4
90C4
F144
9268
0450
0840
ENDCHAR
STARTCHAR U_3593
ENCODING 13715
SWIDTH 1000 0
DWIDTH 15 0
BBX 14 14 0 -1
BITMAP 
0080
01F0
F310
94E0
91B0
9E4C
93F8
9040
91F0
F040
97FC
0040
0040
0040
ENDCHAR
STARTCHAR U_3594
ENCODING 13716
SWIDTH 1000 0
DWIDTH 15 0
BBX 14 14 0 -1
BITMAP 
0000
03F0
F080
9080
97FC
9120
9210
9C0C
93F0
9210
F210
8210
03F0
0210
ENDCHAR
STARTCHAR U_3595
ENCODING 13717
SWIDTH 1000 0
DWIDTH 15 0
BBX 14 14 0 -1
BITMAP 
0080
0040
07FC
F210
9110
9120
97FC
9040
9040
F3F8
9040
0040
0040
0040
ENDCHAR
STARTCHAR U_3596
ENCODING 13718
SWIDTH 1000 0
DWIDTH 15 0
BBX 14 14 0 -1
BITMAP 
0400
0200
7FF8
1040
0840
0880
FFFC
0200
7FF8
0200
3FF0
2010
2010
3FF0
ENDCHAR
STARTCHAR U_3597
ENCODING 13719
SWIDTH 1000 0
DWIDTH 15 0
BBX 14 14 0 -1
BITMAP 
0040
0444
F444
97FC
9040
90C0
9120
9210
9DEC
9000
F3F8
9010
0020
00C0
ENDCHAR
STARTCHAR U_3598
ENCODING 13720
SWIDTH 1000 0
DWIDTH 15 0
BBX 14 14 0 -1
BITMAP 
03FC
0200
F200
93F8
9200
9200
93FC
92A0
92A4
F2A8
9290
02B0
04C8
0884
ENDCHAR
STARTCHAR U_3599
ENCODING 13721
SWIDTH 1000 0
DWIDTH 15 0
BBX 14 14 0 -1
BITMAP 
1000
FEFC
1284
2284
4284
8A84
04FC
0000
FD08
8510
8520
85C0
8504
FDFC
ENDCHAR
STARTCHAR U_359A
ENCODING 13722
SWIDTH 1000 0
DWIDTH 15 0
BBX 14 14 0 -1
BITMAP 
0810
13FC
3090
D050
1010
1030
1010
0000
7E88
4290
42A0
42C8
7E84
42FC
ENDCHAR
STARTCHAR U_359B
ENCODING 13723
SWIDTH 1000 0
DWIDTH 15 0
BBX 14 14 0 -1
BITMAP 
0100
0100
7FF8
0200
1FE0
1020
1020
1FE0
0000
7C88
4490
44E0
7C84
44FC
ENDCHAR
STARTCHAR U_359C
ENCODING 13724
SWIDTH 1000 0
DWIDTH 15 0
BBX 14 14 0 -1
BITMAP 
0400
0200
7FF8
0000
1FE0
1020
1020
1FE0
0000
7C90
44A0
44C8
7C84
44FC
ENDCHAR
STARTCHAR U_359D
ENCODING 13725
SWIDTH 1000 0
DWIDTH 15 0
BBX 14 14 0 -1
BITMAP 
0200
0200
3FF0
0200
7FF8
0780
1A60
E21C
0000
7C88
4490
44A0
7CC4
44FC
ENDCHAR
STARTCHAR U_359E
ENCODING 13726
SWIDTH 1000 0
DWIDTH 15 0
BBX 14 14 0 -1
BITMAP 
01F8
0108
0108
F108
91F8
9040
97FC
9444
9444
F4A4
9494
0514
0614
0408
ENDCHAR
STARTCHAR U_359F
ENCODING 13727
SWIDTH 1000 0
DWIDTH 15 0
BBX 14 14 0 -1
BITMAP 
0020
00C0
F308
9248
9150
97FC
9404
9808
93F0
9110
F0A0
9040
00A0
071C
ENDCHAR
STARTCHAR U_35A0
ENCODING 13728
SWIDTH 1000 0
DWIDTH 15 0
BBX 14 14 0 -1
BITMAP 
0080
0080
EFF8
A140
A220
A410
ABE8
A000
AFF8
E080
A4A0
0890
0A88
1188
ENDCHAR
STARTCHAR U_35A1
ENCODING 13729
SWIDTH 1000 0
DWIDTH 15 0
BBX 14 14 0 -1
BITMAP 
0100
0080
EFFC
A240
A240
A4B8
ACC8
B528
A690
E450
A420
0450
0488
0504
ENDCHAR
STARTCHAR U_35A2
ENCODING 13730
SWIDTH 1000 0
DWIDTH 15 0
BBX 14 14 0 -1
BITMAP 
0080
0040
F7FC
9490
9490
9490
94F4
9498
F690
9590
04B0
04D0
0994
121C
ENDCHAR
STARTCHAR U_35A3
ENCODING 13731
SWIDTH 1000 0
DWIDTH 15 0
BBX 14 14 0 -1
BITMAP 
0080
0040
F7F8
9210
9110
9120
9FFC
9000
9000
F3F8
9208
0208
03F8
0208
ENDCHAR
STARTCHAR U_35A4
ENCODING 13732
SWIDTH 1000 0
DWIDTH 15 0
BBX 14 14 0 -1
BITMAP 
0000
01F0
F020
9444
964C
9554
94E4
9444
94E4
F554
964C
0444
07FC
0000
ENDCHAR
STARTCHAR U_35A5
ENCODING 13733
SWIDTH 1000 0
DWIDTH 15 0
BBX 14 14 0 -1
BITMAP 
0000
07FC
F404
9434
95C4
9444
97FC
9444
94E4
F554
964C
0444
07FC
0404
ENDCHAR
STARTCHAR U_35A6
ENCODING 13734
SWIDTH 1000 0
DWIDTH 15 0
BBX 14 14 0 -1
BITMAP 
0000
0040
77FC
5040
53F8
5248
53F8
5248
53F8
70C0
5160
0250
0448
0844
ENDCHAR
STARTCHAR U_35A7
ENCODING 13735
SWIDTH 1000 0
DWIDTH 15 0
BBX 14 14 0 -1
BITMAP 
0018
07E0
F440
97F8
9440
9528
9610
9000
97F8
F408
97F8
0408
07F8
0408
ENDCHAR
STARTCHAR U_35A8
ENCODING 13736
SWIDTH 1000 0
DWIDTH 15 0
BBX 14 14 0 -1
BITMAP 
0008
03F8
F008
91F8
9008
97FC
9040
9248
9150
F060
9140
0650
044C
00C0
ENDCHAR
STARTCHAR U_35A9
ENCODING 13737
SWIDTH 1000 0
DWIDTH 15 0
BBX 14 14 0 -1
BITMAP 
0FC0
04B8
74A8
57A8
54A8
54A8
57A8
54A8
74A8
5590
0690
18A8
10C4
0080
ENDCHAR
STARTCHAR U_35AA
ENCODING 13738
SWIDTH 1000 0
DWIDTH 15 0
BBX 14 14 0 -1
BITMAP 
0028
F024
97FC
9020
93A0
92A0
92A4
93A4
92A8
F028
9190
0634
00CC
0304
ENDCHAR
STARTCHAR U_35AB
ENCODING 13739
SWIDTH 1000 0
DWIDTH 15 0
BBX 14 14 0 -1
BITMAP 
0040
0040
F3F8
9040
9040
97FC
9110
968C
90F0
F310
95A0
8040
01B0
060C
ENDCHAR
STARTCHAR U_35AC
ENCODING 13740
SWIDTH 1000 0
DWIDTH 15 0
BBX 14 14 0 -1
BITMAP 
0080
0318
F208
93B8
9208
93F8
9000
93F8
9110
F110
90A0
0040
01B0
060C
ENDCHAR
STARTCHAR U_35AD
ENCODING 13741
SWIDTH 1000 0
DWIDTH 15 0
BBX 14 14 0 -1
BITMAP 
0000
03F8
F040
9080
97FC
9110
9208
9444
9040
F148
9264
0454
0140
00C0
ENDCHAR
STARTCHAR U_35AE
ENCODING 13742
SWIDTH 1000 0
DWIDTH 15 0
BBX 14 14 0 -1
BITMAP 
0000
0040
00E0
7910
4A08
4DF4
4800
4BF8
4AA8
7AA8
4BF8
02A8
02A8
0218
ENDCHAR
STARTCHAR U_35AF
ENCODING 13743
SWIDTH 1000 0
DWIDTH 15 0
BBX 14 14 0 -1
BITMAP 
7FF8
4008
5FE8
4008
4FC8
4848
4FD8
0000
7E88
4290
42A0
42C8
7E88
42F8
ENDCHAR
STARTCHAR U_35B0
ENCODING 13744
SWIDTH 1000 0
DWIDTH 15 0
BBX 14 14 0 -1
BITMAP 
7E88
42B0
42C0
4284
7E7C
0000
7FFC
4004
4FE4
4004
4FE4
4824
4FE4
400C
ENDCHAR
STARTCHAR U_35B1
ENCODING 13745
SWIDTH 1000 0
DWIDTH 15 0
BBX 14 14 0 -1
BITMAP 
0200
FFFC
0900
13F8
3490
DA60
11C0
1160
1618
0000
3FF0
2010
2010
3FF0
ENDCHAR
STARTCHAR U_35B2
ENCODING 13746
SWIDTH 1000 0
DWIDTH 15 0
BBX 14 14 0 -1
BITMAP 
1000
1000
FEF8
1288
2288
6488
18F8
2688
C100
7E9C
42E0
4284
7E84
427C
ENDCHAR
STARTCHAR U_35B3
ENCODING 13747
SWIDTH 1000 0
DWIDTH 15 0
BBX 14 14 0 -1
BITMAP 
2080
1080
97FC
4910
1320
E0C0
2130
2E08
0084
7E98
42E4
4284
7E84
427C
ENDCHAR
STARTCHAR U_35B4
ENCODING 13748
SWIDTH 1000 0
DWIDTH 15 0
BBX 14 14 0 -1
BITMAP 
0120
0120
0FFC
F120
9120
9200
93FC
94A4
98A4
F144
9244
0088
0328
0010
ENDCHAR
STARTCHAR U_35B5
ENCODING 13749
SWIDTH 1000 0
DWIDTH 15 0
BBX 14 14 0 -1
BITMAP 
03F0
0210
F210
93F0
9210
93F0
9210
93F0
9210
F210
8FFC
0000
0210
0408
ENDCHAR
STARTCHAR U_35B6
ENCODING 13750
SWIDTH 1000 0
DWIDTH 15 0
BBX 14 14 0 -1
BITMAP 
0000
07F8
0120
77F8
5528
5738
5408
57F8
5080
7080
07F0
0080
0080
0FF8
ENDCHAR
STARTCHAR U_35B7
ENCODING 13751
SWIDTH 1000 0
DWIDTH 15 0
BBX 14 14 0 -1
BITMAP 
03F0
0210
F210
93F0
9210
9210
93F0
9000
9FFC
F080
92F0
0280
0780
187C
ENDCHAR
STARTCHAR U_35B8
ENCODING 13752
SWIDTH 1000 0
DWIDTH 15 0
BBX 14 14 0 -1
BITMAP 
0040
0078
F040
97FC
9488
97FC
9480
94F8
9400
95F8
F500
97FC
0900
11F8
ENDCHAR
STARTCHAR U_35B9
ENCODING 13753
SWIDTH 1000 0
DWIDTH 15 0
BBX 14 14 0 -1
BITMAP 
0040
0020
F110
9208
95F4
9890
9090
9110
9230
9400
F3F8
92A8
02A8
07FC
ENDCHAR
STARTCHAR U_35BA
ENCODING 13754
SWIDTH 1000 0
DWIDTH 15 0
BBX 14 14 0 -1
BITMAP 
0000
0040
03F8
7040
51F0
5080
57FC
5120
5210
75F8
5914
01F0
0110
01F0
ENDCHAR
STARTCHAR U_35BB
ENCODING 13755
SWIDTH 1000 0
DWIDTH 15 0
BBX 14 14 0 -1
BITMAP 
03F0
0010
F0A0
9040
97FC
90C8
9150
92C0
9440
F040
8FFC
00E0
0150
0648
ENDCHAR
STARTCHAR U_35BC
ENCODING 13756
SWIDTH 1000 0
DWIDTH 15 0
BBX 14 14 0 -1
BITMAP 
0110
07FC
F110
91F0
9110
91F0
9040
97FC
90C0
90D0
F148
9244
0444
0040
ENDCHAR
STARTCHAR U_35BD
ENCODING 13757
SWIDTH 1000 0
DWIDTH 15 0
BBX 14 14 0 -1
BITMAP 
07FC
0080
F100
97FC
9404
97FC
9404
97FC
9404
F7FC
9404
0110
0208
0404
ENDCHAR
STARTCHAR U_35BE
ENCODING 13758
SWIDTH 1000 0
DWIDTH 15 0
BBX 14 14 0 -1
BITMAP 
7CF8
4488
7CF8
2010
1020
FFFC
0200
2210
2210
2210
3FF0
2210
0C00
7000
ENDCHAR
STARTCHAR U_35BF
ENCODING 13759
SWIDTH 1000 0
DWIDTH 15 0
BBX 14 14 0 -1
BITMAP 
0FFC
04A4
F4A8
97B0
94B0
94A8
97E4
94E4
95E4
F6FC
94E4
08E0
00A0
00A0
ENDCHAR
STARTCHAR U_35C0
ENCODING 13760
SWIDTH 1000 0
DWIDTH 15 0
BBX 14 14 0 -1
BITMAP 
0040
0554
F554
9664
96EC
97FC
9554
9554
9664
96EC
F7FC
9444
07FC
0404
ENDCHAR
STARTCHAR U_35C1
ENCODING 13761
SWIDTH 1000 0
DWIDTH 15 0
BBX 14 14 0 -1
BITMAP 
07BC
04A4
F4A4
97BC
9000
93F8
9000
97FC
9080
F100
91F8
0008
0028
0010
ENDCHAR
STARTCHAR U_35C2
ENCODING 13762
SWIDTH 1000 0
DWIDTH 15 0
BBX 14 14 0 -1
BITMAP 
0040
0150
F148
9254
9464
9040
9080
93F8
9D08
91F8
F108
91F8
0108
01F8
ENDCHAR
STARTCHAR U_35C3
ENCODING 13763
SWIDTH 1000 0
DWIDTH 15 0
BBX 14 14 0 -1
BITMAP 
07F8
0408
F7F8
9440
97FC
9440
9520
9614
9408
93F8
F208
93F8
0208
03F8
ENDCHAR
STARTCHAR U_35C4
ENCODING 13764
SWIDTH 1000 0
DWIDTH 15 0
BBX 14 14 0 -1
BITMAP 
07F8
0528
F528
97F8
9080
9040
97FC
9040
9040
F0B8
9088
0108
0250
0420
ENDCHAR
STARTCHAR U_35C5
ENCODING 13765
SWIDTH 1000 0
DWIDTH 15 0
BBX 14 14 0 -1
BITMAP 
0200
023C
F224
9FE4
923C
9224
97A4
94A4
94BC
F4A4
97A4
0024
0044
018C
ENDCHAR
STARTCHAR U_35C6
ENCODING 13766
SWIDTH 1000 0
DWIDTH 15 0
BBX 14 14 0 -1
BITMAP 
0110
07FC
F110
91F0
9040
93F8
9248
9248
93F8
F040
97FC
0040
0040
0040
ENDCHAR
STARTCHAR U_35C7
ENCODING 13767
SWIDTH 1000 0
DWIDTH 15 0
BBX 14 14 0 -1
BITMAP 
07BC
0484
F484
97BC
9400
943C
97A4
9424
9424
F798
9410
0410
0428
04C4
ENDCHAR
STARTCHAR U_35C8
ENCODING 13768
SWIDTH 1000 0
DWIDTH 15 0
BBX 14 14 0 -1
BITMAP 
03F8
0090
F060
93FC
9244
93FC
9244
93FC
9244
9040
F7FC
9084
0124
0618
ENDCHAR
STARTCHAR U_35C9
ENCODING 13769
SWIDTH 1000 0
DWIDTH 15 0
BBX 14 14 0 -1
BITMAP 
1000
FEFC
1024
7C24
1044
FE98
13C0
0440
1C80
0300
1CE0
EFDC
0840
0FC0
ENDCHAR
STARTCHAR U_35CA
ENCODING 13770
SWIDTH 1000 0
DWIDTH 15 0
BBX 14 14 0 -1
BITMAP 
0000
FDF8
8508
8508
8508
FDF8
8508
0000
FDF8
8508
8508
8508
FDF8
8508
ENDCHAR
STARTCHAR U_35CB
ENCODING 13771
SWIDTH 1000 0
DWIDTH 15 0
BBX 14 14 0 -1
BITMAP 
0100
01E0
F220
9040
97FC
9500
95F8
9520
9620
F5FC
9420
0450
0888
1304
ENDCHAR
STARTCHAR U_35CC
ENCODING 13772
SWIDTH 1000 0
DWIDTH 15 0
BBX 14 14 0 -1
BITMAP 
0080
0040
F7FC
9404
9000
93F8
9080
9110
93F8
F040
93F8
0040
0040
07FC
ENDCHAR
STARTCHAR U_35CD
ENCODING 13773
SWIDTH 1000 0
DWIDTH 15 0
BBX 14 14 0 -1
BITMAP 
0038
03C0
F040
9040
97FC
90E0
9150
964C
9040
F3F8
9208
03F8
0208
03F8
ENDCHAR
STARTCHAR U_35CE
ENCODING 13774
SWIDTH 1000 0
DWIDTH 15 0
BBX 14 14 0 -1
BITMAP 
0200
0200
FFBC
92A4
92A4
94A4
99BC
9040
9040
9FFC
F0E0
9150
0E4C
0040
ENDCHAR
STARTCHAR U_35CF
ENCODING 13775
SWIDTH 1000 0
DWIDTH 15 0
BBX 14 14 0 -1
BITMAP 
07FC
0040
F0C0
9150
9648
9044
9040
97FC
9040
F240
9278
0240
0240
0FFC
ENDCHAR
STARTCHAR U_35D0
ENCODING 13776
SWIDTH 1000 0
DWIDTH 15 0
BBX 14 14 0 -1
BITMAP 
0080
F080
97F8
9140
9220
9510
9888
9040
F7F8
9528
0528
0528
0FFC
0000
ENDCHAR
STARTCHAR U_35D1
ENCODING 13777
SWIDTH 1000 0
DWIDTH 15 0
BBX 14 14 0 -1
BITMAP 
0080
017C
7B10
4D10
4938
4B90
4910
4938
7990
4B1C
4570
0110
0210
0410
ENDCHAR
STARTCHAR U_35D2
ENCODING 13778
SWIDTH 1000 0
DWIDTH 15 0
BBX 14 14 0 -1
BITMAP 
0080
0040
07FC
7800
4BF8
4A08
4A08
7BF8
4A84
0148
0350
0520
0990
010C
ENDCHAR
STARTCHAR U_35D3
ENCODING 13779
SWIDTH 1000 0
DWIDTH 15 0
BBX 14 14 0 -1
BITMAP 
0020
0440
F2F8
9088
9088
9EF8
9280
92F8
9288
F288
92F8
0288
0500
08FC
ENDCHAR
STARTCHAR U_35D4
ENCODING 13780
SWIDTH 1000 0
DWIDTH 15 0
BBX 14 14 0 -1
BITMAP 
0040
0078
7840
4BFC
4A84
4BF0
4A88
4A78
4A20
7BFC
4A50
0220
0450
098C
ENDCHAR
STARTCHAR U_35D5
ENCODING 13781
SWIDTH 1000 0
DWIDTH 15 0
BBX 14 14 0 -1
BITMAP 
0220
0FF8
E220
A7F0
A220
AFF8
A080
A7F0
A490
E7F0
A490
0FF8
0410
0430
ENDCHAR
STARTCHAR U_35D6
ENCODING 13782
SWIDTH 1000 0
DWIDTH 15 0
BBX 14 14 0 -1
BITMAP 
0000
0038
7BC0
4948
4950
4800
4880
4B38
4A08
7BB8
4A08
03F8
0208
0000
ENDCHAR
STARTCHAR U_35D7
ENCODING 13783
SWIDTH 1000 0
DWIDTH 15 0
BBX 14 14 0 -1
BITMAP 
0080
F900
8BF8
8A48
8BF8
FA48
23F8
F8A0
2920
2BFC
4820
4820
6820
9020
ENDCHAR
STARTCHAR U_35D8
ENCODING 13784
SWIDTH 1000 0
DWIDTH 15 0
BBX 14 14 0 -1
BITMAP 
00A0
0FF8
F290
93F0
9290
93F0
9290
9220
9FFC
F420
9220
0120
0020
00C0
ENDCHAR
STARTCHAR U_35D9
ENCODING 13785
SWIDTH 1000 0
DWIDTH 15 0
BBX 14 14 0 -1
BITMAP 
0200
03F8
F488
92A8
93E8
9118
9200
93F8
F408
9AA8
03E8
0088
0128
0210
ENDCHAR
STARTCHAR U_35DA
ENCODING 13786
SWIDTH 1000 0
DWIDTH 15 0
BBX 14 14 0 -1
BITMAP 
0000
03F8
78A0
4BF8
4AA8
4AA8
4BF8
4840
7BFC
48C0
0160
0250
0C4C
0040
ENDCHAR
STARTCHAR U_35DB
ENCODING 13787
SWIDTH 1000 0
DWIDTH 15 0
BBX 14 14 0 -1
BITMAP 
0210
039C
F630
9948
9000
9038
93C0
9040
F7FC
9040
00A0
0110
0208
0C04
ENDCHAR
STARTCHAR U_35DC
ENCODING 13788
SWIDTH 1000 0
DWIDTH 15 0
BBX 14 14 0 -1
BITMAP 
0080
0040
7FFC
4890
49E0
4850
4BF8
4800
4BF8
7A48
4BF8
0248
03F8
0208
ENDCHAR
STARTCHAR U_35DD
ENCODING 13789
SWIDTH 1000 0
DWIDTH 15 0
BBX 14 14 0 -1
BITMAP 
0110
0090
00A0
F7FC
9040
93F8
9040
F040
97FC
0000
02A8
02A4
0404
0000
ENDCHAR
STARTCHAR U_35DE
ENCODING 13790
SWIDTH 1000 0
DWIDTH 15 0
BBX 14 14 0 -1
BITMAP 
0010
1F10
0410
E4FC
AE94
AA90
BAFC
AAC4
EAA8
AE90
0A90
0128
0244
0484
ENDCHAR
STARTCHAR U_35DF
ENCODING 13791
SWIDTH 1000 0
DWIDTH 15 0
BBX 14 14 0 -1
BITMAP 
0000
4080
2040
07FC
6040
13F8
6040
27FC
2100
7D18
4560
4580
7D04
45FC
ENDCHAR
STARTCHAR U_35E0
ENCODING 13792
SWIDTH 1000 0
DWIDTH 15 0
BBX 14 14 0 -1
BITMAP 
1040
1090
7DF8
2800
29F8
1108
2908
45F8
0000
3D00
2538
25C0
3D08
25F8
ENDCHAR
STARTCHAR U_35E1
ENCODING 13793
SWIDTH 1000 0
DWIDTH 15 0
BBX 14 14 0 -1
BITMAP 
0840
FFFC
0840
13F8
3088
D0BC
1084
1104
1218
0080
7E90
42A0
42C4
7EFC
ENDCHAR
STARTCHAR U_35E2
ENCODING 13794
SWIDTH 1000 0
DWIDTH 15 0
BBX 14 14 0 -1
BITMAP 
0780
0210
FF90
A27C
AF94
AA94
AF94
AA94
AF94
A214
EFA4
A224
03D4
0E88
ENDCHAR
STARTCHAR U_35E3
ENCODING 13795
SWIDTH 1000 0
DWIDTH 15 0
BBX 14 14 0 -1
BITMAP 
0550
0550
EFF8
A554
A9CC
A000
AFF8
A888
A080
E7F0
A490
0490
04B0
0080
ENDCHAR
STARTCHAR U_35E4
ENCODING 13796
SWIDTH 1000 0
DWIDTH 15 0
BBX 14 14 0 -1
BITMAP 
0048
7FFC
4840
4E48
4848
7F50
5C20
6A54
598C
8004
3FF0
2010
2010
3FF0
ENDCHAR
STARTCHAR U_35E5
ENCODING 13797
SWIDTH 1000 0
DWIDTH 15 0
BBX 14 14 0 -1
BITMAP 
0100
07DC
7014
57D4
5454
57D8
5018
57D4
5094
7114
57D4
0118
0110
0310
ENDCHAR
STARTCHAR U_35E6
ENCODING 13798
SWIDTH 1000 0
DWIDTH 15 0
BBX 14 14 0 -1
BITMAP 
0020
1F4C
EA88
AAA8
AEA8
AAA8
AAA8
AEA8
AAE8
EAA8
AB2C
1E48
0248
0288
ENDCHAR
STARTCHAR U_35E7
ENCODING 13799
SWIDTH 1000 0
DWIDTH 15 0
BBX 14 14 0 -1
BITMAP 
0040
07FC
F404
9110
9208
95F4
9080
9110
93F8
F040
91F0
0040
0040
07FC
ENDCHAR
STARTCHAR U_35E8
ENCODING 13800
SWIDTH 1000 0
DWIDTH 15 0
BBX 14 14 0 -1
BITMAP 
FE78
A048
BE48
C88C
BE00
8878
9448
A230
FECC
0000
3FF0
2010
2010
3FF0
ENDCHAR
STARTCHAR U_35E9
ENCODING 13801
SWIDTH 1000 0
DWIDTH 15 0
BBX 14 14 0 -1
BITMAP 
07BC
0084
F4A4
9294
94A4
9084
9040
9080
97F8
F408
97F8
0408
07F8
0408
ENDCHAR
STARTCHAR U_35EA
ENCODING 13802
SWIDTH 1000 0
DWIDTH 15 0
BBX 14 14 0 -1
BITMAP 
0124
01A8
7530
5520
5524
5E9C
5100
5230
57C0
7108
57F8
0040
0248
04C4
ENDCHAR
STARTCHAR U_35EB
ENCODING 13803
SWIDTH 1000 0
DWIDTH 15 0
BBX 14 14 0 -1
BITMAP 
0440
0778
E948
B548
AA30
A410
ABE8
A004
AFF8
E080
A4A0
0490
0888
0180
ENDCHAR
STARTCHAR U_35EC
ENCODING 13804
SWIDTH 1000 0
DWIDTH 15 0
BBX 14 14 0 -1
BITMAP 
0920
7FFC
4004
1FF0
1010
1FF0
0100
07F0
1A60
0380
1DF8
0690
00E0
3F00
ENDCHAR
STARTCHAR U_35ED
ENCODING 13805
SWIDTH 1000 0
DWIDTH 15 0
BBX 14 14 0 -1
BITMAP 
0078
07C0
F448
9250
97F8
90E0
9150
964C
9000
F080
9148
0544
0514
08F0
ENDCHAR
STARTCHAR U_35EE
ENCODING 13806
SWIDTH 1000 0
DWIDTH 15 0
BBX 14 14 0 -1
BITMAP 
2020
23FC
7A40
8BF8
4A48
33FC
2248
7BF8
CA40
4A40
4AA0
7EA0
0510
0A0C
ENDCHAR
STARTCHAR U_35EF
ENCODING 13807
SWIDTH 1000 0
DWIDTH 15 0
BBX 14 14 0 -1
BITMAP 
0230
3FC0
0280
FFFC
1000
6FF0
8810
0FF0
0810
0FF0
0048
3E70
2244
3E3C
ENDCHAR
STARTCHAR U_35F0
ENCODING 13808
SWIDTH 1000 0
DWIDTH 15 0
BBX 14 14 0 -1
BITMAP 
0128
0228
F428
9954
9200
9610
9A10
9250
925C
9250
F250
9250
02B0
030C
ENDCHAR
STARTCHAR U_35F1
ENCODING 13809
SWIDTH 1000 0
DWIDTH 15 0
BBX 14 14 0 -1
BITMAP 
0120
02FC
F620
9AF8
9220
92F8
9220
92FC
9020
93FC
F070
90A8
0124
0224
ENDCHAR
STARTCHAR U_35F2
ENCODING 13810
SWIDTH 1000 0
DWIDTH 15 0
BBX 14 14 0 -1
BITMAP 
0040
03F8
F048
97FC
9048
93F8
9040
97FC
9248
93F8
F248
93F8
0000
07FC
ENDCHAR
STARTCHAR U_35F3
ENCODING 13811
SWIDTH 1000 0
DWIDTH 15 0
BBX 14 14 0 -1
BITMAP 
0210
0210
F5AC
9948
90C0
9120
9210
9408
9BF4
9000
F3F0
9210
0210
03F0
ENDCHAR
STARTCHAR U_35F4
ENCODING 13812
SWIDTH 1000 0
DWIDTH 15 0
BBX 14 14 0 -1
BITMAP 
0F3C
0924
EF3C
A924
AF3C
A804
A9E4
A924
A9E4
E924
A9E4
0924
0A64
080C
ENDCHAR
STARTCHAR U_35F5
ENCODING 13813
SWIDTH 1000 0
DWIDTH 15 0
BBX 14 14 0 -1
BITMAP 
0420
1520
EE7C
A454
AB50
B190
A090
A410
B510
AE10
E428
A448
0A84
1104
ENDCHAR
STARTCHAR U_35F6
ENCODING 13814
SWIDTH 1000 0
DWIDTH 15 0
BBX 14 14 0 -1
BITMAP 
0F48
0154
E928
A630
A410
B80C
A738
A128
A728
A844
EFB8
A128
0510
026C
ENDCHAR
STARTCHAR U_35F7
ENCODING 13815
SWIDTH 1000 0
DWIDTH 15 0
BBX 14 14 0 -1
BITMAP 
0040
07FC
0514
F3F8
9110
93F8
9110
97FC
9150
9150
F150
9150
00A0
0318
ENDCHAR
STARTCHAR U_35F8
ENCODING 13816
SWIDTH 1000 0
DWIDTH 15 0
BBX 14 14 0 -1
BITMAP 
0400
0800
F0BC
A500
ABE0
BCBC
A888
ABE8
A888
E888
AAA8
0BE8
0808
0818
ENDCHAR
STARTCHAR U_35F9
ENCODING 13817
SWIDTH 1000 0
DWIDTH 15 0
BBX 14 14 0 -1
BITMAP 
0240
0440
EFFC
B440
A7F8
A440
A7F8
A440
A7FC
A008
E484
A454
1308
10F0
ENDCHAR
STARTCHAR U_35FA
ENCODING 13818
SWIDTH 1000 0
DWIDTH 15 0
BBX 14 14 0 -1
BITMAP 
03F0
0080
F7F8
9140
9220
9410
992C
9738
9120
F738
9120
0738
0120
0120
ENDCHAR
STARTCHAR U_35FB
ENCODING 13819
SWIDTH 1000 0
DWIDTH 15 0
BBX 14 14 0 -1
BITMAP 
08F8
0488
E4B8
A0A8
BCA8
A5FC
A904
A974
A554
A554
E974
B90C
0700
00FC
ENDCHAR
STARTCHAR U_35FC
ENCODING 13820
SWIDTH 1000 0
DWIDTH 15 0
BBX 14 14 0 -1
BITMAP 
0528
0330
F120
9FFC
9210
9120
97F8
9080
93F0
9080
FFFC
91C0
02A0
0498
ENDCHAR
STARTCHAR U_35FD
ENCODING 13821
SWIDTH 1000 0
DWIDTH 15 0
BBX 14 14 0 -1
BITMAP 
1100
27DC
4454
F7D8
2454
47D4
F51C
1490
2550
C610
3FF0
2010
2010
3FF0
ENDCHAR
STARTCHAR U_35FE
ENCODING 13822
SWIDTH 1000 0
DWIDTH 15 0
BBX 14 14 0 -1
BITMAP 
0A28
1F28
EA48
AE48
A4C8
BF48
B54C
B558
BF48
E448
BF48
0448
0448
044C
ENDCHAR
STARTCHAR U_35FF
ENCODING 13823
SWIDTH 1000 0
DWIDTH 15 0
BBX 14 14 0 -1
BITMAP 
0F3C
0924
EF3C
A924
AF3C
A804
ABFC
A814
A9D4
A954
E9D4
A814
0834
080C
ENDCHAR
STARTCHAR U_3600
ENCODING 13824
SWIDTH 1000 0
DWIDTH 15 0
BBX 14 14 0 -1
BITMAP 
0100
0200
07BC
F404
97BC
9404
97BC
9248
9150
97FC
F150
0248
0248
0444
ENDCHAR
STARTCHAR U_3601
ENCODING 13825
SWIDTH 1000 0
DWIDTH 15 0
BBX 14 14 0 -1
BITMAP 
0FF8
0948
0948
EFF8
A080
A7F0
A080
AFF8
A220
E7F0
8080
0FF8
0080
0080
ENDCHAR
STARTCHAR U_3602
ENCODING 13826
SWIDTH 1000 0
DWIDTH 15 0
BBX 14 14 0 -1
BITMAP 
0210
0120
0FFC
E210
A420
AA50
A420
A948
AEF4
E000
8A88
0A44
1214
01F0
ENDCHAR
STARTCHAR U_3603
ENCODING 13827
SWIDTH 1000 0
DWIDTH 15 0
BBX 14 14 0 -1
BITMAP 
0120
07F8
0120
F080
97F8
9100
93F0
F510
09F0
0000
0548
0524
0914
00E0
ENDCHAR
STARTCHAR U_3604
ENCODING 13828
SWIDTH 1000 0
DWIDTH 15 0
BBX 14 14 0 -1
BITMAP 
0400
05FC
E554
BF54
A5FC
A440
AE20
ADFC
F520
1438
2448
0448
0488
0530
ENDCHAR
STARTCHAR U_3605
ENCODING 13829
SWIDTH 1000 0
DWIDTH 15 0
BBX 14 14 0 -1
BITMAP 
0500
091C
1280
E440
ABBC
B908
AFC8
A908
A948
ED88
8B08
09C8
0F08
0818
ENDCHAR
STARTCHAR U_3606
ENCODING 13830
SWIDTH 1000 0
DWIDTH 15 0
BBX 14 14 0 -1
BITMAP 
0080
0FF8
0080
E7F0
A410
A7F0
A000
AFF8
A220
E7F0
0080
07F0
0080
0FF8
ENDCHAR
STARTCHAR U_3607
ENCODING 13831
SWIDTH 1000 0
DWIDTH 15 0
BBX 14 14 0 -1
BITMAP 
0554
03B8
0110
F2A8
9444
97FC
9444
9040
93F8
F040
8150
0148
0244
0444
ENDCHAR
STARTCHAR U_3608
ENCODING 13832
SWIDTH 1000 0
DWIDTH 15 0
BBX 14 14 0 -1
BITMAP 
047C
0788
F430
9410
93FC
9414
9790
9A10
97DC
F250
8550
04F0
0890
110C
ENDCHAR
STARTCHAR U_3609
ENCODING 13833
SWIDTH 1000 0
DWIDTH 15 0
BBX 14 14 0 -1
BITMAP 
0420
07BC
FA50
9108
97BC
94A4
97A4
94A4
97A4
F424
853C
05A8
06A0
0420
ENDCHAR
STARTCHAR U_360A
ENCODING 13834
SWIDTH 1000 0
DWIDTH 15 0
BBX 14 14 0 -1
BITMAP 
0FF8
0080
EFFC
B2A8
A1C0
A220
A080
AFF8
A000
A7F0
E000
87F0
0410
07F0
ENDCHAR
STARTCHAR U_360B
ENCODING 13835
SWIDTH 1000 0
DWIDTH 15 0
BBX 14 14 0 -1
BITMAP 
07FC
0524
F794
9488
9798
9524
97F4
9210
93F0
F210
93F0
0210
03F0
0C0C
ENDCHAR
STARTCHAR U_360C
ENCODING 13836
SWIDTH 1000 0
DWIDTH 15 0
BBX 14 14 0 -1
BITMAP 
0384
0204
EFC4
AA54
AF94
AA14
A9D4
A814
AFD4
E914
0B54
0D84
0AC4
152C
ENDCHAR
STARTCHAR U_360D
ENCODING 13837
SWIDTH 1000 0
DWIDTH 15 0
BBX 14 14 0 -1
BITMAP 
0110
0598
F554
9950
91BC
9310
9C90
97D4
9494
F7D4
8498
07C8
049C
07E4
ENDCHAR
STARTCHAR U_360E
ENCODING 13838
SWIDTH 1000 0
DWIDTH 15 0
BBX 14 14 0 -1
BITMAP 
0408
03FC
EA04
ABA4
A8BC
AFE4
AAAC
ABAC
AA94
EB94
0AAC
0FC4
089C
0804
ENDCHAR
STARTCHAR U_360F
ENCODING 13839
SWIDTH 1000 0
DWIDTH 15 0
BBX 14 14 0 -1
BITMAP 
4220
2FF8
0100
E7F0
2510
2490
2490
27F0
F800
07FC
0090
1EE0
1288
1EF8
ENDCHAR
STARTCHAR U_3610
ENCODING 13840
SWIDTH 1000 0
DWIDTH 15 0
BBX 14 14 0 -1
BITMAP 
0020
0F90
0A7C
EF28
AA28
AF44
AA00
AFA8
A0A8
E2A8
8A90
28A8
22A8
0144
ENDCHAR
STARTCHAR U_3611
ENCODING 13841
SWIDTH 1000 0
DWIDTH 15 0
BBX 14 14 0 -1
BITMAP 
0410
1F7C
0414
EE7C
B514
A07C
AE10
A054
BF38
E410
8E38
1554
2430
0410
ENDCHAR
STARTCHAR U_3612
ENCODING 13842
SWIDTH 1000 0
DWIDTH 15 0
BBX 14 14 0 -1
BITMAP 
0618
38E0
0820
7FFC
08A8
1CF8
1A20
28F8
4820
01FC
7E90
42E0
4284
7E7C
ENDCHAR
STARTCHAR U_3613
ENCODING 13843
SWIDTH 1000 0
DWIDTH 15 0
BBX 14 14 0 -1
BITMAP 
0F7C
0944
0F7C
E944
AF7C
A884
ABF4
A884
ABF4
EA94
8BF4
09C4
0AA4
088C
ENDCHAR
STARTCHAR U_3614
ENCODING 13844
SWIDTH 1000 0
DWIDTH 15 0
BBX 14 14 0 -1
BITMAP 
0080
0FF8
0948
E3E0
A140
A7F0
A220
A7F0
AAA8
E360
82A0
03E0
0140
0630
ENDCHAR
STARTCHAR U_3615
ENCODING 13845
SWIDTH 1000 0
DWIDTH 15 0
BBX 14 14 0 -1
BITMAP 
0210
07BC
F210
9780
9510
97BC
94A0
9780
953C
9780
F000
07F8
0528
0FFC
ENDCHAR
STARTCHAR U_3616
ENCODING 13846
SWIDTH 1000 0
DWIDTH 15 0
BBX 14 14 0 -1
BITMAP 
0400
027C
1F90
E920
A67C
B944
AFFC
A944
AA7C
AD44
EAFC
0D28
1244
2484
ENDCHAR
STARTCHAR U_3617
ENCODING 13847
SWIDTH 1000 0
DWIDTH 15 0
BBX 14 14 0 -1
BITMAP 
07BC
04A4
07BC
F4A4
97BC
94A4
9718
9174
A310
CE38
0210
0238
0210
027C
ENDCHAR
STARTCHAR U_3618
ENCODING 13848
SWIDTH 1000 0
DWIDTH 15 0
BBX 14 14 0 -1
BITMAP 
2210
4FA4
F078
2790
4824
FFFC
0000
57A8
ACD4
A794
0000
3FF0
2010
3FF0
ENDCHAR
STARTCHAR U_3619
ENCODING 13849
SWIDTH 1000 0
DWIDTH 15 0
BBX 14 14 0 -1
BITMAP 
0738
0528
EFFC
A800
ABA0
A93C
AFE8
AAA8
ABA8
EA90
0B90
0AE8
17A8
10C4
ENDCHAR
STARTCHAR U_361A
ENCODING 13850
SWIDTH 1000 0
DWIDTH 15 0
BBX 14 14 0 -1
BITMAP 
0F3C
0924
0F3C
E924
AF3C
A924
AFA4
AAFC
AB94
EAD4
0BA4
0AA4
0FD4
088C
ENDCHAR
STARTCHAR U_361B
ENCODING 13851
SWIDTH 1000 0
DWIDTH 15 0
BBX 14 14 0 -1
BITMAP 
01C0
0630
FBEC
9000
97F0
9418
97F0
949C
9FE4
F4BC
97A0
04BC
07A0
08BC
ENDCHAR
STARTCHAR U_361C
ENCODING 13852
SWIDTH 1000 0
DWIDTH 15 0
BBX 14 14 0 -1
BITMAP 
4220
57A8
F87C
57A8
783C
57A8
783C
57A8
7CBC
44A0
3FF0
2010
2010
3FF0
ENDCHAR
STARTCHAR U_361D
ENCODING 13853
SWIDTH 1000 0
DWIDTH 15 0
BBX 14 14 0 -1
BITMAP 
0000
7FF8
4008
4FC8
4048
4048
4488
4288
4108
4288
4448
5848
4008
7FF8
ENDCHAR
STARTCHAR U_361E
ENCODING 13854
SWIDTH 1000 0
DWIDTH 15 0
BBX 14 14 0 -1
BITMAP 
0000
7FF8
4208
4208
5FE8
4228
4228
4428
4428
49E8
5048
4008
7FF8
4008
ENDCHAR
STARTCHAR U_361F
ENCODING 13855
SWIDTH 1000 0
DWIDTH 15 0
BBX 14 14 0 -1
BITMAP 
7FFC
4004
4444
4444
4444
4444
5FF4
4444
4444
4444
4444
4844
5044
7FFC
ENDCHAR
STARTCHAR U_3620
ENCODING 13856
SWIDTH 1000 0
DWIDTH 15 0
BBX 14 14 0 -1
BITMAP 
FFFC
8004
8204
8924
8844
88A4
A914
AA0C
CC2C
9824
A7E4
8004
FFFC
8004
ENDCHAR
STARTCHAR U_3621
ENCODING 13857
SWIDTH 1000 0
DWIDTH 15 0
BBX 14 14 0 -1
BITMAP 
FFFC
8004
9FE4
9224
9224
9FE4
9224
9224
9FE4
8204
8204
8204
FFFC
8004
ENDCHAR
STARTCHAR U_3622
ENCODING 13858
SWIDTH 1000 0
DWIDTH 15 0
BBX 14 14 0 -1
BITMAP 
FFFC
8204
A224
9244
8A84
BFF4
8504
8504
8504
8914
B0F4
8004
FFFC
8004
ENDCHAR
STARTCHAR U_3623
ENCODING 13859
SWIDTH 1000 0
DWIDTH 15 0
BBX 14 14 0 -1
BITMAP 
FFFC
8004
8FC4
8844
8FC4
8004
8FC4
8844
8FC4
8844
8FC4
8844
88C4
FFFC
ENDCHAR
STARTCHAR U_3624
ENCODING 13860
SWIDTH 1000 0
DWIDTH 15 0
BBX 14 14 0 -1
BITMAP 
FFFC
8004
AA54
9A54
8E74
C814
AFF4
8814
9E74
9A54
AA54
EA54
B014
FFFC
ENDCHAR
STARTCHAR U_3625
ENCODING 13861
SWIDTH 1000 0
DWIDTH 15 0
BBX 14 14 0 -1
BITMAP 
FFFC
9014
BEE4
EA24
9454
9824
E84C
BEFC
8824
FF74
AAAC
BF6C
8004
FFFC
ENDCHAR
STARTCHAR U_3626
ENCODING 13862
SWIDTH 1000 0
DWIDTH 15 0
BBX 14 14 0 -1
BITMAP 
1040
1040
1040
13FC
FC44
1044
1044
1084
1084
1084
1D04
E104
4228
0410
ENDCHAR
STARTCHAR U_3627
ENCODING 13863
SWIDTH 1000 0
DWIDTH 15 0
BBX 14 14 0 -1
BITMAP 
23F8
2008
2010
20A0
F840
27FC
2044
2048
2040
3840
E040
0040
0140
0080
ENDCHAR
STARTCHAR U_3628
ENCODING 13864
SWIDTH 1000 0
DWIDTH 15 0
BBX 14 14 0 -1
BITMAP 
0040
2040
23FC
2244
FA44
2244
2264
2294
230C
2A04
3204
C204
0214
0208
ENDCHAR
STARTCHAR U_3629
ENCODING 13865
SWIDTH 1000 0
DWIDTH 15 0
BBX 14 14 0 -1
BITMAP 
2220
2220
2220
FA20
222C
23B0
2220
2220
2220
2220
3A20
E2A4
4324
021C
ENDCHAR
STARTCHAR U_362A
ENCODING 13866
SWIDTH 1000 0
DWIDTH 15 0
BBX 14 14 0 -1
BITMAP 
2038
23C0
2040
2040
F878
23C0
2040
2040
207C
27C0
3840
E044
0044
003C
ENDCHAR
STARTCHAR U_362B
ENCODING 13867
SWIDTH 1000 0
DWIDTH 15 0
BBX 14 14 0 -1
BITMAP 
0090
2090
2090
23FC
F890
2090
2090
23FC
2090
2890
3110
C110
0210
0410
ENDCHAR
STARTCHAR U_362C
ENCODING 13868
SWIDTH 1000 0
DWIDTH 15 0
BBX 14 14 0 -1
BITMAP 
2100
2100
21FC
FA04
2484
2084
2104
2124
2274
2394
3804
E004
0028
0010
ENDCHAR
STARTCHAR U_362D
ENCODING 13869
SWIDTH 1000 0
DWIDTH 15 0
BBX 14 14 0 -1
BITMAP 
2200
2200
227C
2204
F484
2484
2784
2104
2204
2204
3484
C784
0084
0018
ENDCHAR
STARTCHAR U_362E
ENCODING 13870
SWIDTH 1000 0
DWIDTH 15 0
BBX 14 14 0 -1
BITMAP 
2000
23F8
2208
2208
FA08
2208
23F8
2240
2240
2220
3A20
E410
0408
0804
ENDCHAR
STARTCHAR U_362F
ENCODING 13871
SWIDTH 1000 0
DWIDTH 15 0
BBX 14 14 0 -1
BITMAP 
2100
2100
21FC
FA00
2440
2040
23FC
2044
2084
2084
3904
C104
0228
0410
ENDCHAR
STARTCHAR U_3630
ENCODING 13872
SWIDTH 1000 0
DWIDTH 15 0
BBX 14 14 0 -1
BITMAP 
1010
1090
1050
1050
FD10
1090
1090
101C
13F0
1010
1C10
E010
4010
0010
ENDCHAR
STARTCHAR U_3631
ENCODING 13873
SWIDTH 1000 0
DWIDTH 15 0
BBX 14 14 0 -1
BITMAP 
2040
2040
23F8
2248
FA48
23F8
2248
2248
2248
27FC
3A08
E208
0208
0218
ENDCHAR
STARTCHAR U_3632
ENCODING 13874
SWIDTH 1000 0
DWIDTH 15 0
BBX 14 14 0 -1
BITMAP 
2000
27F0
2410
2410
F7F0
2480
2480
27F0
2490
2490
3510
C914
0A14
140C
ENDCHAR
STARTCHAR U_3633
ENCODING 13875
SWIDTH 1000 0
DWIDTH 15 0
BBX 14 14 0 -1
BITMAP 
0000
0480
0480
7C98
04E0
0480
0488
1C88
6578
0100
3FF0
0100
0100
FFFC
ENDCHAR
STARTCHAR U_3634
ENCODING 13876
SWIDTH 1000 0
DWIDTH 15 0
BBX 14 14 0 -1
BITMAP 
0200
0220
7A20
4A20
4A20
4A50
7A88
0200
0200
7FF8
0200
0200
FFFC
0000
ENDCHAR
STARTCHAR U_3635
ENCODING 13877
SWIDTH 1000 0
DWIDTH 15 0
BBX 14 14 0 -1
BITMAP 
2080
2080
27FC
2100
F940
2240
27FC
2A44
2244
2244
3A44
E254
4248
0040
ENDCHAR
STARTCHAR U_3636
ENCODING 13878
SWIDTH 1000 0
DWIDTH 15 0
BBX 14 14 0 -1
BITMAP 
2020
2020
3DF8
4420
8920
2920
13FC
2020
4220
8200
3FF0
0200
0200
FFFC
ENDCHAR
STARTCHAR U_3637
ENCODING 13879
SWIDTH 1000 0
DWIDTH 15 0
BBX 14 14 0 -1
BITMAP 
2110
2110
27FC
2110
F910
2000
2110
2110
20A0
20A0
3840
E0A0
0110
060C
ENDCHAR
STARTCHAR U_3638
ENCODING 13880
SWIDTH 1000 0
DWIDTH 15 0
BBX 14 14 0 -1
BITMAP 
0000
7FF8
1080
1C88
24B0
54C0
0884
1084
627C
0200
7FF8
0200
0200
FFFC
ENDCHAR
STARTCHAR U_3639
ENCODING 13881
SWIDTH 1000 0
DWIDTH 15 0
BBX 14 14 0 -1
BITMAP 
1080
1088
5C90
50E0
5084
5C84
E07C
0100
0100
3FF8
0100
0100
0100
FFFC
ENDCHAR
STARTCHAR U_363A
ENCODING 13882
SWIDTH 1000 0
DWIDTH 15 0
BBX 14 14 0 -1
BITMAP 
20A8
20A4
2120
213C
FBE0
2524
2124
2128
2128
2110
3910
E134
014C
0104
ENDCHAR
STARTCHAR U_363B
ENCODING 13883
SWIDTH 1000 0
DWIDTH 15 0
BBX 14 14 0 -1
BITMAP 
2000
27FC
2444
2444
FC44
27FC
2444
2444
2444
24A4
3C94
E50C
4604
07FC
ENDCHAR
STARTCHAR U_363C
ENCODING 13884
SWIDTH 1000 0
DWIDTH 15 0
BBX 14 14 0 -1
BITMAP 
2080
2088
23E8
2090
F7FC
2040
2080
21F8
2240
2480
30F8
C008
0008
0030
ENDCHAR
STARTCHAR U_363D
ENCODING 13885
SWIDTH 1000 0
DWIDTH 15 0
BBX 14 14 0 -1
BITMAP 
0820
0828
7F24
0820
0820
FFFC
0820
0824
7F24
0828
0810
0F34
F84C
4184
ENDCHAR
STARTCHAR U_363E
ENCODING 13886
SWIDTH 1000 0
DWIDTH 15 0
BBX 14 14 0 -1
BITMAP 
1040
1020
13FC
1204
F800
11F8
1020
1020
13FC
1020
1C20
E020
40A0
0040
ENDCHAR
STARTCHAR U_363F
ENCODING 13887
SWIDTH 1000 0
DWIDTH 15 0
BBX 14 14 0 -1
BITMAP 
1000
13F8
1208
1208
FFF8
1208
1208
13F8
1040
1C40
F3F8
4040
0040
07FC
ENDCHAR
STARTCHAR U_3640
ENCODING 13888
SWIDTH 1000 0
DWIDTH 15 0
BBX 14 14 0 -1
BITMAP 
0080
2040
27FC
2528
F920
2220
2538
2100
27F0
2110
7910
C110
0214
041C
ENDCHAR
STARTCHAR U_3641
ENCODING 13889
SWIDTH 1000 0
DWIDTH 15 0
BBX 14 14 0 -1
BITMAP 
20C0
2080
217C
FA00
21F8
2108
2148
2128
27FC
2A48
7228
C3FC
0008
0038
ENDCHAR
STARTCHAR U_3642
ENCODING 13890
SWIDTH 1000 0
DWIDTH 15 0
BBX 14 14 0 -1
BITMAP
2210
2120
2040
23F0
FA10
2210
2210
23F0
2120
3920
C124
4224
0424
081C
ENDCHAR
STARTCHAR U_3643
ENCODING 13891
SWIDTH 1000 0
DWIDTH 15 0
BBX 14 14 0 -1
BITMAP 
0018
21E0
2100
2100
21F8
F910
2110
2110
2BFC
3000
60D0
C088
010C
0204
ENDCHAR
STARTCHAR U_3644
ENCODING 13892
SWIDTH 1000 0
DWIDTH 15 0
BBX 14 14 0 -1
BITMAP 
0220
23B8
2220
FA20
2220
22A0
233C
2040
2040
21F0
7840
C040
0040
07FC
ENDCHAR
STARTCHAR U_3645
ENCODING 13893
SWIDTH 1000 0
DWIDTH 15 0
BBX 14 14 0 -1
BITMAP 
23F8
2208
2208
2208
FBF8
2040
2040
27FC
2040
2950
3148
C248
0444
0040
ENDCHAR
STARTCHAR U_3646
ENCODING 13894
SWIDTH 1000 0
DWIDTH 15 0
BBX 14 14 0 -1
BITMAP 
0080
2040
27FC
2408
F880
2080
27F8
2080
2120
3120
C240
0248
04F8
0808
ENDCHAR
STARTCHAR U_3647
ENCODING 13895
SWIDTH 1000 0
DWIDTH 15 0
BBX 14 14 0 -1
BITMAP 
2000
23FC
2040
F880
2180
2644
22A8
2130
22F0
20B0
3928
C624
0144
0080
ENDCHAR
STARTCHAR U_3648
ENCODING 13896
SWIDTH 1000 0
DWIDTH 15 0
BBX 14 14 0 -1
BITMAP 
0080
40F0
4080
4FFC
E884
4BF0
4880
4878
4800
6920
8920
1120
1224
241C
ENDCHAR
STARTCHAR U_3649
ENCODING 13897
SWIDTH 1000 0
DWIDTH 15 0
BBX 14 14 0 -1
BITMAP 
0140
2140
2550
27F0
2550
F550
27F0
2550
2550
2FF8
3000
E220
0618
0808
ENDCHAR
STARTCHAR U_364A
ENCODING 13898
SWIDTH 1000 0
DWIDTH 15 0
BBX 14 14 0 -1
BITMAP 
01F8
2100
2100
F9F8
2100
21F8
2100
27FC
2240
2248
3A30
E220
0290
030C
ENDCHAR
STARTCHAR U_364B
ENCODING 13899
SWIDTH 1000 0
DWIDTH 15 0
BBX 14 14 0 -1
BITMAP 
0110
2110
23F8
2110
F910
21F0
2110
21F0
2110
27FC
2110
7910
C208
0404
ENDCHAR
STARTCHAR U_364C
ENCODING 13900
SWIDTH 1000 0
DWIDTH 15 0
BBX 14 14 0 -1
BITMAP 
0040
43F8
4048
F7FC
4048
43F8
4040
4248
42E8
42D8
7358
C248
0448
0848
ENDCHAR
STARTCHAR U_364D
ENCODING 13901
SWIDTH 1000 0
DWIDTH 15 0
BBX 14 14 0 -1
BITMAP 
07FC
4044
42A8
4110
F2A8
4CC4
4000
47FC
4044
4464
72A8
C110
02A8
0C44
ENDCHAR
STARTCHAR U_364E
ENCODING 13902
SWIDTH 1000 0
DWIDTH 15 0
BBX 14 14 0 -1
BITMAP 
0028
4024
4FFC
F820
4BA0
4964
4FE4
4AA8
4CA8
4AB0
7B30
CCB4
0854
108C
ENDCHAR
STARTCHAR U_364F
ENCODING 13903
SWIDTH 1000 0
DWIDTH 15 0
BBX 14 14 0 -1
BITMAP 
0200
23FC
2200
25F8
2108
F9F8
2108
21F8
2200
23F8
3B08
C490
0060
039C
ENDCHAR
STARTCHAR U_3650
ENCODING 13904
SWIDTH 1000 0
DWIDTH 15 0
BBX 14 14 0 -1
BITMAP 
0040
2248
2248
23F8
F800
27FC
2040
2080
23FC
22A4
3AA4
C2A4
02A4
020C
ENDCHAR
STARTCHAR U_3651
ENCODING 13905
SWIDTH 1000 0
DWIDTH 15 0
BBX 14 14 0 -1
BITMAP 
1FE0
0200
1FE0
1220
1FE0
0200
7FF8
4288
43C8
5C58
0200
3FE0
0200
FFFC
ENDCHAR
STARTCHAR U_3652
ENCODING 13906
SWIDTH 1000 0
DWIDTH 15 0
BBX 14 14 0 -1
BITMAP 
00F8
FE48
9230
93FC
FE14
9210
9210
FE70
0110
0100
3FF0
0100
0108
FFFC
ENDCHAR
STARTCHAR U_3653
ENCODING 13907
SWIDTH 1000 0
DWIDTH 15 0
BBX 14 14 0 -1
BITMAP 
0200
3FF0
0200
7FF8
1020
7EF8
1020
1E20
F1FC
0100
3FF8
0100
0108
FFFC
ENDCHAR
STARTCHAR U_3654
ENCODING 13908
SWIDTH 1000 0
DWIDTH 15 0
BBX 14 14 0 -1
BITMAP 
0100
47E0
4120
EFF8
4000
47E0
4420
47E0
4080
67E0
8480
1FF8
0080
0080
ENDCHAR
STARTCHAR U_3655
ENCODING 13909
SWIDTH 1000 0
DWIDTH 15 0
BBX 14 14 0 -1
BITMAP 
07F8
2488
27F8
7488
27F8
2000
23F0
2210
23F0
3210
43F0
0210
0410
0830
ENDCHAR
STARTCHAR U_3656
ENCODING 13910
SWIDTH 1000 0
DWIDTH 15 0
BBX 14 14 0 -1
BITMAP 
0030
23C0
2040
23F8
FA48
23F8
2040
27FC
2444
2454
3DF4
C404
0414
0408
ENDCHAR
STARTCHAR U_3657
ENCODING 13911
SWIDTH 1000 0
DWIDTH 15 0
BBX 14 14 0 -1
BITMAP 
03F8
2248
2248
FBF8
2248
2248
23F8
2000
2FFC
3240
E228
0230
0298
0704
ENDCHAR
STARTCHAR U_3658
ENCODING 13912
SWIDTH 1000 0
DWIDTH 15 0
BBX 14 14 0 -1
BITMAP 
07FC
20A0
23F8
22A8
FAA8
23F8
2000
2040
27FC
2090
3910
C1A0
0060
039C
ENDCHAR
STARTCHAR U_3659
ENCODING 13913
SWIDTH 1000 0
DWIDTH 15 0
BBX 14 14 0 -1
BITMAP 
4210
2FFC
82A0
52D0
24A8
C4D4
48A4
537C
0100
0100
3FF0
0100
0100
FFFC
ENDCHAR
STARTCHAR U_365A
ENCODING 13914
SWIDTH 1000 0
DWIDTH 15 0
BBX 14 14 0 -1
BITMAP 
0208
2110
27FC
2040
FBF8
2040
27FC
2000
2240
3BF8
C440
0BFC
0040
0040
ENDCHAR
STARTCHAR U_365B
ENCODING 13915
SWIDTH 1000 0
DWIDTH 15 0
BBX 14 14 0 -1
BITMAP 
0050
2048
27FC
2040
FBF8
2248
23F8
2248
23F8
2248
3810
CFFC
0110
0030
ENDCHAR
STARTCHAR U_365C
ENCODING 13916
SWIDTH 1000 0
DWIDTH 15 0
BBX 14 14 0 -1
BITMAP 
0200
7FF8
0840
0FC0
0000
7FF8
4008
4FC8
4848
4FD8
0100
1FF0
0100
7FFC
ENDCHAR
STARTCHAR U_365D
ENCODING 13917
SWIDTH 1000 0
DWIDTH 15 0
BBX 14 14 0 -1
BITMAP 
0080
23F0
2090
2120
FFF8
22A8
2558
2800
23F0
2210
3BD0
C2F0
0210
0230
ENDCHAR
STARTCHAR U_365E
ENCODING 13918
SWIDTH 1000 0
DWIDTH 15 0
BBX 14 14 0 -1
BITMAP 
0040
2080
23F8
2208
FBF8
2208
23F8
2208
23F8
2040
37FC
C150
0248
0444
ENDCHAR
STARTCHAR U_365F
ENCODING 13919
SWIDTH 1000 0
DWIDTH 15 0
BBX 14 14 0 -1
BITMAP 
0000
0800
44F8
5E88
F288
5EE8
5288
5E88
50F8
7488
9688
1908
1218
0000
ENDCHAR
STARTCHAR U_3660
ENCODING 13920
SWIDTH 1000 0
DWIDTH 15 0
BBX 14 14 0 -1
BITMAP 
FDF0
A110
BD10
D20C
FDF0
9110
A8A0
C440
FDB8
0200
0200
3FE0
0200
FFF8
ENDCHAR
STARTCHAR U_3661
ENCODING 13921
SWIDTH 1000 0
DWIDTH 15 0
BBX 14 14 0 -1
BITMAP 
4248
4248
4448
4AB4
F494
4D24
5640
4420
44A0
54BC
64A0
44A0
8560
051C
ENDCHAR
STARTCHAR U_3662
ENCODING 13922
SWIDTH 1000 0
DWIDTH 15 0
BBX 14 14 0 -1
BITMAP 
0000
0220
2FF8
2220
F3E0
2080
2FF8
2888
2AA8
3AA8
4DD8
8888
0898
0000
ENDCHAR
STARTCHAR U_3663
ENCODING 13923
SWIDTH 1000 0
DWIDTH 15 0
BBX 14 14 0 -1
BITMAP 
4F7C
4140
4178
F140
4778
4440
4840
4FFC
4150
4154
7158
C148
0558
0264
ENDCHAR
STARTCHAR U_3664
ENCODING 13924
SWIDTH 1000 0
DWIDTH 15 0
BBX 14 14 0 -1
BITMAP 
0040
4078
4040
47FC
F454
4460
45F8
4430
45E4
44A8
77FC
8420
0420
0860
ENDCHAR
STARTCHAR U_3665
ENCODING 13925
SWIDTH 1000 0
DWIDTH 15 0
BBX 14 14 0 -1
BITMAP
2040
27FC
2110
2248
FC84
2110
23F8
2088
2150
3B20
C510
4148
0184
0100
ENDCHAR
STARTCHAR U_3666
ENCODING 13926
SWIDTH 1000 0
DWIDTH 15 0
BBX 14 14 0 -1
BITMAP 
0810
1450
2230
DD50
0830
7E1C
08F0
2A10
D910
0110
1FE0
0100
0100
FFFC
ENDCHAR
STARTCHAR U_3667
ENCODING 13927
SWIDTH 1000 0
DWIDTH 15 0
BBX 14 14 0 -1
BITMAP 
07FC
40A0
40A0
47BC
F4A4
44A4
47BC
40A0
40A0
43F8
5248
E3F8
8248
03F8
ENDCHAR
STARTCHAR U_3668
ENCODING 13928
SWIDTH 1000 0
DWIDTH 15 0
BBX 14 14 0 -1
BITMAP 
0040
4148
4254
4578
F2D4
47FC
4048
47FC
4240
4248
7250
8520
04D4
088C
ENDCHAR
STARTCHAR U_3669
ENCODING 13929
SWIDTH 1000 0
DWIDTH 15 0
BBX 14 14 0 -1
BITMAP 
0040
47FC
42A8
F110
4208
4FFC
4110
41F0
4110
51F0
6150
8148
0244
04C4
ENDCHAR
STARTCHAR U_366A
ENCODING 13930
SWIDTH 1000 0
DWIDTH 15 0
BBX 14 14 0 -1
BITMAP 
0040
47FC
4040
43F8
F000
47FC
4804
43F8
4000
53F8
6208
43F8
8110
07FC
ENDCHAR
STARTCHAR U_366B
ENCODING 13931
SWIDTH 1000 0
DWIDTH 15 0
BBX 14 14 0 -1
BITMAP 
0120
43FC
4640
FBF8
4240
43F8
4240
43FC
5040
67FC
4150
8148
0244
0C44
ENDCHAR
STARTCHAR U_366C
ENCODING 13932
SWIDTH 1000 0
DWIDTH 15 0
BBX 14 14 0 -1
BITMAP 
1028
FE24
32FC
5420
BA20
3850
5488
9304
0100
0100
3FF0
0100
0100
FFFC
ENDCHAR
STARTCHAR U_366D
ENCODING 13933
SWIDTH 1000 0
DWIDTH 15 0
BBX 14 14 0 -1
BITMAP 
1FFC
5000
5920
553C
F254
5F90
5210
5A90
5F90
5210
7228
5228
9444
2884
ENDCHAR
STARTCHAR U_366E
ENCODING 13934
SWIDTH 1000 0
DWIDTH 15 0
BBX 14 14 0 -1
BITMAP 
0220
23FC
2330
FCC8
2060
2090
2108
23F4
2400
21F8
3108
C108
41F8
0108
ENDCHAR
STARTCHAR U_366F
ENCODING 13935
SWIDTH 1000 0
DWIDTH 15 0
BBX 14 14 0 -1
BITMAP 
1040
7C50
11F8
FE50
4954
9494
795C
1208
7840
BFF0
0008
FFFC
1040
7FF0
ENDCHAR
STARTCHAR U_3670
ENCODING 13936
SWIDTH 1000 0
DWIDTH 15 0
BBX 14 14 0 -1
BITMAP 
21FC
7844
9054
7D88
54A0
7CF8
5720
7DFC
4420
8C20
0100
7FF8
0100
FFFC
ENDCHAR
STARTCHAR U_3671
ENCODING 13937
SWIDTH 1000 0
DWIDTH 15 0
BBX 14 14 0 -1
BITMAP 
7838
4820
79FC
0128
FD30
21FC
7950
0950
4954
329C
0100
3FF0
0108
FFFC
ENDCHAR
STARTCHAR U_3672
ENCODING 13938
SWIDTH 1000 0
DWIDTH 15 0
BBX 14 14 0 -1
BITMAP 
0080
4040
4FFC
F120
4250
44FC
4D50
4250
44F8
4F50
7178
8250
0450
187C
ENDCHAR
STARTCHAR U_3673
ENCODING 13939
SWIDTH 1000 0
DWIDTH 15 0
BBX 14 14 0 -1
BITMAP 
0028
4024
4FFC
4820
EBA8
4828
4BA8
4A90
4B94
502C
6080
8A48
0A14
11E4
ENDCHAR
STARTCHAR U_3674
ENCODING 13940
SWIDTH 1000 0
DWIDTH 15 0
BBX 14 14 0 -1
BITMAP 
01E0
2220
27FC
2490
FD58
27FC
2400
25F8
2400
25F8
2C00
35F8
C508
09F8
ENDCHAR
STARTCHAR U_3675
ENCODING 13941
SWIDTH 1000 0
DWIDTH 15 0
BBX 14 14 0 -1
BITMAP 
0040
27FC
2110
F110
27FC
2404
25F4
2514
25F4
240C
2840
33F8
C040
07FC
ENDCHAR
STARTCHAR U_3676
ENCODING 13942
SWIDTH 1000 0
DWIDTH 15 0
BBX 14 14 0 -1
BITMAP 
0200
FFFC
1020
1FE0
0A80
FFFC
8004
1FE0
1020
1FE0
0200
3FF0
0200
FFFC
ENDCHAR
STARTCHAR U_3677
ENCODING 13943
SWIDTH 1000 0
DWIDTH 15 0
BBX 14 14 0 -1
BITMAP 
07FC
4404
47FC
F404
47FC
4210
44A4
4778
5108
6294
C7FC
4000
02A8
0454
ENDCHAR
STARTCHAR U_3678
ENCODING 13944
SWIDTH 1000 0
DWIDTH 15 0
BBX 14 14 0 -1
BITMAP 
4290
4598
4C90
F7FC
4508
4490
47FC
4440
45F8
5440
67FC
C450
4488
0508
ENDCHAR
STARTCHAR U_3679
ENCODING 13945
SWIDTH 1000 0
DWIDTH 15 0
BBX 14 14 0 -1
BITMAP 
00A0
47BC
40A0
43F8
F2A8
43F8
4000
47FC
4488
50F0
6310
C0A0
40C0
0700
ENDCHAR
STARTCHAR U_367A
ENCODING 13946
SWIDTH 1000 0
DWIDTH 15 0
BBX 14 14 0 -1
BITMAP 
0FFC
4840
49F0
4950
FFFC
4910
49F0
4910
49F0
4910
59F0
68A0
C910
0FFC
ENDCHAR
STARTCHAR U_367B
ENCODING 13947
SWIDTH 1000 0
DWIDTH 15 0
BBX 14 14 0 -1
BITMAP 
0040
47FC
4528
F5F8
4528
45F8
4420
45F8
4420
57FC
6528
C6F4
4420
09FC
ENDCHAR
STARTCHAR U_367C
ENCODING 13948
SWIDTH 1000 0
DWIDTH 15 0
BBX 14 14 0 -1
BITMAP 
07F0
4490
4490
47F0
E490
4490
47F0
4000
5F7C
5554
7F7C
5554
9F7C
1144
ENDCHAR
STARTCHAR U_367D
ENCODING 13949
SWIDTH 1000 0
DWIDTH 15 0
BBX 14 14 0 -1
BITMAP 
0040
47FC
4040
F75C
4248
475C
4554
475C
4554
575C
60C0
C120
4210
0C0C
ENDCHAR
STARTCHAR U_367E
ENCODING 13950
SWIDTH 1000 0
DWIDTH 15 0
BBX 14 14 0 -1
BITMAP 
0118
42A8
4358
F2A8
4358
4208
47FC
4404
41F0
5020
67FC
C040
4040
00C0
ENDCHAR
STARTCHAR U_367F
ENCODING 13951
SWIDTH 1000 0
DWIDTH 15 0
BBX 14 14 0 -1
BITMAP 
0110
47FC
4040
43F8
F040
47FC
4128
47FC
43A0
5564
6128
C7D0
42A8
0444
ENDCHAR
STARTCHAR U_3680
ENCODING 13952
SWIDTH 1000 0
DWIDTH 15 0
BBX 14 14 0 -1
BITMAP 
0390
4218
5FD4
F33C
5FD0
5010
5FD0
5010
5794
5494
7798
D498
5328
2FC4
ENDCHAR
STARTCHAR U_3681
ENCODING 13953
SWIDTH 1000 0
DWIDTH 15 0
BBX 14 14 0 -1
BITMAP 
1020
7CF8
1020
FDFC
4888
FDDC
4888
68C8
9D1C
0000
FDFC
5050
5494
991C
ENDCHAR
STARTCHAR U_3682
ENCODING 13954
SWIDTH 1000 0
DWIDTH 15 0
BBX 14 14 0 -1
BITMAP 
0080
5FFC
4490
5FFC
F554
4770
4220
47F0
4220
5FFC
6640
8A28
1290
030C
ENDCHAR
STARTCHAR U_3683
ENCODING 13955
SWIDTH 1000 0
DWIDTH 15 0
BBX 14 14 0 -1
BITMAP 
0200
7FF8
0200
3FF0
0000
FFFC
8CC4
2310
2310
2CD0
3FF0
1020
0848
FFFC
ENDCHAR
STARTCHAR U_3684
ENCODING 13956
SWIDTH 1000 0
DWIDTH 15 0
BBX 14 14 0 -1
BITMAP 
0200
7FF8
0200
3FF0
4008
FFFC
A228
3FE0
2220
7FF8
1210
1BC0
2600
C1FC
ENDCHAR
STARTCHAR U_3685
ENCODING 13957
SWIDTH 1000 0
DWIDTH 15 0
BBX 14 14 0 -1
BITMAP 
0820
1FE0
2840
C480
0300
0480
1860
EFDC
1100
1FE0
2100
4FE0
0100
7FF8
ENDCHAR
STARTCHAR U_3686
ENCODING 13958
SWIDTH 1000 0
DWIDTH 15 0
BBX 14 14 0 -1
BITMAP 
0200
FFFC
0000
3FF0
2010
3FF0
2010
3FF0
1000
3FF0
5020
88C0
0700
78FC
ENDCHAR
STARTCHAR U_3687
ENCODING 13959
SWIDTH 1000 0
DWIDTH 15 0
BBX 14 14 0 -1
BITMAP 
2C50
2390
2C50
3FF0
1040
1040
287C
E800
1FE0
2840
4480
0300
0CE0
F01C
ENDCHAR
STARTCHAR U_3688
ENCODING 13960
SWIDTH 1000 0
DWIDTH 15 0
BBX 14 14 0 -1
BITMAP 
0020
2020
3E20
2220
4220
A5FC
1420
1820
0820
1020
2020
4020
8020
0020
ENDCHAR
STARTCHAR U_3689
ENCODING 13961
SWIDTH 1000 0
DWIDTH 15 0
BBX 14 14 0 -1
BITMAP 
3FF0
1010
103C
1204
27E4
CC4C
1280
0140
06F8
3908
02F0
0C60
0390
7C00
ENDCHAR
STARTCHAR U_368A
ENCODING 13962
SWIDTH 1000 0
DWIDTH 15 0
BBX 14 14 0 -1
BITMAP 
1040
3C20
45FC
A840
1048
2088
4190
9064
3C48
4490
AB20
1050
2188
C604
ENDCHAR
STARTCHAR U_368B
ENCODING 13963
SWIDTH 1000 0
DWIDTH 15 0
BBX 14 14 0 -1
BITMAP 
21FC
7D04
C524
2974
1124
21FC
E104
2174
7D54
C574
2904
1104
221C
C404
ENDCHAR
STARTCHAR U_368C
ENCODING 13964
SWIDTH 1000 0
DWIDTH 15 0
BBX 14 14 0 -1
BITMAP 
23F8
3A48
4A48
ABF8
1248
2248
D3F8
1040
3FFC
C8E0
2950
1150
2248
CC44
ENDCHAR
STARTCHAR U_368D
ENCODING 13965
SWIDTH 1000 0
DWIDTH 15 0
BBX 14 14 0 -1
BITMAP 
2040
7BF8
CA48
2FFC
1000
23F8
4208
A3F8
7A08
8BF8
5208
23F8
4110
8208
ENDCHAR
STARTCHAR U_368E
ENCODING 13966
SWIDTH 1000 0
DWIDTH 15 0
BBX 14 14 0 -1
BITMAP 
0200
0400
FFFC
0880
1040
2020
4010
800C
2010
2010
2010
2010
3FF0
0010
ENDCHAR
STARTCHAR U_368F
ENCODING 13967
SWIDTH 1000 0
DWIDTH 15 0
BBX 14 14 0 -1
BITMAP 
0200
0200
FFFC
0480
0840
3030
C84C
0840
FFFC
0840
0840
1040
1040
2040
ENDCHAR
STARTCHAR U_3690
ENCODING 13968
SWIDTH 1000 0
DWIDTH 15 0
BBX 14 14 0 -1
BITMAP 
0100
0100
0200
7FFC
0440
1830
611C
0100
0100
7FFC
0280
0440
1830
600C
ENDCHAR
STARTCHAR U_3691
ENCODING 13969
SWIDTH 1000 0
DWIDTH 15 0
BBX 14 14 0 -1
BITMAP 
1FE0
0020
0020
1FE0
0020
0020
1FE0
0200
0200
FFFC
0480
0840
3030
C00C
ENDCHAR
STARTCHAR U_3692
ENCODING 13970
SWIDTH 1000 0
DWIDTH 15 0
BBX 14 14 0 -1
BITMAP 
0100
0100
0100
7FFC
0100
2120
1110
2928
4504
0280
0280
0440
1820
601C
ENDCHAR
STARTCHAR U_3693
ENCODING 13971
SWIDTH 1000 0
DWIDTH 15 0
BBX 14 14 0 -1
BITMAP 
0100
0100
0200
7FFC
0440
1830
611C
0100
0100
7FFC
0380
0540
1930
610C
ENDCHAR
STARTCHAR U_3694
ENCODING 13972
SWIDTH 1000 0
DWIDTH 15 0
BBX 14 14 0 -1
BITMAP 
0100
0100
0200
7FFC
0440
1830
682C
0440
3FF0
0100
0100
7FFC
0100
0100
ENDCHAR
STARTCHAR U_3695
ENCODING 13973
SWIDTH 1000 0
DWIDTH 15 0
BBX 14 14 0 -1
BITMAP 
0300
0200
7FF8
0CC0
3060
C49C
3FF0
0490
3FF0
2480
3FF8
0888
08B0
1080
ENDCHAR
STARTCHAR U_3696
ENCODING 13974
SWIDTH 1000 0
DWIDTH 15 0
BBX 14 14 0 -1
BITMAP 
0100
0200
3FF0
2010
3FF0
2010
3FF0
2110
0200
FFFC
0440
0820
3018
C00C
ENDCHAR
STARTCHAR U_3697
ENCODING 13975
SWIDTH 1000 0
DWIDTH 15 0
BBX 14 14 0 -1
BITMAP 
0100
0100
0200
FFFC
0480
1840
2030
CFCC
0840
0FC0
0840
0FC0
0840
FFFC
ENDCHAR
STARTCHAR U_3698
ENCODING 13976
SWIDTH 1000 0
DWIDTH 15 0
BBX 14 14 0 -1
BITMAP 
1020
1020
1020
7CF8
1020
1020
FDFC
1020
1020
2850
2648
2284
4104
8204
ENDCHAR
STARTCHAR U_3699
ENCODING 13977
SWIDTH 1000 0
DWIDTH 15 0
BBX 14 14 0 -1
BITMAP 
2000
2000
FCFC
2484
2484
4484
54FC
8884
0200
0200
FFFC
0480
1860
E01C
ENDCHAR
STARTCHAR U_369A
ENCODING 13978
SWIDTH 1000 0
DWIDTH 15 0
BBX 14 14 0 -1
BITMAP 
0200
0200
7FF8
0840
3230
C7CC
0840
3580
0600
1800
EFE0
0820
0FE0
0820
ENDCHAR
STARTCHAR U_369B
ENCODING 13979
SWIDTH 1000 0
DWIDTH 15 0
BBX 14 14 0 -1
BITMAP 
0200
0200
7FF8
0840
39B0
CE0C
0820
07E0
0000
0FE0
0820
0FE0
0820
0FE0
ENDCHAR
STARTCHAR U_369C
ENCODING 13980
SWIDTH 1000 0
DWIDTH 15 0
BBX 14 14 0 -1
BITMAP 
0200
0200
FFFC
0840
3130
C14C
0120
FFFC
0110
7D10
44A0
7C40
06B4
F90C
ENDCHAR
STARTCHAR U_369D
ENCODING 13981
SWIDTH 1000 0
DWIDTH 15 0
BBX 14 14 0 -1
BITMAP 
0200
0200
7FF8
0840
3020
C81C
0880
13E0
3080
57F0
1080
13E0
1080
17F0
ENDCHAR
STARTCHAR U_369E
ENCODING 13982
SWIDTH 1000 0
DWIDTH 15 0
BBX 14 14 0 -1
BITMAP 
0200
0200
7FF8
0440
1820
E85C
0840
3FF0
0840
1CE0
1AD0
2958
4A48
0840
ENDCHAR
STARTCHAR U_369F
ENCODING 13983
SWIDTH 1000 0
DWIDTH 15 0
BBX 14 14 0 -1
BITMAP 
0800
1FC0
2080
5FF0
1010
1FF0
1080
1EF0
1084
187C
0200
FFFC
10C0
603C
ENDCHAR
STARTCHAR U_36A0
ENCODING 13984
SWIDTH 1000 0
DWIDTH 15 0
BBX 14 14 0 -1
BITMAP 
0100
0200
FFFC
0840
3030
C84C
0480
3FF0
0100
1FE0
0000
7FF8
4888
8444
ENDCHAR
STARTCHAR U_36A1
ENCODING 13985
SWIDTH 1000 0
DWIDTH 15 0
BBX 14 14 0 -1
BITMAP 
1020
1020
FEFC
2850
4488
FEFC
0408
74E8
54A8
54A8
74E8
0408
1428
0810
ENDCHAR
STARTCHAR U_36A2
ENCODING 13986
SWIDTH 1000 0
DWIDTH 15 0
BBX 14 14 0 -1
BITMAP 
1080
1080
1080
3080
2080
6FFC
A110
2110
2220
21A0
2060
20D0
2308
2C04
ENDCHAR
STARTCHAR U_36A3
ENCODING 13987
SWIDTH 1000 0
DWIDTH 15 0
BBX 14 14 0 -1
BITMAP 
0200
0200
FFFC
0440
0E80
01C0
7E30
0200
FFFC
0440
0C80
0300
0CE0
701C
ENDCHAR
STARTCHAR U_36A4
ENCODING 13988
SWIDTH 1000 0
DWIDTH 15 0
BBX 14 14 0 -1
BITMAP 
2040
2050
2048
2040
FC7C
4BC0
4840
4840
9040
7020
1820
2414
400C
8004
ENDCHAR
STARTCHAR U_36A5
ENCODING 13989
SWIDTH 1000 0
DWIDTH 15 0
BBX 14 14 0 -1
BITMAP 
2000
21FC
2020
2020
FC20
4820
49FC
4820
9020
7020
1820
2420
40E0
8040
ENDCHAR
STARTCHAR U_36A6
ENCODING 13990
SWIDTH 1000 0
DWIDTH 15 0
BBX 14 14 0 -1
BITMAP 
2000
2000
23FC
2090
FC90
4890
4890
4890
9090
7090
1910
2510
4110
8210
ENDCHAR
STARTCHAR U_36A7
ENCODING 13991
SWIDTH 1000 0
DWIDTH 15 0
BBX 14 14 0 -1
BITMAP 
2020
2010
2010
21FC
FD00
4900
4900
4900
9100
7100
1900
2600
4200
8400
ENDCHAR
STARTCHAR U_36A8
ENCODING 13992
SWIDTH 1000 0
DWIDTH 15 0
BBX 14 14 0 -1
BITMAP 
2010
23F8
2090
2090
FC90
4890
4BF0
4890
9090
7090
1894
2494
408C
8084
ENDCHAR
STARTCHAR U_36A9
ENCODING 13993
SWIDTH 1000 0
DWIDTH 15 0
BBX 14 14 0 -1
BITMAP 
2000
20F8
2088
2088
FC88
49FC
4888
4888
9088
71FC
1888
2488
4088
8098
ENDCHAR
STARTCHAR U_36AA
ENCODING 13994
SWIDTH 1000 0
DWIDTH 15 0
BBX 14 14 0 -1
BITMAP 
2000
201C
23E0
2040
FC40
4878
4BC0
4840
907C
77C0
1840
2444
4044
803C
ENDCHAR
STARTCHAR U_36AB
ENCODING 13995
SWIDTH 1000 0
DWIDTH 15 0
BBX 14 14 0 -1
BITMAP 
2000
23F0
2110
2110
FD20
497C
4904
4984
9148
7148
1A50
2620
4250
848C
ENDCHAR
STARTCHAR U_36AC
ENCODING 13996
SWIDTH 1000 0
DWIDTH 15 0
BBX 14 14 0 -1
BITMAP 
2000
2080
2080
21FC
FD04
4A84
4864
4804
9034
71C4
1884
2404
4068
8010
ENDCHAR
STARTCHAR U_36AD
ENCODING 13997
SWIDTH 1000 0
DWIDTH 15 0
BBX 14 14 0 -1
BITMAP 
2040
2050
2048
2040
FC40
49FC
48A0
48A0
90A0
70A0
1920
2524
4124
821C
ENDCHAR
STARTCHAR U_36AE
ENCODING 13998
SWIDTH 1000 0
DWIDTH 15 0
BBX 14 14 0 -1
BITMAP 
2000
23FC
2204
2404
FCF0
4890
4890
4890
9090
7090
1894
2494
4114
820C
ENDCHAR
STARTCHAR U_36AF
ENCODING 13999
SWIDTH 1000 0
DWIDTH 15 0
BBX 14 14 0 -1
BITMAP 
2000
23F8
2208
2208
FE18
4B28
4AA8
4A48
92A8
7298
1B08
240C
440C
8804
ENDCHAR
STARTCHAR U_36B0
ENCODING 14000
SWIDTH 1000 0
DWIDTH 15 0
BBX 14 14 0 -1
BITMAP 
2000
23FC
2020
2040
FC40
4CD0
4948
4A44
9040
7040
1840
2440
4000
83FC
ENDCHAR
STARTCHAR U_36B1
ENCODING 14001
SWIDTH 1000 0
DWIDTH 15 0
BBX 14 14 0 -1
BITMAP 
2018
21E0
2100
2100
FD00
49FC
4910
4910
9110
7110
1910
2510
4110
83FC
ENDCHAR
STARTCHAR U_36B2
ENCODING 14002
SWIDTH 1000 0
DWIDTH 15 0
BBX 14 14 0 -1
BITMAP 
2020
2020
2020
2020
FC3C
4820
4820
4820
91FC
7104
1904
2504
41FC
8104
ENDCHAR
STARTCHAR U_36B3
ENCODING 14003
SWIDTH 1000 0
DWIDTH 15 0
BBX 14 14 0 -1
BITMAP 
2100
2100
2100
27DC
F954
4954
4954
4954
9254
7254
1A54
245C
4454
88C0
ENDCHAR
STARTCHAR U_36B4
ENCODING 14004
SWIDTH 1000 0
DWIDTH 15 0
BBX 14 14 0 -1
BITMAP 
2040
2040
23FC
2480
FCA0
4920
49FC
4B24
9524
7124
1124
292C
4420
8020
ENDCHAR
STARTCHAR U_36B5
ENCODING 14005
SWIDTH 1000 0
DWIDTH 15 0
BBX 14 14 0 -1
BITMAP 
2080
2080
20F8
2108
FD90
4A60
4860
4890
930C
7040
1830
2480
4060
8010
ENDCHAR
STARTCHAR U_36B6
ENCODING 14006
SWIDTH 1000 0
DWIDTH 15 0
BBX 14 14 0 -1
BITMAP 
2000
21F8
2108
2108
FD08
49F8
4900
4900
91FC
7104
1904
2504
41FC
8104
ENDCHAR
STARTCHAR U_36B7
ENCODING 14007
SWIDTH 1000 0
DWIDTH 15 0
BBX 14 14 0 -1
BITMAP 
2020
2020
2020
2450
FC90
4908
4A24
4820
90A8
70A4
1924
2420
4020
80E0
ENDCHAR
STARTCHAR U_36B8
ENCODING 14008
SWIDTH 1000 0
DWIDTH 15 0
BBX 14 14 0 -1
BITMAP 
2000
23F8
2008
21E8
F808
49E8
4928
4928
91E8
7128
1808
2408
4028
8010
ENDCHAR
STARTCHAR U_36B9
ENCODING 14009
SWIDTH 1000 0
DWIDTH 15 0
BBX 14 14 0 -1
BITMAP 
2080
233C
2224
26A4
FEA4
4AA4
4AA4
4AA4
93B4
72AC
18A0
2520
4120
8220
ENDCHAR
STARTCHAR U_36BA
ENCODING 14010
SWIDTH 1000 0
DWIDTH 15 0
BBX 14 14 0 -1
BITMAP 
2000
23F8
2110
2510
FD3C
4904
4A04
4DF4
9028
7040
1BF8
2440
4040
80C0
ENDCHAR
STARTCHAR U_36BB
ENCODING 14011
SWIDTH 1000 0
DWIDTH 15 0
BBX 14 14 0 -1
BITMAP 
1FF0
1110
1110
1FF0
1110
1110
1FF0
0200
7FFC
0420
0C40
0380
0C60
701C
ENDCHAR
STARTCHAR U_36BC
ENCODING 14012
SWIDTH 1000 0
DWIDTH 15 0
BBX 14 14 0 -1
BITMAP 
2000
2000
21FC
2124
FD24
4924
4924
49FC
9124
7124
1924
2524
41FC
8104
ENDCHAR
STARTCHAR U_36BD
ENCODING 14013
SWIDTH 1000 0
DWIDTH 15 0
BBX 14 14 0 -1
BITMAP 
F9FC
2020
2040
21FC
2004
38C8
E230
0200
FFFC
0440
0C80
0300
0CE0
701C
ENDCHAR
STARTCHAR U_36BE
ENCODING 14014
SWIDTH 1000 0
DWIDTH 15 0
BBX 14 14 0 -1
BITMAP 
2000
2000
21F8
2108
FD08
4908
4908
49F8
90A0
70A0
18A0
2524
4124
823C
ENDCHAR
STARTCHAR U_36BF
ENCODING 14015
SWIDTH 1000 0
DWIDTH 15 0
BBX 14 14 0 -1
BITMAP 
2080
2080
20F8
2508
FD08
4BE8
4D28
4928
91E8
7108
1938
2504
4104
80FC
ENDCHAR
STARTCHAR U_36C0
ENCODING 14016
SWIDTH 1000 0
DWIDTH 15 0
BBX 14 14 0 -1
BITMAP 
2040
2078
2088
2110
FBFC
4804
4804
4804
91FC
7004
1804
2404
41FC
8004
ENDCHAR
STARTCHAR U_36C1
ENCODING 14017
SWIDTH 1000 0
DWIDTH 15 0
BBX 14 14 0 -1
BITMAP 
2000
2000
23F8
2040
FA48
4948
4950
4840
93FC
7040
1840
2440
4040
8040
ENDCHAR
STARTCHAR U_36C2
ENCODING 14018
SWIDTH 1000 0
DWIDTH 15 0
BBX 14 14 0 -1
BITMAP 
2000
201C
21E0
2100
FD7C
4954
4954
4954
9154
717C
1940
2644
4244
843C
ENDCHAR
STARTCHAR U_36C3
ENCODING 14019
SWIDTH 1000 0
DWIDTH 15 0
BBX 14 14 0 -1
BITMAP 
1000
7DF8
1048
7C48
1088
7D08
1030
0200
FFFC
0440
0C80
0300
0CE0
701C
ENDCHAR
STARTCHAR U_36C4
ENCODING 14020
SWIDTH 1000 0
DWIDTH 15 0
BBX 14 14 0 -1
BITMAP 
2040
2020
2000
23FC
FC40
4840
48A4
48A8
9190
7290
1888
2488
40C4
8080
ENDCHAR
STARTCHAR U_36C5
ENCODING 14021
SWIDTH 1000 0
DWIDTH 15 0
BBX 14 14 0 -1
BITMAP 
2000
27FC
2110
2110
FDF0
4910
4910
49F0
9110
711C
1BF0
2410
4010
8010
ENDCHAR
STARTCHAR U_36C6
ENCODING 14022
SWIDTH 1000 0
DWIDTH 15 0
BBX 14 14 0 -1
BITMAP 
23F0
2110
2110
253C
FE04
4A44
4C58
4840
93F8
7040
18E0
2550
424C
8040
ENDCHAR
STARTCHAR U_36C7
ENCODING 14023
SWIDTH 1000 0
DWIDTH 15 0
BBX 14 14 0 -1
BITMAP 
2040
2020
21FC
2500
FD20
4920
4920
49F8
9120
7120
1920
2620
42FC
8400
ENDCHAR
STARTCHAR U_36C8
ENCODING 14024
SWIDTH 1000 0
DWIDTH 15 0
BBX 14 14 0 -1
BITMAP 
2040
2040
21F4
2048
FC50
4BFC
4840
4980
96F8
7080
18F8
2408
4028
8010
ENDCHAR
STARTCHAR U_36C9
ENCODING 14025
SWIDTH 1000 0
DWIDTH 15 0
BBX 14 14 0 -1
BITMAP 
2000
23FC
2090
2090
F890
4BFC
4A94
4A94
9294
731C
1A04
2604
43FC
8204
ENDCHAR
STARTCHAR U_36CA
ENCODING 14026
SWIDTH 1000 0
DWIDTH 15 0
BBX 14 14 0 -1
BITMAP 
21F0
2110
2110
2110
FD10
4A4C
4840
4840
93FC
70E0
1950
2550
424C
8040
ENDCHAR
STARTCHAR U_36CB
ENCODING 14027
SWIDTH 1000 0
DWIDTH 15 0
BBX 14 14 0 -1
BITMAP 
2040
2040
20A0
2110
FA0C
4840
4840
4840
9148
7264
1A54
2454
4040
80C0
ENDCHAR
STARTCHAR U_36CC
ENCODING 14028
SWIDTH 1000 0
DWIDTH 15 0
BBX 14 14 0 -1
BITMAP 
2020
2040
2088
21FC
FC88
4820
4920
49F8
9220
7020
1BFC
2420
4020
8020
ENDCHAR
STARTCHAR U_36CD
ENCODING 14029
SWIDTH 1000 0
DWIDTH 15 0
BBX 14 14 0 -1
BITMAP 
2040
2040
2040
27FC
FC40
4950
4950
4AE8
9444
7040
18A0
2490
4108
8604
ENDCHAR
STARTCHAR U_36CE
ENCODING 14030
SWIDTH 1000 0
DWIDTH 15 0
BBX 14 14 0 -1
BITMAP 
2000
21F8
2108
2108
F908
49F8
4800
4800
93FC
7204
1A04
2604
43FC
8204
ENDCHAR
STARTCHAR U_36CF
ENCODING 14031
SWIDTH 1000 0
DWIDTH 15 0
BBX 14 14 0 -1
BITMAP 
2050
2048
2040
27FC
FC40
4A48
4950
4860
9150
7650
1848
2444
4140
8080
ENDCHAR
STARTCHAR U_36D0
ENCODING 14032
SWIDTH 1000 0
DWIDTH 15 0
BBX 14 14 0 -1
BITMAP 
23FC
2040
2040
FBF8
4A48
4A48
4BF8
9248
5248
33F8
2940
4480
8160
061C
ENDCHAR
STARTCHAR U_36D1
ENCODING 14033
SWIDTH 1000 0
DWIDTH 15 0
BBX 14 14 0 -1
BITMAP 
0800
0EF8
2888
7E50
A220
1C50
F08C
0200
FFFC
0440
0C80
0300
0CE0
701C
ENDCHAR
STARTCHAR U_36D2
ENCODING 14034
SWIDTH 1000 0
DWIDTH 15 0
BBX 14 14 0 -1
BITMAP 
2000
23FC
2000
2000
FDF8
4908
4908
8908
51F8
3000
1908
2488
4090
83FC
ENDCHAR
STARTCHAR U_36D3
ENCODING 14035
SWIDTH 1000 0
DWIDTH 15 0
BBX 14 14 0 -1
BITMAP 
220C
21B0
2040
21BC
FC40
4BFC
48A0
8920
53FC
3124
1924
252C
4020
8020
ENDCHAR
STARTCHAR U_36D4
ENCODING 14036
SWIDTH 1000 0
DWIDTH 15 0
BBX 14 14 0 -1
BITMAP 
2040
2040
20F8
2388
F870
4988
4E24
89FC
5020
30F8
1820
25FC
4020
8020
ENDCHAR
STARTCHAR U_36D5
ENCODING 14037
SWIDTH 1000 0
DWIDTH 15 0
BBX 14 14 0 -1
BITMAP 
2000
21F8
2108
2108
FDF8
4800
4BF8
8A48
5248
33F8
1A00
2604
4204
81FC
ENDCHAR
STARTCHAR U_36D6
ENCODING 14038
SWIDTH 1000 0
DWIDTH 15 0
BBX 14 14 0 -1
BITMAP 
2040
2080
2110
21F8
FC08
4910
4A08
4880
91F8
7290
1890
2460
4090
830C
ENDCHAR
STARTCHAR U_36D7
ENCODING 14039
SWIDTH 1000 0
DWIDTH 15 0
BBX 14 14 0 -1
BITMAP 
2040
2040
2040
2150
FD50
4950
4AE8
8AE8
5040
3040
1BF8
2440
4040
87FC
ENDCHAR
STARTCHAR U_36D8
ENCODING 14040
SWIDTH 1000 0
DWIDTH 15 0
BBX 14 14 0 -1
BITMAP 
2020
2020
20F8
2020
FC20
4BFC
4A04
4AF4
9010
7020
19FC
2420
4020
80E0
ENDCHAR
STARTCHAR U_36D9
ENCODING 14041
SWIDTH 1000 0
DWIDTH 15 0
BBX 14 14 0 -1
BITMAP 
2080
2040
2000
23F8
FC00
4910
48A0
8BFC
5040
3040
1BF8
2440
4240
8040
ENDCHAR
STARTCHAR U_36DA
ENCODING 14042
SWIDTH 1000 0
DWIDTH 15 0
BBX 14 14 0 -1
BITMAP 
2000
21FC
2008
2070
FC10
49FC
4924
8924
51FC
3124
19FC
2524
4324
812C
ENDCHAR
STARTCHAR U_36DB
ENCODING 14043
SWIDTH 1000 0
DWIDTH 15 0
BBX 14 14 0 -1
BITMAP 
2040
2080
21F0
2110
FD10
49F0
4910
49F4
9118
73F0
1830
2450
4090
8330
ENDCHAR
STARTCHAR U_36DC
ENCODING 14044
SWIDTH 1000 0
DWIDTH 15 0
BBX 14 14 0 -1
BITMAP 
1100
1100
29F8
6B10
ACA0
2860
239C
0400
FFFC
0420
0C40
03C0
0C30
F00C
ENDCHAR
STARTCHAR U_36DD
ENCODING 14045
SWIDTH 1000 0
DWIDTH 15 0
BBX 14 14 0 -1
BITMAP 
2000
21F8
2108
2108
FFF8
4908
49F8
4908
9108
71F8
1800
2508
4104
8204
ENDCHAR
STARTCHAR U_36DE
ENCODING 14046
SWIDTH 1000 0
DWIDTH 15 0
BBX 14 14 0 -1
BITMAP 
2000
23F8
2040
21F0
FC40
4840
4BFC
4800
9090
73FC
1890
2490
4110
8210
ENDCHAR
STARTCHAR U_36DF
ENCODING 14047
SWIDTH 1000 0
DWIDTH 15 0
BBX 14 14 0 -1
BITMAP 
2080
2080
21F0
2210
FC20
4BF8
4A48
4A48
9248
77FC
1840
24A0
4110
860C
ENDCHAR
STARTCHAR U_36E0
ENCODING 14048
SWIDTH 1000 0
DWIDTH 15 0
BBX 14 14 0 -1
BITMAP 
2100
2100
207C
2204
FEF4
4A94
4A94
4AF4
9294
7294
1AF4
2604
4214
820C
ENDCHAR
STARTCHAR U_36E1
ENCODING 14049
SWIDTH 1000 0
DWIDTH 15 0
BBX 14 14 0 -1
BITMAP 
2080
2040
23FC
2204
FE04
49F0
4800
4800
93F8
70A0
18A0
2520
4124
821C
ENDCHAR
STARTCHAR U_36E2
ENCODING 14050
SWIDTH 1000 0
DWIDTH 15 0
BBX 14 14 0 -1
BITMAP 
2018
21E0
2020
21FC
FC70
48A8
4924
4820
91F8
7088
189C
2484
4104
8218
ENDCHAR
STARTCHAR U_36E3
ENCODING 14051
SWIDTH 1000 0
DWIDTH 15 0
BBX 14 14 0 -1
BITMAP 
2000
21F8
2108
2108
FDF8
4800
49F8
4908
9148
7148
1948
2440
4190
820C
ENDCHAR
STARTCHAR U_36E4
ENCODING 14052
SWIDTH 1000 0
DWIDTH 15 0
BBX 14 14 0 -1
BITMAP 
4000
47FC
4000
47BC
FCA4
4CA4
4CA4
96B4
95AC
94A4
64A4
34A4
4CA4
85AC
ENDCHAR
STARTCHAR U_36E5
ENCODING 14053
SWIDTH 1000 0
DWIDTH 15 0
BBX 14 14 0 -1
BITMAP 
2020
2024
23B4
20A8
FD28
4A24
4860
4800
91FC
7104
19FC
2504
41FC
8104
ENDCHAR
STARTCHAR U_36E6
ENCODING 14054
SWIDTH 1000 0
DWIDTH 15 0
BBX 14 14 0 -1
BITMAP 
2110
2110
2110
2110
FBFC
4910
4B10
4DB8
9154
7194
1910
2510
4110
8110
ENDCHAR
STARTCHAR U_36E7
ENCODING 14055
SWIDTH 1000 0
DWIDTH 15 0
BBX 14 14 0 -1
BITMAP 
2020
2020
2124
2124
FDFC
4800
4BFC
4840
9080
71FC
1A84
2484
40FC
8084
ENDCHAR
STARTCHAR U_36E8
ENCODING 14056
SWIDTH 1000 0
DWIDTH 15 0
BBX 14 14 0 -1
BITMAP 
2208
2110
23F8
2040
FC40
49F0
4840
4840
93FC
70A0
18A0
2524
4224
803C
ENDCHAR
STARTCHAR U_36E9
ENCODING 14057
SWIDTH 1000 0
DWIDTH 15 0
BBX 14 14 0 -1
BITMAP 
2040
2020
23FC
2040
FC88
49F8
4804
49F8
9108
71F8
1908
25F8
4108
8118
ENDCHAR
STARTCHAR U_36EA
ENCODING 14058
SWIDTH 1000 0
DWIDTH 15 0
BBX 14 14 0 -1
BITMAP 
2040
2040
23FC
20A0
FB18
4C44
4BF8
4A48
93F8
7248
1BF8
2440
4044
803C
ENDCHAR
STARTCHAR U_36EB
ENCODING 14059
SWIDTH 1000 0
DWIDTH 15 0
BBX 14 14 0 -1
BITMAP 
2000
21F8
2108
21F8
FD08
49F8
4880
D9FC
9254
7094
1924
2444
41A8
8010
ENDCHAR
STARTCHAR U_36EC
ENCODING 14060
SWIDTH 1000 0
DWIDTH 15 0
BBX 14 14 0 -1
BITMAP 
2040
2040
23F0
2040
FC40
4BFC
4910
4A4C
9040
7040
1BF0
2440
4040
83FC
ENDCHAR
STARTCHAR U_36ED
ENCODING 14061
SWIDTH 1000 0
DWIDTH 15 0
BBX 14 14 0 -1
BITMAP 
2090
2090
21F8
2090
FC90
4BFC
4800
49F8
9108
7108
19F8
2508
4108
81F8
ENDCHAR
STARTCHAR U_36EE
ENCODING 14062
SWIDTH 1000 0
DWIDTH 15 0
BBX 14 14 0 -1
BITMAP 
2020
21FC
2124
20A8
FC70
4820
48D8
4904
91FC
7088
1850
2420
4050
838C
ENDCHAR
STARTCHAR U_36EF
ENCODING 14063
SWIDTH 1000 0
DWIDTH 15 0
BBX 14 14 0 -1
BITMAP 
2210
23D0
2490
213C
F7D4
5554
5554
5554
97D4
72A4
1AAC
2480
4484
887C
ENDCHAR
STARTCHAR U_36F0
ENCODING 14064
SWIDTH 1000 0
DWIDTH 15 0
BBX 14 14 0 -1
BITMAP 
23F8
2208
23F8
2240
FBF8
4A24
4B1C
4800
91F8
7108
19F8
2508
41F8
8108
ENDCHAR
STARTCHAR U_36F1
ENCODING 14065
SWIDTH 1000 0
DWIDTH 15 0
BBX 14 14 0 -1
BITMAP 
23F8
2248
2248
23F8
FE48
4A48
4BF8
4800
97FC
7288
1250
2A20
4690
830C
ENDCHAR
STARTCHAR U_36F2
ENCODING 14066
SWIDTH 1000 0
DWIDTH 15 0
BBX 14 14 0 -1
BITMAP 
2000
23FC
2020
2040
FDF8
4908
49F8
4908
91F8
7108
19F8
2400
4108
8204
ENDCHAR
STARTCHAR U_36F3
ENCODING 14067
SWIDTH 1000 0
DWIDTH 15 0
BBX 14 14 0 -1
BITMAP 
0100
3FF8
0820
7FFC
4104
1FF0
1110
1110
0500
FFFC
0420
0E40
0180
7E7C
ENDCHAR
STARTCHAR U_36F4
ENCODING 14068
SWIDTH 1000 0
DWIDTH 15 0
BBX 14 14 0 -1
BITMAP 
2080
2124
2248
2090
FE48
4964
4890
4BFC
9314
72A4
1A44
27A4
4214
83FC
ENDCHAR
STARTCHAR U_36F5
ENCODING 14069
SWIDTH 1000 0
DWIDTH 15 0
BBX 14 14 0 -1
BITMAP 
200C
23F0
2044
2224
FD08
4820
4820
49FC
9124
71FC
1924
25FC
4104
810C
ENDCHAR
STARTCHAR U_36F6
ENCODING 14070
SWIDTH 1000 0
DWIDTH 15 0
BBX 14 14 0 -1
BITMAP 
2040
2040
2248
2248
FFF8
4900
4BFC
4920
91A4
7168
1A20
2650
4288
8104
ENDCHAR
STARTCHAR U_36F7
ENCODING 14071
SWIDTH 1000 0
DWIDTH 15 0
BBX 14 14 0 -1
BITMAP 
0C50
F048
1040
FDFC
3860
54A4
90A4
111C
0400
FFFC
0820
0C40
0380
7C78
ENDCHAR
STARTCHAR U_36F8
ENCODING 14072
SWIDTH 1000 0
DWIDTH 15 0
BBX 14 14 0 -1
BITMAP 
2040
2040
23FC
2040
FC40
4BF8
4800
4BF8
9208
73F8
1800
2510
40A0
83FC
ENDCHAR
STARTCHAR U_36F9
ENCODING 14073
SWIDTH 1000 0
DWIDTH 15 0
BBX 14 14 0 -1
BITMAP 
2100
2100
22FC
2220
FEFC
4AA4
4AFC
4AA4
92FC
7320
1AA0
2640
42B0
830C
ENDCHAR
STARTCHAR U_36FA
ENCODING 14074
SWIDTH 1000 0
DWIDTH 15 0
BBX 14 14 0 -1
BITMAP 
2080
2040
23F8
2000
FE10
4920
4BFC
4800
93F0
7210
1BF0
2610
43F0
8210
ENDCHAR
STARTCHAR U_36FB
ENCODING 14075
SWIDTH 1000 0
DWIDTH 15 0
BBX 14 14 0 -1
BITMAP 
2040
2040
27FC
20A0
FD10
4A48
4DF4
4840
97FC
7000
1840
25F0
4040
87FC
ENDCHAR
STARTCHAR U_36FC
ENCODING 14076
SWIDTH 1000 0
DWIDTH 15 0
BBX 14 14 0 -1
BITMAP 
2038
23C0
2040
2040
FBFC
4840
48C0
4B4C
9244
7244
1B5C
2644
4244
83FC
ENDCHAR
STARTCHAR U_36FD
ENCODING 14077
SWIDTH 1000 0
DWIDTH 15 0
BBX 14 14 0 -1
BITMAP 
2080
2040
23FC
FA04
4840
4A48
4950
8BFC
5040
30E0
1950
2648
4044
8040
ENDCHAR
STARTCHAR U_36FE
ENCODING 14078
SWIDTH 1000 0
DWIDTH 15 0
BBX 14 14 0 -1
BITMAP 
4010
4018
4014
47FC
F410
55D0
5410
55D0
9554
6558
35D0
2434
48CC
9104
ENDCHAR
STARTCHAR U_36FF
ENCODING 14079
SWIDTH 1000 0
DWIDTH 15 0
BBX 14 14 0 -1
BITMAP 
2150
2150
23FC
FD50
4800
4BFC
4A44
8840
53F8
3248
1A48
2648
4040
8040
ENDCHAR
STARTCHAR U_3700
ENCODING 14080
SWIDTH 1000 0
DWIDTH 15 0
BBX 14 14 0 -1
BITMAP 
2100
213C
2924
FFE4
293C
4924
4BA4
937C
5564
2124
3124
4924
413C
8124
ENDCHAR
STARTCHAR U_3701
ENCODING 14081
SWIDTH 1000 0
DWIDTH 15 0
BBX 14 14 0 -1
BITMAP 
1040
1040
1040
27FC
F8E0
2950
4A48
4DF4
9110
51F0
3110
29F0
4000
87FC
ENDCHAR
STARTCHAR U_3702
ENCODING 14082
SWIDTH 1000 0
DWIDTH 15 0
BBX 14 14 0 -1
BITMAP
1010
7C10
11FC
FE10
1090
7C50
1010
FE30
0200
FFFC
0440
0880
0700
78F8
ENDCHAR
STARTCHAR U_3703
ENCODING 14083
SWIDTH 1000 0
DWIDTH 15 0
BBX 14 14 0 -1
BITMAP 
2140
2120
2A20
FBFC
2E00
2AF8
4A00
4AF8
8A00
72F8
1288
2A88
4288
82F8
ENDCHAR
STARTCHAR U_3704
ENCODING 14084
SWIDTH 1000 0
DWIDTH 15 0
BBX 14 14 0 -1
BITMAP 
47F0
4410
54F0
F790
5490
57F0
56B0
56B0
97F0
D490
24B0
34F0
5714
8808
ENDCHAR
STARTCHAR U_3705
ENCODING 14085
SWIDTH 1000 0
DWIDTH 15 0
BBX 14 14 0 -1
BITMAP 
4080
4048
57FC
F080
5120
53C0
5110
57F8
9000
53F8
2248
33F8
4A48
83F8
ENDCHAR
STARTCHAR U_3706
ENCODING 14086
SWIDTH 1000 0
DWIDTH 15 0
BBX 14 14 0 -1
BITMAP 
4020
48A8
5468
F070
5FFC
5220
5470
5468
54A8
94A4
6524
2620
59C0
803C
ENDCHAR
STARTCHAR U_3707
ENCODING 14087
SWIDTH 1000 0
DWIDTH 15 0
BBX 14 14 0 -1
BITMAP 
2040
2040
2BF8
F840
2FFC
2840
4BF8
4840
97FC
5000
26C8
3A24
4A14
81F0
ENDCHAR
STARTCHAR U_3708
ENCODING 14088
SWIDTH 1000 0
DWIDTH 15 0
BBX 14 14 0 -1
BITMAP 
7CF8
28D0
1120
FE50
33AC
30F8
5048
90A8
3310
FFFC
0440
0880
0F80
7860
ENDCHAR
STARTCHAR U_3709
ENCODING 14089
SWIDTH 1000 0
DWIDTH 15 0
BBX 14 14 0 -1
BITMAP 
4248
4490
4490
5248
F7F8
5408
57F8
5000
97F8
9488
57F8
2400
5404
87F8
ENDCHAR
STARTCHAR U_370A
ENCODING 14090
SWIDTH 1000 0
DWIDTH 15 0
BBX 14 14 0 -1
BITMAP 
2208
23FC
2A04
FBFC
2A90
2A90
4BFC
4A90
93FC
52A4
32A8
2A90
44C8
8984
ENDCHAR
STARTCHAR U_370B
ENCODING 14091
SWIDTH 1000 0
DWIDTH 15 0
BBX 14 14 0 -1
BITMAP 
4210
4110
5120
F7FC
5120
5110
5208
9208
9404
57FC
2AA8
32A8
4AA8
87FC
ENDCHAR
STARTCHAR U_370C
ENCODING 14092
SWIDTH 1000 0
DWIDTH 15 0
BBX 14 14 0 -1
BITMAP 
1078
FE48
1048
7C48
008C
FF00
82F8
7C48
2848
FE48
2830
4830
3848
E584
ENDCHAR
STARTCHAR U_370D
ENCODING 14093
SWIDTH 1000 0
DWIDTH 15 0
BBX 14 14 0 -1
BITMAP 
4040
4020
57FC
F440
55F8
5448
57FC
5448
95F8
9440
55F8
2508
5908
91F8
ENDCHAR
STARTCHAR U_370E
ENCODING 14094
SWIDTH 1000 0
DWIDTH 15 0
BBX 14 14 0 -1
BITMAP 
201C
23E4
2A44
F928
2840
2890
49A0
48C8
8BFC
5044
33FC
3090
4908
8204
ENDCHAR
STARTCHAR U_370F
ENCODING 14095
SWIDTH 1000 0
DWIDTH 15 0
BBX 14 14 0 -1
BITMAP 
21F0
2110
29F0
F800
4BF8
4A08
4BF8
8A08
4BF8
3208
13F8
2910
4208
8404
ENDCHAR
STARTCHAR U_3710
ENCODING 14096
SWIDTH 1000 0
DWIDTH 15 0
BBX 14 14 0 -1
BITMAP 
2040
2248
2BF8
F800
2BF8
4800
49F0
4910
9110
71F0
1110
2890
44A0
87FC
ENDCHAR
STARTCHAR U_3711
ENCODING 14097
SWIDTH 1000 0
DWIDTH 15 0
BBX 14 14 0 -1
BITMAP 
2050
17FC
9040
43F8
4A48
13F8
A248
43F8
4248
0440
FFFC
0840
0F80
7870
ENDCHAR
STARTCHAR U_3712
ENCODING 14098
SWIDTH 1000 0
DWIDTH 15 0
BBX 14 14 0 -1
BITMAP 
20C0
231C
2A04
FA04
2B9C
2A04
4A04
4B9C
C890
3090
17FC
2890
4910
8210
ENDCHAR
STARTCHAR U_3713
ENCODING 14099
SWIDTH 1000 0
DWIDTH 15 0
BBX 14 14 0 -1
BITMAP 
4110
47BC
5150
F040
50A0
5110
5208
9DF4
9000
73F8
3208
2A08
43F8
8208
ENDCHAR
STARTCHAR U_3714
ENCODING 14100
SWIDTH 1000 0
DWIDTH 15 0
BBX 14 14 0 -1
BITMAP 
4080
4040
47F8
5210
F120
5FFC
9000
93F0
9210
5210
33F0
2920
4224
8C1C
ENDCHAR
STARTCHAR U_3715
ENCODING 14101
SWIDTH 1000 0
DWIDTH 15 0
BBX 14 14 0 -1
BITMAP 
4020
45FC
5220
F7F8
52A8
52F8
54A8
54F8
9220
53FC
2220
3620
4980
807C
ENDCHAR
STARTCHAR U_3716
ENCODING 14102
SWIDTH 1000 0
DWIDTH 15 0
BBX 14 14 0 -1
BITMAP 
4120
4FFC
5120
F7F8
5528
57F8
5528
97F8
9000
53F0
3210
33F0
4A10
83F0
ENDCHAR
STARTCHAR U_3717
ENCODING 14103
SWIDTH 1000 0
DWIDTH 15 0
BBX 14 14 0 -1
BITMAP 
4088
43FC
5108
FA94
57FC
5060
5090
9128
9644
51A0
3048
3190
4860
8380
ENDCHAR
STARTCHAR U_3718
ENCODING 14104
SWIDTH 1000 0
DWIDTH 15 0
BBX 14 14 0 -1
BITMAP 
4070
4040
57FC
FC94
57E0
5478
5400
95F8
9508
55F8
3508
2DF8
4908
93FC
ENDCHAR
STARTCHAR U_3719
ENCODING 14105
SWIDTH 1000 0
DWIDTH 15 0
BBX 14 14 0 -1
BITMAP 
4040
47FC
54A0
F4A0
57FC
54A4
94A4
97FC
9520
5520
25FC
3520
4964
91BC
ENDCHAR
STARTCHAR U_371A
ENCODING 14106
SWIDTH 1000 0
DWIDTH 15 0
BBX 14 14 0 -1
BITMAP 
4080
4040
57FC
F508
52F8
5220
5640
96F8
5A88
2288
32F8
2A88
4288
82F8
ENDCHAR
STARTCHAR U_371B
ENCODING 14107
SWIDTH 1000 0
DWIDTH 15 0
BBX 14 14 0 -1
BITMAP 
4120
413C
57D4
F110
57D0
5550
57D0
9550
97D0
5110
27E8
3128
4944
8184
ENDCHAR
STARTCHAR U_371C
ENCODING 14108
SWIDTH 1000 0
DWIDTH 15 0
BBX 14 14 0 -1
BITMAP 
4220
4220
5FBC
F228
5268
5728
5428
9210
9F90
5410
27A8
34A8
44A4
8944
ENDCHAR
STARTCHAR U_371D
ENCODING 14109
SWIDTH 1000 0
DWIDTH 15 0
BBX 14 14 0 -1
BITMAP 
4040
40A0
5110
F2E8
5404
59F0
5020
97FC
9110
57FC
2514
36EC
4404
87FC
ENDCHAR
STARTCHAR U_371E
ENCODING 14110
SWIDTH 1000 0
DWIDTH 15 0
BBX 14 14 0 -1
BITMAP 
1018
FEE0
1080
7CFC
5490
7C90
5490
7C90
1310
FFFC
1240
0440
0780
7C70
ENDCHAR
STARTCHAR U_371F
ENCODING 14111
SWIDTH 1000 0
DWIDTH 15 0
BBX 14 14 0 -1
BITMAP 
4720
4120
513C
FFC8
54A8
54A8
57A8
5490
9790
5490
27E8
2CA8
50C8
8084
ENDCHAR
STARTCHAR U_3720
ENCODING 14112
SWIDTH 1000 0
DWIDTH 15 0
BBX 14 14 0 -1
BITMAP 
4040
4248
5248
F3F8
5040
5220
53FC
5620
9BF8
5220
23F8
3220
43FC
8200
ENDCHAR
STARTCHAR U_3721
ENCODING 14113
SWIDTH 1000 0
DWIDTH 15 0
BBX 14 14 0 -1
BITMAP 
4148
4248
5548
F948
52B4
5724
5A10
9250
925C
5250
3250
3250
4AB0
830C
ENDCHAR
STARTCHAR U_3722
ENCODING 14114
SWIDTH 1000 0
DWIDTH 15 0
BBX 14 14 0 -1
BITMAP 
4040
43F8
5248
F7FC
5248
53F8
5248
93F8
9050
67FC
3090
2910
40E0
8718
ENDCHAR
STARTCHAR U_3723
ENCODING 14115
SWIDTH 1000 0
DWIDTH 15 0
BBX 14 14 0 -1
BITMAP 
4420
4428
47A4
54A0
FBFC
52A0
5D20
5120
9250
5C88
2104
3648
5524
8924
ENDCHAR
STARTCHAR U_3724
ENCODING 14116
SWIDTH 1000 0
DWIDTH 15 0
BBX 14 14 0 -1
BITMAP 
47FC
40A0
57FC
F4A4
57FC
5000
93F8
9208
93F8
5208
23F8
3048
57FC
8040
ENDCHAR
STARTCHAR U_3725
ENCODING 14117
SWIDTH 1000 0
DWIDTH 15 0
BBX 14 14 0 -1
BITMAP 
47FC
44A4
57FC
F000
53F8
5208
53F8
5208
93F8
5208
33F8
2910
4208
8404
ENDCHAR
STARTCHAR U_3726
ENCODING 14118
SWIDTH 1000 0
DWIDTH 15 0
BBX 14 14 0 -1
BITMAP 
43F8
4008
57FC
F008
53F8
5000
57BC
9124
97BC
5010
27FC
3110
4890
8030
ENDCHAR
STARTCHAR U_3727
ENCODING 14119
SWIDTH 1000 0
DWIDTH 15 0
BBX 14 14 0 -1
BITMAP 
4008
47FC
5650
FD90
57DC
5534
5550
9550
97D0
5550
2528
3528
4528
8A44
ENDCHAR
STARTCHAR U_3728
ENCODING 14120
SWIDTH 1000 0
DWIDTH 15 0
BBX 14 14 0 -1
BITMAP 
47FC
4404
57FC
F524
54A8
5470
55AC
5400
9520
55FC
2620
37FC
4820
9020
ENDCHAR
STARTCHAR U_3729
ENCODING 14121
SWIDTH 1000 0
DWIDTH 15 0
BBX 14 14 0 -1
BITMAP 
4080
47FC
5464
F5D4
54E4
57FC
5444
54E4
9754
5048
2FFC
30A0
5110
860C
ENDCHAR
STARTCHAR U_372A
ENCODING 14122
SWIDTH 1000 0
DWIDTH 15 0
BBX 14 14 0 -1
BITMAP 
100C
FEF0
4480
FEFC
1090
FE90
5510
9210
0248
FFFC
0440
0880
0F00
78F0
ENDCHAR
STARTCHAR U_372B
ENCODING 14123
SWIDTH 1000 0
DWIDTH 15 0
BBX 14 14 0 -1
BITMAP 
4250
4350
5550
FBFC
5214
55F4
5C14
5554
9548
5548
2548
2574
5554
8624
ENDCHAR
STARTCHAR U_372C
ENCODING 14124
SWIDTH 1000 0
DWIDTH 15 0
BBX 14 14 0 -1
BITMAP 
4070
4090
57FC
F548
5724
55F8
9400
95F8
9400
55F8
2400
25F8
5508
89F8
ENDCHAR
STARTCHAR U_372D
ENCODING 14125
SWIDTH 1000 0
DWIDTH 15 0
BBX 14 14 0 -1
BITMAP 
4248
4150
57FC
F404
59F8
5110
5110
91F0
9000
53F8
2248
33F8
4A48
83F8
ENDCHAR
STARTCHAR U_372E
ENCODING 14126
SWIDTH 1000 0
DWIDTH 15 0
BBX 14 14 0 -1
BITMAP 
47D0
4510
5510
F7DC
5450
57E0
5500
553C
97C0
5000
23F8
32A8
4AA8
87FC
ENDCHAR
STARTCHAR U_372F
ENCODING 14127
SWIDTH 1000 0
DWIDTH 15 0
BBX 14 14 0 -1
BITMAP 
47BC
4524
5524
F7A4
54BC
54A0
57A0
5520
9524
57BC
2000
2548
54A4
88A4
ENDCHAR
STARTCHAR U_3730
ENCODING 14128
SWIDTH 1000 0
DWIDTH 15 0
BBX 14 14 0 -1
BITMAP 
4484
49E8
4B38
57EC
F528
5BF4
5F3C
9040
9040
6FFC
2150
5148
4A44
8C44
ENDCHAR
STARTCHAR U_3731
ENCODING 14129
SWIDTH 1000 0
DWIDTH 15 0
BBX 14 14 0 -1
BITMAP 
47BC
4420
57BC
F528
5948
53F8
5208
93F8
9208
53F8
2208
33F8
4A08
8404
ENDCHAR
STARTCHAR U_3732
ENCODING 14130
SWIDTH 1000 0
DWIDTH 15 0
BBX 14 14 0 -1
BITMAP 
4040
4FFC
5200
F3F8
5208
53F8
5000
975C
D554
27F4
35BC
2F54
4574
85A4
ENDCHAR
STARTCHAR U_3733
ENCODING 14131
SWIDTH 1000 0
DWIDTH 15 0
BBX 14 14 0 -1
BITMAP 
4040
47FC
4000
53F8
F2A8
53F8
5150
90E0
9358
50A0
2124
3758
4990
830C
ENDCHAR
STARTCHAR U_3734
ENCODING 14132
SWIDTH 1000 0
DWIDTH 15 0
BBX 14 14 0 -1
BITMAP 
40A0
47BC
50A0
F3F8
52A8
53F8
5408
57FC
9914
51F0
2110
31F0
4910
81F0
ENDCHAR
STARTCHAR U_3735
ENCODING 14133
SWIDTH 1000 0
DWIDTH 15 0
BBX 14 14 0 -1
BITMAP 
4040
47FC
5220
F3F8
5220
53F8
5220
93FC
92AC
54D4
2144
3328
4D50
818C
ENDCHAR
STARTCHAR U_3736
ENCODING 14134
SWIDTH 1000 0
DWIDTH 15 0
BBX 14 14 0 -1
BITMAP 
40E0
4120
53FC
F604
53FC
52A8
533C
91E0
5240
23FC
3244
2BFC
4068
839C
ENDCHAR
STARTCHAR U_3737
ENCODING 14135
SWIDTH 1000 0
DWIDTH 15 0
BBX 14 14 0 -1
BITMAP 
7BFC
0948
7BFC
82EC
FB54
0AEC
6B54
12EC
0420
FFFC
0440
0880
0F00
78F0
ENDCHAR
STARTCHAR U_3738
ENCODING 14136
SWIDTH 1000 0
DWIDTH 15 0
BBX 14 14 0 -1
BITMAP 
1020
FCFC
1020
FCFC
8448
FCFC
8020
FCFC
8420
FFFC
0440
0880
1F00
F0F8
ENDCHAR
STARTCHAR U_3739
ENCODING 14137
SWIDTH 1000 0
DWIDTH 15 0
BBX 14 14 0 -1
BITMAP 
47BC
44A4
57BC
F4A4
57BC
5040
5220
93FC
9620
5BF8
2220
33F8
4A20
83FC
ENDCHAR
STARTCHAR U_373A
ENCODING 14138
SWIDTH 1000 0
DWIDTH 15 0
BBX 14 14 0 -1
BITMAP 
42A8
43FC
5488
FBFC
5198
53FC
5108
91F8
D108
21F8
3108
29F8
4108
8204
ENDCHAR
STARTCHAR U_373B
ENCODING 14139
SWIDTH 1000 0
DWIDTH 15 0
BBX 14 14 0 -1
BITMAP 
4488
49D0
5224
EDD8
A408
ABD4
BE3C
ABD8
B56C
75D4
2108
5484
5454
93F0
ENDCHAR
STARTCHAR U_373C
ENCODING 14140
SWIDTH 1000 0
DWIDTH 15 0
BBX 14 14 0 -1
BITMAP 
41F0
4150
57FC
F554
57FC
5554
57FC
9040
97FC
5534
21D0
3170
4990
87FC
ENDCHAR
STARTCHAR U_373D
ENCODING 14141
SWIDTH 1000 0
DWIDTH 15 0
BBX 14 14 0 -1
BITMAP 
1110
2220
4440
2220
1110
1FC0
0080
0108
FFFC
0100
0100
0100
0700
0100
ENDCHAR
STARTCHAR U_373E
ENCODING 14142
SWIDTH 1000 0
DWIDTH 15 0
BBX 14 14 0 -1
BITMAP
0040
F840
10A0
2110
2208
2514
3910
E110
2110
2110
2110
2210
A210
4410
ENDCHAR
STARTCHAR U_373F
ENCODING 14143
SWIDTH 1000 0
DWIDTH 15 0
BBX 14 14 0 -1
BITMAP 
11F8
F810
10A0
2060
2020
27FC
3828
E020
2020
2020
2020
2020
E0A0
2060
ENDCHAR
STARTCHAR U_3740
ENCODING 14144
SWIDTH 1000 0
DWIDTH 15 0
BBX 14 14 0 -1
BITMAP 
0208
7EF8
5210
4A20
4A20
FF28
42FC
5220
4A20
8A20
FF20
0220
3460
0820
ENDCHAR
STARTCHAR U_3741
ENCODING 14145
SWIDTH 1000 0
DWIDTH 15 0
BBX 14 14 0 -1
BITMAP 
1008
3FFC
5084
9F84
1084
1FB4
0008
1FF0
0040
FFFC
0080
0080
0380
0080
ENDCHAR
STARTCHAR U_3742
ENCODING 14146
SWIDTH 1000 0
DWIDTH 15 0
BBX 14 14 0 -1
BITMAP 
220C
F270
1FC0
2240
227C
2248
3248
E348
2E48
2248
2248
2248
E648
2288
ENDCHAR
STARTCHAR U_3743
ENCODING 14147
SWIDTH 1000 0
DWIDTH 15 0
BBX 14 14 0 -1
BITMAP 
1080
F8F0
1120
23F8
2648
3A48
2248
E3F8
20A0
20A0
20A0
2120
E224
241C
ENDCHAR
STARTCHAR U_3744
ENCODING 14148
SWIDTH 1000 0
DWIDTH 15 0
BBX 14 14 0 -1
BITMAP 
1020
FE28
01FC
7C20
44A8
44A8
7CA8
00A8
FCA8
08F8
1E28
F020
1024
701C
ENDCHAR
STARTCHAR U_3745
ENCODING 14149
SWIDTH 1000 0
DWIDTH 15 0
BBX 14 14 0 -1
BITMAP 
10F0
FE90
1090
7C90
008C
FF10
82F8
7C50
0050
7C50
0E20
3820
C850
198C
ENDCHAR
STARTCHAR U_3746
ENCODING 14150
SWIDTH 1000 0
DWIDTH 15 0
BBX 14 14 0 -1
BITMAP 
1040
FBF8
1040
21F0
2000
21F0
3910
E1F0
2110
27FC
2000
21F0
E110
21F0
ENDCHAR
STARTCHAR U_3747
ENCODING 14151
SWIDTH 1000 0
DWIDTH 15 0
BBX 14 14 0 -1
BITMAP 
1020
FFFC
0000
7CF8
4488
7CF8
0000
7CF8
0810
1C28
F1FC
1020
3020
1060
ENDCHAR
STARTCHAR U_3748
ENCODING 14152
SWIDTH 1000 0
DWIDTH 15 0
BBX 14 14 0 -1
BITMAP 
2108
47D0
9024
67D8
5014
F7FC
5468
AFD4
7C78
0808
1E10
F1FC
1010
3030
ENDCHAR
STARTCHAR U_3749
ENCODING 14153
SWIDTH 1000 0
DWIDTH 15 0
BBX 14 14 0 -1
BITMAP 
0000
0400
0200
0200
7FFC
4004
8008
0000
0000
0010
3FF8
0000
0000
0000
ENDCHAR
STARTCHAR U_374A
ENCODING 14154
SWIDTH 1000 0
DWIDTH 15 0
BBX 14 14 0 -1
BITMAP 
0400
0200
4208
7FFC
8008
0020
3FF0
0820
0440
0280
0100
0680
1860
E01C
ENDCHAR
STARTCHAR U_374B
ENCODING 14155
SWIDTH 1000 0
DWIDTH 15 0
BBX 14 14 0 -1
BITMAP 
0400
0200
7FFC
4008
8010
0FE0
0040
0080
0100
0100
0100
0100
0500
0300
ENDCHAR
STARTCHAR U_374C
ENCODING 14156
SWIDTH 1000 0
DWIDTH 15 0
BBX 14 14 0 -1
BITMAP 
0400
0200
7FFC
4008
8410
07C0
0840
1080
2100
0280
0440
0820
3010
C00C
ENDCHAR
STARTCHAR U_374D
ENCODING 14157
SWIDTH 1000 0
DWIDTH 15 0
BBX 14 14 0 -1
BITMAP 
0200
0100
7FFC
4408
8400
07E0
0800
0820
1FF0
0010
FFFC
0010
01A0
0040
ENDCHAR
STARTCHAR U_374E
ENCODING 14158
SWIDTH 1000 0
DWIDTH 15 0
BBX 14 14 0 -1
BITMAP 
0200
0108
7FFC
4008
8200
0100
0100
3FF0
0060
0180
0600
1800
2E00
41FC
ENDCHAR
STARTCHAR U_374F
ENCODING 14159
SWIDTH 1000 0
DWIDTH 15 0
BBX 14 14 0 -1
BITMAP 
0200
4108
7FFC
8208
0200
0500
0880
10C0
28A0
C89C
0880
0880
1080
2080
ENDCHAR
STARTCHAR U_3750
ENCODING 14160
SWIDTH 1000 0
DWIDTH 15 0
BBX 14 14 0 -1
BITMAP 
0200
0100
7FFC
4004
8488
0840
1020
6210
820C
0400
0440
0820
11F0
3E10
ENDCHAR
STARTCHAR U_3751
ENCODING 14161
SWIDTH 1000 0
DWIDTH 15 0
BBX 14 14 0 -1
BITMAP 
0200
0100
0100
7FFC
4004
8208
0100
7FF8
0800
0FE0
0820
1020
21A0
C040
ENDCHAR
STARTCHAR U_3752
ENCODING 14162
SWIDTH 1000 0
DWIDTH 15 0
BBX 14 14 0 -1
BITMAP 
0400
0200
0200
7FF8
4008
8210
0200
7FF0
0200
0200
3FE0
2020
2020
3FE0
ENDCHAR
STARTCHAR U_3753
ENCODING 14163
SWIDTH 1000 0
DWIDTH 15 0
BBX 14 14 0 -1
BITMAP 
0200
0100
7FFC
4004
8308
0480
1860
6018
9FE4
0000
1FE0
1020
1020
1FE0
ENDCHAR
STARTCHAR U_3754
ENCODING 14164
SWIDTH 1000 0
DWIDTH 15 0
BBX 14 14 0 -1
BITMAP 
0400
0200
FFF8
8008
0400
0200
FFF8
1060
6010
1040
0880
0700
18C0
E038
ENDCHAR
STARTCHAR U_3755
ENCODING 14165
SWIDTH 1000 0
DWIDTH 15 0
BBX 14 14 0 -1
BITMAP 
0000
0200
3FE0
2420
0840
2FA0
0000
1FC0
1040
1040
0880
0500
0600
0980
ENDCHAR
STARTCHAR U_3756
ENCODING 14166
SWIDTH 1000 0
DWIDTH 15 0
BBX 14 14 0 -1
BITMAP 
0400
0200
7FFC
4204
85E8
0C20
32C0
0700
7900
06F0
3C20
02C0
0300
7C00
ENDCHAR
STARTCHAR U_3757
ENCODING 14167
SWIDTH 1000 0
DWIDTH 15 0
BBX 14 14 0 -1
BITMAP 
0400
0200
7FFC
4404
8208
3FE0
2020
3FE0
2020
3FE0
2220
2140
2480
3878
ENDCHAR
STARTCHAR U_3758
ENCODING 14168
SWIDTH 1000 0
DWIDTH 15 0
BBX 14 14 0 -1
BITMAP 
0200
0100
7FFC
4208
8100
7FF8
0000
1FE0
0000
1FE0
0000
1FE0
1020
1FE0
ENDCHAR
STARTCHAR U_3759
ENCODING 14169
SWIDTH 1000 0
DWIDTH 15 0
BBX 14 14 0 -1
BITMAP 
0200
0100
7FFC
4008
3FF8
0100
1FF0
0100
7FF8
0000
FFFC
0820
1010
2008
ENDCHAR
STARTCHAR U_375A
ENCODING 14170
SWIDTH 1000 0
DWIDTH 15 0
BBX 14 14 0 -1
BITMAP 
0200
4108
7FFC
8008
3810
0BE0
1040
3A40
0A78
0A40
2A40
17FC
2800
47FC
ENDCHAR
STARTCHAR U_375B
ENCODING 14171
SWIDTH 1000 0
DWIDTH 15 0
BBX 14 14 0 -1
BITMAP 
0200
4104
7FFC
A008
17F0
1080
2888
2FF8
6888
A948
2A28
2808
2FF8
2808
ENDCHAR
STARTCHAR U_375C
ENCODING 14172
SWIDTH 1000 0
DWIDTH 15 0
BBX 14 14 0 -1
BITMAP 
0200
0108
7FFC
4850
7FF8
0840
FFFC
0000
3FF0
2010
3FF0
2010
3FF0
2010
ENDCHAR
STARTCHAR U_375D
ENCODING 14173
SWIDTH 1000 0
DWIDTH 15 0
BBX 14 14 0 -1
BITMAP 
0400
0200
7FFC
4004
9048
1040
7DF0
1040
38E0
3550
5248
9444
1040
1040
ENDCHAR
STARTCHAR U_375E
ENCODING 14174
SWIDTH 1000 0
DWIDTH 15 0
BBX 14 14 0 -1
BITMAP 
0400
0200
7FFC
4004
8008
7FF8
0480
3CF0
2010
2010
3CF0
0480
0480
FFFC
ENDCHAR
STARTCHAR U_375F
ENCODING 14175
SWIDTH 1000 0
DWIDTH 15 0
BBX 14 14 0 -1
BITMAP 
0400
0200
7FFC
4004
9FE8
0000
1FE0
1920
14A0
1260
1FE0
0484
0884
707C
ENDCHAR
STARTCHAR U_3760
ENCODING 14176
SWIDTH 1000 0
DWIDTH 15 0
BBX 14 14 0 -1
BITMAP 
0400
0200
7FFC
4004
9FE8
1020
1FE0
1020
1FE0
0200
7FF8
0480
0840
3038
ENDCHAR
STARTCHAR U_3761
ENCODING 14177
SWIDTH 1000 0
DWIDTH 15 0
BBX 14 14 0 -1
BITMAP 
0400
0200
7FFC
4004
8008
3F00
24F8
3C88
2490
3C60
2460
3C90
4508
0400
ENDCHAR
STARTCHAR U_3762
ENCODING 14178
SWIDTH 1000 0
DWIDTH 15 0
BBX 14 14 0 -1
BITMAP 
0200
7FFC
40C8
5F10
8200
1FE0
1220
1FE0
0200
7FF8
4288
43C8
5E48
4018
ENDCHAR
STARTCHAR U_3763
ENCODING 14179
SWIDTH 1000 0
DWIDTH 15 0
BBX 14 14 0 -1
BITMAP
0200
FFFC
9004
7DF8
1048
7C48
1088
FD28
1210
0100
FFFC
0440
1820
E01C
ENDCHAR
STARTCHAR U_3764
ENCODING 14180
SWIDTH 1000 0
DWIDTH 15 0
BBX 14 14 0 -1
BITMAP 
0100
7FFC
4844
9FE8
0840
1FE0
0840
FFFC
1220
1FE0
1220
FFFC
1020
1060
ENDCHAR
STARTCHAR U_3765
ENCODING 14181
SWIDTH 1000 0
DWIDTH 15 0
BBX 14 14 0 -1
BITMAP 
0200
0100
7FFC
4044
8848
4A48
4950
7FFC
08C0
F8E0
4950
4A48
4C4C
8840
ENDCHAR
STARTCHAR U_3766
ENCODING 14182
SWIDTH 1000 0
DWIDTH 15 0
BBX 14 14 0 -1
BITMAP 
0200
FFFC
9104
3FF8
D080
1FF8
1080
1FF8
1080
7FFC
0840
0878
1008
6038
ENDCHAR
STARTCHAR U_3767
ENCODING 14183
SWIDTH 1000 0
DWIDTH 15 0
BBX 14 14 0 -1
BITMAP 
0200
FFFC
8004
0840
FFFC
0840
0780
7878
1120
2950
4588
7FF8
0100
FFFC
ENDCHAR
STARTCHAR U_3768
ENCODING 14184
SWIDTH 1000 0
DWIDTH 15 0
BBX 14 14 0 -1
BITMAP 
0200
FFFC
8104
3FF0
0100
FFFC
0000
1FF0
1010
1FF0
0910
30A0
D460
181C
ENDCHAR
STARTCHAR U_3769
ENCODING 14185
SWIDTH 1000 0
DWIDTH 15 0
BBX 14 14 0 -1
BITMAP 
0200
7FFC
4104
BFF8
2080
2FF0
2090
3FFC
2090
2FF0
28C8
46B0
4490
998C
ENDCHAR
STARTCHAR U_376A
ENCODING 14186
SWIDTH 1000 0
DWIDTH 15 0
BBX 14 14 0 -1
BITMAP 
0200
0100
7FFC
5084
9088
7DF0
1090
FE90
4590
7CD0
1090
FE94
110C
1104
ENDCHAR
STARTCHAR U_376B
ENCODING 14187
SWIDTH 1000 0
DWIDTH 15 0
BBX 14 14 0 -1
BITMAP 
0200
FFFC
8084
79F8
4A90
5060
579C
48F0
4A40
4BF8
7440
41F0
4040
47FC
ENDCHAR
STARTCHAR U_376C
ENCODING 14188
SWIDTH 1000 0
DWIDTH 15 0
BBX 14 14 0 -1
BITMAP 
1020
0820
FE20
92F8
7C20
1020
7C20
13FC
FC20
1020
7C50
4450
4488
7F04
ENDCHAR
STARTCHAR U_376D
ENCODING 14189
SWIDTH 1000 0
DWIDTH 15 0
BBX 14 14 0 -1
BITMAP 
0200
FFFC
8004
23F8
2208
23F8
B208
ABF8
A240
27F8
2040
23F8
2040
2FFC
ENDCHAR
STARTCHAR U_376E
ENCODING 14190
SWIDTH 1000 0
DWIDTH 15 0
BBX 14 14 0 -1
BITMAP 
0200
FFFC
9004
5200
7FF8
5288
7E88
0050
7E50
0020
FF20
5450
9288
1304
ENDCHAR
STARTCHAR U_376F
ENCODING 14191
SWIDTH 1000 0
DWIDTH 15 0
BBX 14 14 0 -1
BITMAP 
0200
7FFC
8004
81E8
3E00
0200
FFFC
2850
CFCC
0000
7FF8
4848
4FC8
4018
ENDCHAR
STARTCHAR U_3770
ENCODING 14192
SWIDTH 1000 0
DWIDTH 15 0
BBX 14 14 0 -1
BITMAP 
0100
FFFC
8804
1FE0
1220
1FE0
0100
7FFC
9224
7FF8
0400
07F0
0810
3060
ENDCHAR
STARTCHAR U_3771
ENCODING 14193
SWIDTH 1000 0
DWIDTH 15 0
BBX 14 14 0 -1
BITMAP 
0200
FFFC
8004
4910
4FFC
4910
7BF8
0AA8
FBF8
4880
49F8
4A48
8830
8BC0
ENDCHAR
STARTCHAR U_3772
ENCODING 14194
SWIDTH 1000 0
DWIDTH 15 0
BBX 14 14 0 -1
BITMAP 
0100
FFFC
80A4
4BF8
48A0
7BF8
0AA8
0BFC
FC94
4BF8
4A48
89F0
8950
0840
ENDCHAR
STARTCHAR U_3773
ENCODING 14195
SWIDTH 1000 0
DWIDTH 15 0
BBX 14 14 0 -1
BITMAP 
0200
0200
0200
FFFC
0200
0200
1210
1288
2244
4224
8224
0200
1A00
0400
ENDCHAR
STARTCHAR U_3774
ENCODING 14196
SWIDTH 1000 0
DWIDTH 15 0
BBX 14 14 0 -1
BITMAP 
0010
7C10
0010
01F8
0010
FE90
2850
2850
2810
2810
2850
4824
4404
83FC
ENDCHAR
STARTCHAR U_3775
ENCODING 14197
SWIDTH 1000 0
DWIDTH 15 0
BBX 14 14 0 -1
BITMAP 
1FE0
1020
1FE0
1020
1FE0
0000
3FF0
0040
FFFC
1040
0840
0840
0040
01C0
ENDCHAR
STARTCHAR U_3776
ENCODING 14198
SWIDTH 1000 0
DWIDTH 15 0
BBX 14 14 0 -1
BITMAP 
7FF8
4848
7FF8
0880
0884
3084
C07C
0040
0040
FFFC
1040
0840
0840
01C0
ENDCHAR
STARTCHAR U_3777
ENCODING 14199
SWIDTH 1000 0
DWIDTH 15 0
BBX 14 14 0 -1
BITMAP 
3FF0
0010
1FF0
0010
3FF0
0020
7DF8
10A8
FCCC
0344
FFFC
1040
0840
01C0
ENDCHAR
STARTCHAR U_3778
ENCODING 14200
SWIDTH 1000 0
DWIDTH 15 0
BBX 14 14 0 -1
BITMAP 
0200
0A40
3230
CA0C
1000
3FF0
2010
3FF0
2010
3FF0
0880
1084
2084
C07C
ENDCHAR
STARTCHAR U_3779
ENCODING 14201
SWIDTH 1000 0
DWIDTH 15 0
BBX 14 14 0 -1
BITMAP
0100
3130
C1CC
0700
FA00
07E0
0820
3FF0
1110
1110
1FF0
02A0
0C94
707C
ENDCHAR
STARTCHAR U_377A
ENCODING 14202
SWIDTH 1000 0
DWIDTH 15 0
BBX 14 14 0 -1
BITMAP 
4420
2820
FE20
2828
FEA8
2AA4
FEA4
2B24
FE20
2828
6C30
AA20
28C0
2F00
ENDCHAR
STARTCHAR U_377B
ENCODING 14203
SWIDTH 1000 0
DWIDTH 15 0
BBX 14 14 0 -1
BITMAP 
4420
FE20
4420
7C28
10A8
FEA4
92A4
FF24
1020
FE28
1030
7C20
1040
FF80
ENDCHAR
STARTCHAR U_377C
ENCODING 14204
SWIDTH 1000 0
DWIDTH 15 0
BBX 14 14 0 -1
BITMAP 
2000
21F8
2020
FE20
2820
2BFC
2820
2820
2820
2820
48A0
4844
8804
87FC
ENDCHAR
STARTCHAR U_377D
ENCODING 14205
SWIDTH 1000 0
DWIDTH 15 0
BBX 14 14 0 -1
BITMAP 
2040
2040
2040
FE48
2BC8
28D0
2960
2A50
2C4C
4840
4940
4884
8804
87FC
ENDCHAR
STARTCHAR U_377E
ENCODING 14206
SWIDTH 1000 0
DWIDTH 15 0
BBX 14 14 0 -1
BITMAP 
2080
2080
2080
FDF8
2880
2880
28F8
2920
2920
4A20
4DFC
4800
8804
87FC
ENDCHAR
STARTCHAR U_377F
ENCODING 14207
SWIDTH 1000 0
DWIDTH 15 0
BBX 14 14 0 -1
BITMAP 
2040
2040
23F8
FE48
2A40
2AF0
2A90
2A90
2A60
4C60
4998
4800
8804
87FC
ENDCHAR
STARTCHAR U_3780
ENCODING 14208
SWIDTH 1000 0
DWIDTH 15 0
BBX 14 14 0 -1
BITMAP 
2100
2100
23F8
FD20
2920
29A8
2970
2A20
2A50
4C88
4904
4800
8804
87FC
ENDCHAR
STARTCHAR U_3781
ENCODING 14209
SWIDTH 1000 0
DWIDTH 15 0
BBX 14 14 0 -1
BITMAP 
21F8
2108
21F8
FF08
29F8
2800
2900
2938
29C0
4908
48F8
4800
8804
87FC
ENDCHAR
STARTCHAR U_3782
ENCODING 14210
SWIDTH 1000 0
DWIDTH 15 0
BBX 14 14 0 -1
BITMAP 
2078
2388
2150
FCA0
2910
2FFC
2910
2B10
28A0
48E0
4B18
4804
8804
87FC
ENDCHAR
STARTCHAR U_3783
ENCODING 14211
SWIDTH 1000 0
DWIDTH 15 0
BBX 14 14 0 -1
BITMAP 
2880
24A0
4290
9290
11FC
28A0
44A0
82A0
7CA0
44A0
4520
4520
7D24
461C
ENDCHAR
STARTCHAR U_3784
ENCODING 14212
SWIDTH 1000 0
DWIDTH 15 0
BBX 14 14 0 -1
BITMAP 
2040
2040
23FC
FCA0
2950
2BF8
2D54
29F0
2950
49F0
4848
4878
8804
87FC
ENDCHAR
STARTCHAR U_3785
ENCODING 14213
SWIDTH 1000 0
DWIDTH 15 0
BBX 14 14 0 -1
BITMAP 
2000
21F8
2148
FDF8
2948
29F8
2840
2FFC
28D0
4948
4E44
4840
8804
87FC
ENDCHAR
STARTCHAR U_3786
ENCODING 14214
SWIDTH 1000 0
DWIDTH 15 0
BBX 14 14 0 -1
BITMAP 
2040
2040
23F8
FCA0
2910
2A08
2FFC
2810
2BD0
4A50
4BD0
4814
8824
87FC
ENDCHAR
STARTCHAR U_3787
ENCODING 14215
SWIDTH 1000 0
DWIDTH 15 0
BBX 14 14 0 -1
BITMAP 
21F8
2148
21F8
FD48
29F8
2800
2FFC
2948
2950
4920
4990
490C
8804
87FC
ENDCHAR
STARTCHAR U_3788
ENCODING 14216
SWIDTH 1000 0
DWIDTH 15 0
BBX 14 14 0 -1
BITMAP 
2040
23FC
2204
FFFC
2A00
2BFC
2AA4
2BFC
2AA4
4AA4
4AA8
4C04
8804
87FC
ENDCHAR
STARTCHAR U_3789
ENCODING 14217
SWIDTH 1000 0
DWIDTH 15 0
BBX 14 14 0 -1
BITMAP 
2108
2090
23FC
FC80
29F8
2880
2FFC
2900
29F8
4A20
4C20
49FC
8804
87FC
ENDCHAR
STARTCHAR U_378A
ENCODING 14218
SWIDTH 1000 0
DWIDTH 15 0
BBX 14 14 0 -1
BITMAP 
5440
5440
7C40
93FC
9250
FE50
0050
7C50
0050
FE50
1050
5494
9294
110C
ENDCHAR
STARTCHAR U_378B
ENCODING 14219
SWIDTH 1000 0
DWIDTH 15 0
BBX 14 14 0 -1
BITMAP 
3FF8
2008
2008
3FF8
2000
2FF0
2410
2210
2220
2140
4080
4140
8620
381C
ENDCHAR
STARTCHAR U_378C
ENCODING 14220
SWIDTH 1000 0
DWIDTH 15 0
BBX 14 14 0 -1
BITMAP 
3FF8
2008
2008
3FF8
2000
27F0
2020
2040
3FFC
2080
4080
4080
8080
0380
ENDCHAR
STARTCHAR U_378D
ENCODING 14221
SWIDTH 1000 0
DWIDTH 15 0
BBX 14 14 0 -1
BITMAP 
3FF8
2008
2008
3FF8
2200
2200
3FE0
2220
2220
2A20
2620
4524
48A4
B01C
ENDCHAR
STARTCHAR U_378E
ENCODING 14222
SWIDTH 1000 0
DWIDTH 15 0
BBX 14 14 0 -1
BITMAP 
3FF8
2008
2008
3FF8
2000
2FF8
2888
2888
2FF8
2800
2800
4804
4804
87FC
ENDCHAR
STARTCHAR U_378F
ENCODING 14223
SWIDTH 1000 0
DWIDTH 15 0
BBX 14 14 0 -1
BITMAP 
3FF8
2008
2008
3FF8
2000
21F8
2F00
2080
2FF0
2020
2040
4180
4600
99FC
ENDCHAR
STARTCHAR U_3790
ENCODING 14224
SWIDTH 1000 0
DWIDTH 15 0
BBX 14 14 0 -1
BITMAP 
3FF8
2008
2008
3FF8
2100
2080
2080
2FF8
2000
2410
4210
4220
5FFC
8000
ENDCHAR
STARTCHAR U_3791
ENCODING 14225
SWIDTH 1000 0
DWIDTH 15 0
BBX 14 14 0 -1
BITMAP 
3FFC
2004
2004
3FFC
2000
2080
2EBC
2080
2080
2EBC
2080
4080
4084
807C
ENDCHAR
STARTCHAR U_3792
ENCODING 14226
SWIDTH 1000 0
DWIDTH 15 0
BBX 14 14 0 -1
BITMAP 
3FFC
2004
2004
3FFC
2400
2FF8
2808
2FF8
2808
2FF8
4808
4808
8FF8
0808
ENDCHAR
STARTCHAR U_3793
ENCODING 14227
SWIDTH 1000 0
DWIDTH 15 0
BBX 14 14 0 -1
BITMAP 
3FFC
2004
2004
3FFC
2400
27F8
2404
23FC
2000
47F8
4408
47F8
8408
87F8
ENDCHAR
STARTCHAR U_3794
ENCODING 14228
SWIDTH 1000 0
DWIDTH 15 0
BBX 14 14 0 -1
BITMAP 
3FF8
2008
2008
3FF8
2100
23F0
2E20
21C0
2120
2E7C
4184
4058
8060
1F80
ENDCHAR
STARTCHAR U_3795
ENCODING 14229
SWIDTH 1000 0
DWIDTH 15 0
BBX 14 14 0 -1
BITMAP 
3FF8
2008
2008
3FF8
2410
2808
37F4
2410
27F0
4410
47F0
4410
8410
0430
ENDCHAR
STARTCHAR U_3796
ENCODING 14230
SWIDTH 1000 0
DWIDTH 15 0
BBX 14 14 0 -1
BITMAP 
3FF8
2008
2008
3FF8
2080
3FFC
2080
2FF8
2888
2888
49D8
42A0
8490
188C
ENDCHAR
STARTCHAR U_3797
ENCODING 14231
SWIDTH 1000 0
DWIDTH 15 0
BBX 14 14 0 -1
BITMAP 
3FF8
2008
2008
3FF8
2090
2088
3FFC
2884
24C8
21B0
4290
5C88
8884
0180
ENDCHAR
STARTCHAR U_3798
ENCODING 14232
SWIDTH 1000 0
DWIDTH 15 0
BBX 14 14 0 -1
BITMAP 
7FF8
4008
4008
7FF8
4000
5FFC
4300
5C88
4990
46E0
5BA0
4290
9C8C
8300
ENDCHAR
STARTCHAR U_3799
ENCODING 14233
SWIDTH 1000 0
DWIDTH 15 0
BBX 14 14 0 -1
BITMAP 
7FF8
4008
7FF8
4060
4F80
40F0
4F80
40F8
5F84
40FC
5E90
42E0
8CB0
B18C
ENDCHAR
STARTCHAR U_379A
ENCODING 14234
SWIDTH 1000 0
DWIDTH 15 0
BBX 14 14 0 -1
BITMAP 
3FF8
2008
2008
3FF8
2000
27F0
2080
3FFC
2080
2EB8
2888
4EF8
4888
8FF8
ENDCHAR
STARTCHAR U_379B
ENCODING 14235
SWIDTH 1000 0
DWIDTH 15 0
BBX 14 14 0 -1
BITMAP 
3FF8
2008
2008
3FF8
2280
24F8
3884
22FC
2400
3CF8
2488
44F8
4488
84F8
ENDCHAR
STARTCHAR U_379C
ENCODING 14236
SWIDTH 1000 0
DWIDTH 15 0
BBX 14 14 0 -1
BITMAP 
3FF8
2008
2008
3FF8
2200
24F8
3A20
25FC
28A8
3924
4BFC
4888
8870
898C
ENDCHAR
STARTCHAR U_379D
ENCODING 14237
SWIDTH 1000 0
DWIDTH 15 0
BBX 14 14 0 -1
BITMAP 
0028
7FFC
4420
4724
4418
7F90
9528
ACC4
3FF8
2008
3FF8
2000
2000
4000
ENDCHAR
STARTCHAR U_379E
ENCODING 14238
SWIDTH 1000 0
DWIDTH 15 0
BBX 14 14 0 -1
BITMAP 
3FF8
2008
2008
3FF8
2490
3998
2264
2440
3940
2978
4940
4940
8AE0
0C1C
ENDCHAR
STARTCHAR U_379F
ENCODING 14239
SWIDTH 1000 0
DWIDTH 15 0
BBX 14 14 0 -1
BITMAP 
3FF8
2008
2008
3FF8
2410
3FFC
2220
2FF8
2A28
2FF8
2100
5FFC
4420
B81C
ENDCHAR
STARTCHAR U_37A0
ENCODING 14240
SWIDTH 1000 0
DWIDTH 15 0
BBX 14 14 0 -1
BITMAP 
3FFC
2004
3FFC
2080
3FFC
2220
37F4
2C18
37F4
4410
47F0
4080
84A0
9998
ENDCHAR
STARTCHAR U_37A1
ENCODING 14241
SWIDTH 1000 0
DWIDTH 15 0
BBX 14 14 0 -1
BITMAP 
3FFC
2004
3FFC
2000
2F7C
2210
2F7C
2000
2F78
4220
4778
5A28
8290
830C
ENDCHAR
STARTCHAR U_37A2
ENCODING 14242
SWIDTH 1000 0
DWIDTH 15 0
BBX 14 14 0 -1
BITMAP 
0100
0100
0100
2108
2108
2108
2108
2108
3FF8
2108
0100
0100
0108
7FFC
ENDCHAR
STARTCHAR U_37A3
ENCODING 14243
SWIDTH 1000 0
DWIDTH 15 0
BBX 14 14 0 -1
BITMAP 
0100
4108
4108
7FF8
0400
1800
6240
0C20
3010
DFEC
0420
0820
30A0
C040
ENDCHAR
STARTCHAR U_37A4
ENCODING 14244
SWIDTH 1000 0
DWIDTH 15 0
BBX 14 14 0 -1
BITMAP 
0100
2108
2108
2108
3FF8
2008
0100
0100
0100
0280
0240
0420
1810
600C
ENDCHAR
STARTCHAR U_37A5
ENCODING 14245
SWIDTH 1000 0
DWIDTH 15 0
BBX 14 14 0 -1
BITMAP 
0100
2108
2108
2108
3FF8
2008
0200
0100
0100
0280
0480
0840
1030
600C
ENDCHAR
STARTCHAR U_37A6
ENCODING 14246
SWIDTH 1000 0
DWIDTH 15 0
BBX 14 14 0 -1
BITMAP 
2000
23E0
2220
AA20
AA20
AA20
AA20
AA20
AA20
AA20
FA20
8C24
0424
181C
ENDCHAR
STARTCHAR U_37A7
ENCODING 14247
SWIDTH 1000 0
DWIDTH 15 0
BBX 14 14 0 -1
BITMAP 
0100
2108
2108
2108
3FF8
0000
3FF0
0410
0420
043C
0804
0804
3028
C010
ENDCHAR
STARTCHAR U_37A8
ENCODING 14248
SWIDTH 1000 0
DWIDTH 15 0
BBX 14 14 0 -1
BITMAP 
2000
23F0
2010
A820
A840
A840
AFFC
A840
A840
A840
F840
8840
0140
0080
ENDCHAR
STARTCHAR U_37A9
ENCODING 14249
SWIDTH 1000 0
DWIDTH 15 0
BBX 14 14 0 -1
BITMAP 
0200
2210
2210
2210
3FF0
0000
0FC0
0840
0C40
0A40
0940
1140
2048
C038
ENDCHAR
STARTCHAR U_37AA
ENCODING 14250
SWIDTH 1000 0
DWIDTH 15 0
BBX 14 14 0 -1
BITMAP 
3FE0
0020
0020
3FE0
0020
0028
FFFC
0200
0200
4210
4210
4210
4210
7FF0
ENDCHAR
STARTCHAR U_37AB
ENCODING 14251
SWIDTH 1000 0
DWIDTH 15 0
BBX 14 14 0 -1
BITMAP 
0200
4210
4210
7FF0
0000
0600
0100
7FF0
0020
01C0
0600
1800
6E00
81FC
ENDCHAR
STARTCHAR U_37AC
ENCODING 14252
SWIDTH 1000 0
DWIDTH 15 0
BBX 14 14 0 -1
BITMAP 
0100
0100
2108
2108
2108
3FF8
0000
0000
3FF8
0100
0100
0100
0100
7FFC
ENDCHAR
STARTCHAR U_37AD
ENCODING 14253
SWIDTH 1000 0
DWIDTH 15 0
BBX 14 14 0 -1
BITMAP 
0100
0100
0200
7FF8
0840
1020
2010
C00C
0100
0100
2108
2108
2108
3FF8
ENDCHAR
STARTCHAR U_37AE
ENCODING 14254
SWIDTH 1000 0
DWIDTH 15 0
BBX 14 14 0 -1
BITMAP 
0100
2108
2108
2108
3FF8
0000
0400
0400
0BF8
1010
6660
0180
00C0
0040
ENDCHAR
STARTCHAR U_37AF
ENCODING 14255
SWIDTH 1000 0
DWIDTH 15 0
BBX 14 14 0 -1
BITMAP 
0000
FFF0
0010
0010
7FF0
4000
4004
3FFC
0000
0200
8204
8204
8204
FFFC
ENDCHAR
STARTCHAR U_37B0
ENCODING 14256
SWIDTH 1000 0
DWIDTH 15 0
BBX 14 14 0 -1
BITMAP 
2100
2100
2100
23F8
AA40
AC40
A840
AFFC
A840
A840
F840
8840
0040
0040
ENDCHAR
STARTCHAR U_37B1
ENCODING 14257
SWIDTH 1000 0
DWIDTH 15 0
BBX 14 14 0 -1
BITMAP 
0100
4104
4104
4104
7FFC
4004
1FF0
1010
1010
1FF0
1010
1010
1010
1FF0
ENDCHAR
STARTCHAR U_37B2
ENCODING 14258
SWIDTH 1000 0
DWIDTH 15 0
BBX 14 14 0 -1
BITMAP 
2040
2040
2040
23FC
AA44
AA44
AA44
AA44
ABFC
AA44
F840
8840
0040
0040
ENDCHAR
STARTCHAR U_37B3
ENCODING 14259
SWIDTH 1000 0
DWIDTH 15 0
BBX 14 14 0 -1
BITMAP 
2020
2120
20A0
A8A0
AA20
A920
A920
A820
A83C
ABE0
F820
8820
0020
0020
ENDCHAR
STARTCHAR U_37B4
ENCODING 14260
SWIDTH 1000 0
DWIDTH 15 0
BBX 14 14 0 -1
BITMAP 
2038
23C0
2240
AA40
AA40
ABF8
AA40
AA40
AA40
AA20
FA24
8A14
0314
020C
ENDCHAR
STARTCHAR U_37B5
ENCODING 14261
SWIDTH 1000 0
DWIDTH 15 0
BBX 14 14 0 -1
BITMAP 
0100
2108
2108
2108
3FF8
0000
0100
7FFC
0820
0440
0380
0680
1860
601C
ENDCHAR
STARTCHAR U_37B6
ENCODING 14262
SWIDTH 1000 0
DWIDTH 15 0
BBX 14 14 0 -1
BITMAP 
2100
20C0
2040
27FC
A910
A910
A910
A8A0
A8A0
A840
F8A0
8890
0108
0604
ENDCHAR
STARTCHAR U_37B7
ENCODING 14263
SWIDTH 1000 0
DWIDTH 15 0
BBX 14 14 0 -1
BITMAP 
0100
2108
2108
3FF8
0100
0600
3800
3FF8
0100
0100
1FF0
0100
0100
7FFC
ENDCHAR
STARTCHAR U_37B8
ENCODING 14264
SWIDTH 1000 0
DWIDTH 15 0
BBX 14 14 0 -1
BITMAP 
0100
2108
2108
3FF8
0000
0000
7FFC
0300
0540
1930
610C
0104
0100
0100
ENDCHAR
STARTCHAR U_37B9
ENCODING 14265
SWIDTH 1000 0
DWIDTH 15 0
BBX 14 14 0 -1
BITMAP 
2000
27FC
2010
23D0
AA50
AA50
AA50
AA50
ABD0
AA50
F810
8810
0050
0020
ENDCHAR
STARTCHAR U_37BA
ENCODING 14266
SWIDTH 1000 0
DWIDTH 15 0
BBX 14 14 0 -1
BITMAP 
0100
2110
2110
3FF0
1000
1000
3FF0
4100
0100
FFFC
0280
0440
1820
601C
ENDCHAR
STARTCHAR U_37BB
ENCODING 14267
SWIDTH 1000 0
DWIDTH 15 0
BBX 14 14 0 -1
BITMAP 
0100
2108
2108
3FF8
0000
1FF0
1010
1FF0
0000
FFFC
0800
1FF0
0010
00E0
ENDCHAR
STARTCHAR U_37BC
ENCODING 14268
SWIDTH 1000 0
DWIDTH 15 0
BBX 14 14 0 -1
BITMAP 
3FE0
0040
0188
FD10
0560
0980
3160
C11C
0500
0200
4108
4108
4108
7FF8
ENDCHAR
STARTCHAR U_37BD
ENCODING 14269
SWIDTH 1000 0
DWIDTH 15 0
BBX 14 14 0 -1
BITMAP 
2040
2050
2048
23FC
AA40
AA44
AA44
AA48
AA48
AA30
FA24
8B54
024C
0084
ENDCHAR
STARTCHAR U_37BE
ENCODING 14270
SWIDTH 1000 0
DWIDTH 15 0
BBX 14 14 0 -1
BITMAP 
2000
23F8
2208
2208
ABF8
AA00
AA80
AA88
AA98
AAE0
FA80
8C84
0484
087C
ENDCHAR
STARTCHAR U_37BF
ENCODING 14271
SWIDTH 1000 0
DWIDTH 15 0
BBX 14 14 0 -1
BITMAP 
0100
2108
2108
3FF8
0000
0100
1FF0
0100
7FFC
0420
0240
0180
0E60
701C
ENDCHAR
STARTCHAR U_37C0
ENCODING 14272
SWIDTH 1000 0
DWIDTH 15 0
BBX 14 14 0 -1
BITMAP 
0078
3F80
0100
0100
7FFC
0380
0D60
711C
0000
0100
2108
2108
2108
3FF8
ENDCHAR
STARTCHAR U_37C1
ENCODING 14273
SWIDTH 1000 0
DWIDTH 15 0
BBX 14 14 0 -1
BITMAP 
2000
23FC
2200
2200
AAF8
AA20
AA20
AA20
ABFC
AA20
FA20
8C20
0420
0820
ENDCHAR
STARTCHAR U_37C2
ENCODING 14274
SWIDTH 1000 0
DWIDTH 15 0
BBX 14 14 0 -1
BITMAP 
21F8
2108
2148
A928
A908
AFFC
A908
A948
AA28
AA08
FBFC
8810
00D0
0020
ENDCHAR
STARTCHAR U_37C3
ENCODING 14275
SWIDTH 1000 0
DWIDTH 15 0
BBX 14 14 0 -1
BITMAP 
2000
21F8
2008
ABE8
A808
A9E8
A928
A928
A928
A9E8
F928
8808
0028
0010
ENDCHAR
STARTCHAR U_37C4
ENCODING 14276
SWIDTH 1000 0
DWIDTH 15 0
BBX 14 14 0 -1
BITMAP 
2218
2190
20A0
ABFC
A840
A840
A9F8
A840
A840
A840
FBFC
8840
0040
0040
ENDCHAR
STARTCHAR U_37C5
ENCODING 14277
SWIDTH 1000 0
DWIDTH 15 0
BBX 14 14 0 -1
BITMAP 
2204
239C
2254
AA24
AAD4
AB0C
ABFC
AA94
A890
A890
F890
8910
0114
061C
ENDCHAR
STARTCHAR U_37C6
ENCODING 14278
SWIDTH 1000 0
DWIDTH 15 0
BBX 14 14 0 -1
BITMAP 
2080
20A0
2128
AB30
A920
A960
A9A4
A91C
A840
AFFC
F840
8840
0040
0040
ENDCHAR
STARTCHAR U_37C7
ENCODING 14279
SWIDTH 1000 0
DWIDTH 15 0
BBX 14 14 0 -1
BITMAP 
2040
2040
2148
2148
A948
AAD4
AAD4
AC64
A840
ABF8
F840
8840
0040
07FC
ENDCHAR
STARTCHAR U_37C8
ENCODING 14280
SWIDTH 1000 0
DWIDTH 15 0
BBX 14 14 0 -1
BITMAP 
2040
2050
2048
ABF8
A840
AA4C
A948
A8D0
A8E0
A950
FA50
8C4C
0140
0080
ENDCHAR
STARTCHAR U_37C9
ENCODING 14281
SWIDTH 1000 0
DWIDTH 15 0
BBX 14 14 0 -1
BITMAP 
2080
2040
23FC
AA04
AC48
AA40
ABF8
AC40
A840
AFFC
F840
8840
0040
0040
ENDCHAR
STARTCHAR U_37CA
ENCODING 14282
SWIDTH 1000 0
DWIDTH 15 0
BBX 14 14 0 -1
BITMAP 
2008
2070
2384
2244
A928
A800
A9F8
A810
A820
ABFC
F820
8820
00A0
0040
ENDCHAR
STARTCHAR U_37CB
ENCODING 14283
SWIDTH 1000 0
DWIDTH 15 0
BBX 14 14 0 -1
BITMAP 
2218
2190
20A0
23F8
AA08
AA08
AA08
ABF8
A8A0
A8A0
F920
8924
0224
041C
ENDCHAR
STARTCHAR U_37CC
ENCODING 14284
SWIDTH 1000 0
DWIDTH 15 0
BBX 14 14 0 -1
BITMAP 
2240
2220
2200
2204
AFC8
AAB0
AA84
AA88
AAB0
AA84
FA88
8CB0
0484
087C
ENDCHAR
STARTCHAR U_37CD
ENCODING 14285
SWIDTH 1000 0
DWIDTH 15 0
BBX 14 14 0 -1
BITMAP 
2040
2020
21F8
2108
A9F8
A908
A908
A9F8
A944
A948
F930
8920
0190
010C
ENDCHAR
STARTCHAR U_37CE
ENCODING 14286
SWIDTH 1000 0
DWIDTH 15 0
BBX 14 14 0 -1
BITMAP 
2038
27C0
2088
AA48
A950
A910
A800
A880
AFFC
AC90
F920
88C0
0130
060C
ENDCHAR
STARTCHAR U_37CF
ENCODING 14287
SWIDTH 1000 0
DWIDTH 15 0
BBX 14 14 0 -1
BITMAP 
2040
2040
20A0
2110
AE8C
A840
A800
ABF8
A810
A820
FBF8
8A08
0208
03F8
ENDCHAR
STARTCHAR U_37D0
ENCODING 14288
SWIDTH 1000 0
DWIDTH 15 0
BBX 14 14 0 -1
BITMAP 
2210
2210
2FFC
2210
AA90
A840
A840
AFFC
A900
A900
F900
0100
0100
01FC
ENDCHAR
STARTCHAR U_37D1
ENCODING 14289
SWIDTH 1000 0
DWIDTH 15 0
BBX 14 14 0 -1
BITMAP 
2040
23F8
2040
27FC
AC04
ABF8
A810
A820
A840
AFFC
F840
8840
0040
00C0
ENDCHAR
STARTCHAR U_37D2
ENCODING 14290
SWIDTH 1000 0
DWIDTH 15 0
BBX 14 14 0 -1
BITMAP 
0200
4210
7FF0
0000
7FF0
0410
FFFC
0410
7FF0
0800
1000
3FF0
D010
1FF0
ENDCHAR
STARTCHAR U_37D3
ENCODING 14291
SWIDTH 1000 0
DWIDTH 15 0
BBX 14 14 0 -1
BITMAP 
2000
2208
21B0
2040
A9B0
AA88
AFFC
A920
ABFC
FB24
8D24
0524
0820
0020
ENDCHAR
STARTCHAR U_37D4
ENCODING 14292
SWIDTH 1000 0
DWIDTH 15 0
BBX 14 14 0 -1
BITMAP 
0100
2108
3FF8
0100
0280
0440
1A30
E10C
1FE0
0040
0080
1FF0
1010
1FF0
ENDCHAR
STARTCHAR U_37D5
ENCODING 14293
SWIDTH 1000 0
DWIDTH 15 0
BBX 14 14 0 -1
BITMAP 
0100
2108
2108
3FF8
0000
FC90
8450
8510
8490
8490
841C
FDF0
8410
0010
ENDCHAR
STARTCHAR U_37D6
ENCODING 14294
SWIDTH 1000 0
DWIDTH 15 0
BBX 14 14 0 -1
BITMAP 
0200
2220
3FE0
0000
3FE0
0200
1FC0
0200
7FF0
0880
0880
FFF8
1080
2080
ENDCHAR
STARTCHAR U_37D7
ENCODING 14295
SWIDTH 1000 0
DWIDTH 15 0
BBX 14 14 0 -1
BITMAP 
0100
0100
0100
4924
5554
638C
7DF4
5554
5554
6594
4924
4104
7FFC
4004
ENDCHAR
STARTCHAR U_37D8
ENCODING 14296
SWIDTH 1000 0
DWIDTH 15 0
BBX 14 14 0 -1
BITMAP 
27FC
2404
2444
24E4
AC44
ADF4
AC04
ADF4
AD14
AD14
FDF4
0514
0804
080C
ENDCHAR
STARTCHAR U_37D9
ENCODING 14297
SWIDTH 1000 0
DWIDTH 15 0
BBX 14 14 0 -1
BITMAP 
2090
2090
23FC
2090
A890
ABFC
A800
ABFC
AA04
AA04
FBFC
8A04
0204
03FC
ENDCHAR
STARTCHAR U_37DA
ENCODING 14298
SWIDTH 1000 0
DWIDTH 15 0
BBX 14 14 0 -1
BITMAP 
2040
2040
FBF8
2040
73F8
6990
A860
A0E0
231C
0000
0100
2108
2108
3FF8
ENDCHAR
STARTCHAR U_37DB
ENCODING 14299
SWIDTH 1000 0
DWIDTH 15 0
BBX 14 14 0 -1
BITMAP 
0200
2210
3FF0
0000
1088
1088
FDFC
1088
1488
18F8
3088
D088
10F8
3000
ENDCHAR
STARTCHAR U_37DC
ENCODING 14300
SWIDTH 1000 0
DWIDTH 15 0
BBX 14 14 0 -1
BITMAP 
0100
2108
3FF8
0080
FCFC
0504
0628
7CB0
40A8
8124
FD24
0620
0820
3060
ENDCHAR
STARTCHAR U_37DD
ENCODING 14301
SWIDTH 1000 0
DWIDTH 15 0
BBX 14 14 0 -1
BITMAP 
2100
20C0
2040
23F8
A910
A890
A8A0
AFFC
A800
ABF8
FA08
8A08
03F8
0208
ENDCHAR
STARTCHAR U_37DE
ENCODING 14302
SWIDTH 1000 0
DWIDTH 15 0
BBX 14 14 0 -1
BITMAP 
2280
2240
27FC
2220
A940
A884
AB7C
A940
A920
AFFC
F910
88A0
0044
03BC
ENDCHAR
STARTCHAR U_37DF
ENCODING 14303
SWIDTH 1000 0
DWIDTH 15 0
BBX 14 14 0 -1
BITMAP 
0100
1110
1FF0
0000
0440
1FF0
0440
7FFC
0C60
3018
C7C4
0540
0488
07F0
ENDCHAR
STARTCHAR U_37E0
ENCODING 14304
SWIDTH 1000 0
DWIDTH 15 0
BBX 14 14 0 -1
BITMAP 
23FC
2204
2204
22A4
ABF4
AA44
AB54
AB54
AB54
ABF4
FA04
8A04
0204
020C
ENDCHAR
STARTCHAR U_37E1
ENCODING 14305
SWIDTH 1000 0
DWIDTH 15 0
BBX 14 14 0 -1
BITMAP 
2220
3FE0
0000
0A80
3FE0
0200
7FF0
0D80
3060
4F90
888C
0B00
0820
07E0
ENDCHAR
STARTCHAR U_37E2
ENCODING 14306
SWIDTH 1000 0
DWIDTH 15 0
BBX 14 14 0 -1
BITMAP 
0200
2220
3FE0
0200
1FC0
0500
0880
FFFC
0020
1F20
1120
1F20
0020
0040
ENDCHAR
STARTCHAR U_37E3
ENCODING 14307
SWIDTH 1000 0
DWIDTH 15 0
BBX 14 14 0 -1
BITMAP 
2100
2100
2128
A7E8
A928
AB44
AD84
A990
A910
A920
F948
0174
0100
0100
ENDCHAR
STARTCHAR U_37E4
ENCODING 14308
SWIDTH 1000 0
DWIDTH 15 0
BBX 14 14 0 -1
BITMAP 
0200
2210
3FF0
0000
1FE0
0020
1FE0
0020
FFFC
0200
4210
2AA0
1260
6618
ENDCHAR
STARTCHAR U_37E5
ENCODING 14309
SWIDTH 1000 0
DWIDTH 15 0
BBX 14 14 0 -1
BITMAP 
2220
3FE0
0200
0C40
1FE0
0210
FFFC
0500
1AC0
6530
8A4C
0080
0300
1C00
ENDCHAR
STARTCHAR U_37E6
ENCODING 14310
SWIDTH 1000 0
DWIDTH 15 0
BBX 14 14 0 -1
BITMAP 
1110
1FF0
0000
7FFC
4104
9FE8
0100
1FF0
1110
1FF0
1110
7FFC
0100
0100
ENDCHAR
STARTCHAR U_37E7
ENCODING 14311
SWIDTH 1000 0
DWIDTH 15 0
BBX 14 14 0 -1
BITMAP 
4210
7FF0
0000
7DF0
4510
7DF0
0000
7FF0
0000
FFF8
0400
0FE0
0020
01C0
ENDCHAR
STARTCHAR U_37E8
ENCODING 14312
SWIDTH 1000 0
DWIDTH 15 0
BBX 14 14 0 -1
BITMAP 
2040
2040
2248
AA48
ABF8
A800
ABF8
A880
ABF8
FAA8
8AA8
02A8
02A8
0218
ENDCHAR
STARTCHAR U_37E9
ENCODING 14313
SWIDTH 1000 0
DWIDTH 15 0
BBX 14 14 0 -1
BITMAP 
FE20
827C
FE84
8948
FE30
8830
CA48
8584
0000
0200
4208
4208
4208
7FF8
ENDCHAR
STARTCHAR U_37EA
ENCODING 14314
SWIDTH 1000 0
DWIDTH 15 0
BBX 14 14 0 -1
BITMAP 
23F8
2248
2248
ABF8
AA48
AA48
ABF8
A800
AFFC
AA00
FA88
8A50
0320
021C
ENDCHAR
STARTCHAR U_37EB
ENCODING 14315
SWIDTH 1000 0
DWIDTH 15 0
BBX 14 14 0 -1
BITMAP 
2040
2080
23F8
2208
ABF8
AA08
ABF8
A840
AEEC
A950
FA48
8448
0144
00C0
ENDCHAR
STARTCHAR U_37EC
ENCODING 14316
SWIDTH 1000 0
DWIDTH 15 0
BBX 14 14 0 -1
BITMAP 
2220
3FE0
0A00
72F0
4210
7AF0
4210
7AF0
0200
7FF0
1040
0D80
0300
7CF8
ENDCHAR
STARTCHAR U_37ED
ENCODING 14317
SWIDTH 1000 0
DWIDTH 15 0
BBX 14 14 0 -1
BITMAP 
23FC
2204
23FC
AA20
ABFC
AA20
AB14
AA08
A800
ABFC
FA04
8BFC
0204
03FC
ENDCHAR
STARTCHAR U_37EE
ENCODING 14318
SWIDTH 1000 0
DWIDTH 15 0
BBX 14 14 0 -1
BITMAP 
2080
2040
27FC
A804
A110
AA48
AC54
A840
AFFC
A840
F8A0
8890
0110
060C
ENDCHAR
STARTCHAR U_37EF
ENCODING 14319
SWIDTH 1000 0
DWIDTH 15 0
BBX 14 14 0 -1
BITMAP 
2220
3FE0
0200
7FF8
4408
8FD0
1880
2700
0D80
3060
DFD8
1040
1FC0
1040
ENDCHAR
STARTCHAR U_37F0
ENCODING 14320
SWIDTH 1000 0
DWIDTH 15 0
BBX 14 14 0 -1
BITMAP 
27FC
2804
23F8
AA08
AA08
ABF8
AA08
AA08
ABF8
A840
FFFC
8800
0110
0208
ENDCHAR
STARTCHAR U_37F1
ENCODING 14321
SWIDTH 1000 0
DWIDTH 15 0
BBX 14 14 0 -1
BITMAP 
2218
2190
20A0
ABF8
A840
A840
A9F0
A840
A840
AFFC
F800
8D48
0524
0924
ENDCHAR
STARTCHAR U_37F2
ENCODING 14322
SWIDTH 1000 0
DWIDTH 15 0
BBX 14 14 0 -1
BITMAP 
2000
23FC
2220
AA40
ABFC
AB04
ABFC
AB04
ABFC
AB24
FA20
8DA8
0524
0964
ENDCHAR
STARTCHAR U_37F3
ENCODING 14323
SWIDTH 1000 0
DWIDTH 15 0
BBX 14 14 0 -1
BITMAP 
23FC
20A0
20A0
23FC
AAA4
AAA4
ABFC
A840
A840
AFFC
F840
8B50
024C
0444
ENDCHAR
STARTCHAR U_37F4
ENCODING 14324
SWIDTH 1000 0
DWIDTH 15 0
BBX 14 14 0 -1
BITMAP 
2080
2100
23FC
2244
ABFC
AA44
AA44
ABFC
A8A8
A8B4
F9BC
8920
0224
0C1C
ENDCHAR
STARTCHAR U_37F5
ENCODING 14325
SWIDTH 1000 0
DWIDTH 15 0
BBX 14 14 0 -1
BITMAP 
0200
4208
7FF8
0000
7FF8
4488
7FF8
0000
7FF8
0100
0940
09E0
0908
FFFC
ENDCHAR
STARTCHAR U_37F6
ENCODING 14326
SWIDTH 1000 0
DWIDTH 15 0
BBX 14 14 0 -1
BITMAP 
0100
4104
7FFC
0000
7FFC
4200
4FF8
4808
4FF8
4808
4FF8
46A0
8890
918C
ENDCHAR
STARTCHAR U_37F7
ENCODING 14327
SWIDTH 1000 0
DWIDTH 15 0
BBX 14 14 0 -1
BITMAP 
2208
2208
27BC
A910
A840
A840
A9B0
AA08
ADF4
A800
FBF8
8A08
03F8
0208
ENDCHAR
STARTCHAR U_37F8
ENCODING 14328
SWIDTH 1000 0
DWIDTH 15 0
BBX 14 14 0 -1
BITMAP 
2080
23F8
2208
ABF8
AA08
ABF8
A840
ABF8
A890
AB48
F840
8BF8
0040
0040
ENDCHAR
STARTCHAR U_37F9
ENCODING 14329
SWIDTH 1000 0
DWIDTH 15 0
BBX 14 14 0 -1
BITMAP 
4FAC
4554
4554
D554
D754
D554
D554
D754
D554
D5F4
F73C
9D34
0150
0190
ENDCHAR
STARTCHAR U_37FA
ENCODING 14330
SWIDTH 1000 0
DWIDTH 15 0
BBX 14 14 0 -1
BITMAP 
2108
3FF8
0000
1FF0
7FFC
1110
1FF0
0100
1FF0
1550
7FFC
0600
0180
1EF0
ENDCHAR
STARTCHAR U_37FB
ENCODING 14331
SWIDTH 1000 0
DWIDTH 15 0
BBX 14 14 0 -1
BITMAP 
104C
FE70
1040
FE7C
9248
FE48
9248
FE88
1088
FF08
1100
4108
4108
7FF8
ENDCHAR
STARTCHAR U_37FC
ENCODING 14332
SWIDTH 1000 0
DWIDTH 15 0
BBX 14 14 0 -1
BITMAP 
0100
4108
7FF8
1040
FE40
107C
7C88
1088
FF50
2020
3C20
2450
4488
9B04
ENDCHAR
STARTCHAR U_37FD
ENCODING 14333
SWIDTH 1000 0
DWIDTH 15 0
BBX 14 14 0 -1
BITMAP 
27FC
20A0
23F8
AAA8
AAA8
ABF8
A800
ABF8
A800
AFFC
F840
8950
024C
04C4
ENDCHAR
STARTCHAR U_37FE
ENCODING 14334
SWIDTH 1000 0
DWIDTH 15 0
BBX 14 14 0 -1
BITMAP 
2020
23FC
2220
23F8
AA28
ABFC
AA28
ABFC
AB24
ABFC
FD24
8DFC
0524
0924
ENDCHAR
STARTCHAR U_37FF
ENCODING 14335
SWIDTH 1000 0
DWIDTH 15 0
BBX 14 14 0 -1
BITMAP 
2110
2110
27BC
2118
A844
AFFC
A890
A908
AE94
A890
FFFC
8890
0110
0210
ENDCHAR
STARTCHAR U_3800
ENCODING 14336
SWIDTH 1000 0
DWIDTH 15 0
BBX 14 14 0 -1
BITMAP 
0400
3FE0
2020
3FE0
2020
3FE0
3FF8
2000
3FF8
0004
9244
8118
1110
1FF0
ENDCHAR
STARTCHAR U_3801
ENCODING 14337
SWIDTH 1000 0
DWIDTH 15 0
BBX 14 14 0 -1
BITMAP 
2040
20A0
29F0
AA10
AD28
AFBC
A8C4
A9A0
AE50
A99C
F860
8B9C
0060
0780
ENDCHAR
STARTCHAR U_3802
ENCODING 14338
SWIDTH 1000 0
DWIDTH 15 0
BBX 14 14 0 -1
BITMAP 
2220
2FA0
2220
2F7C
A8C4
AA24
AFA4
AA28
AA28
FB90
8C90
04A8
04A8
0944
ENDCHAR
STARTCHAR U_3803
ENCODING 14339
SWIDTH 1000 0
DWIDTH 15 0
BBX 14 14 0 -1
BITMAP 
2040
2020
21F8
A890
A860
ABFC
AA44
AAF4
AA44
AAF4
FA94
8AF4
0294
020C
ENDCHAR
STARTCHAR U_3804
ENCODING 14340
SWIDTH 1000 0
DWIDTH 15 0
BBX 14 14 0 -1
BITMAP 
4108
7FF8
0000
FCFC
4444
6464
1C1C
E5E4
0A08
3FF0
2010
3FF0
2010
3FF0
ENDCHAR
STARTCHAR U_3805
ENCODING 14341
SWIDTH 1000 0
DWIDTH 15 0
BBX 14 14 0 -1
BITMAP 
0100
4108
7FF8
1100
23FC
4E08
93F8
2208
63F8
A100
23F8
2D90
2060
27BC
ENDCHAR
STARTCHAR U_3806
ENCODING 14342
SWIDTH 1000 0
DWIDTH 15 0
BBX 14 14 0 -1
BITMAP 
27BC
24A4
27BC
24A4
A800
ABF8
AA48
ABF8
AA48
ABF8
F840
8FFC
0040
0040
ENDCHAR
STARTCHAR U_3807
ENCODING 14343
SWIDTH 1000 0
DWIDTH 15 0
BBX 14 14 0 -1
BITMAP 
0100
4108
7FF8
1000
FE28
0024
7DFC
4440
4450
7C50
1090
5490
9294
311C
ENDCHAR
STARTCHAR U_3808
ENCODING 14344
SWIDTH 1000 0
DWIDTH 15 0
BBX 14 14 0 -1
BITMAP 
239C
2294
239C
2294
AB9C
AA04
AAF4
AA44
AAF4
AA44
FAF4
8A04
0234
0208
ENDCHAR
STARTCHAR U_3809
ENCODING 14345
SWIDTH 1000 0
DWIDTH 15 0
BBX 14 14 0 -1
BITMAP 
2040
23F8
2110
27FC
A800
ABF8
AA48
ABF8
AA48
ABF8
F840
8BF8
0040
07FC
ENDCHAR
STARTCHAR U_380A
ENCODING 14346
SWIDTH 1000 0
DWIDTH 15 0
BBX 14 14 0 -1
BITMAP 
2020
2038
2020
23FC
AA40
AA78
ABC0
AA3C
AA50
AB54
FBDC
8B54
0450
0BFC
ENDCHAR
STARTCHAR U_380B
ENCODING 14347
SWIDTH 1000 0
DWIDTH 15 0
BBX 14 14 0 -1
BITMAP 
0200
4208
7FF8
1020
7FF8
4488
7CF8
0000
3FF0
0000
FFFC
1FF0
0010
01E0
ENDCHAR
STARTCHAR U_380C
ENCODING 14348
SWIDTH 1000 0
DWIDTH 15 0
BBX 14 14 0 -1
BITMAP 
0200
4208
7FF8
4840
FE80
48FC
7924
4A28
7820
4820
FE50
0050
4888
8504
ENDCHAR
STARTCHAR U_380D
ENCODING 14349
SWIDTH 1000 0
DWIDTH 15 0
BBX 14 14 0 -1
BITMAP 
0100
4104
7FFC
1080
2FF8
6080
2FF8
2080
2FF8
2100
FFFC
0940
1930
E10C
ENDCHAR
STARTCHAR U_380E
ENCODING 14350
SWIDTH 1000 0
DWIDTH 15 0
BBX 14 14 0 -1
BITMAP 
2120
21FC
2220
AAFC
AE20
AAFC
AA20
AAFC
A840
AFFC
F840
8B50
024C
0444
ENDCHAR
STARTCHAR U_380F
ENCODING 14351
SWIDTH 1000 0
DWIDTH 15 0
BBX 14 14 0 -1
BITMAP 
2208
2208
27BC
A910
A800
AFFC
AA48
AF5C
AA48
AFFC
F840
8BF8
0040
0040
ENDCHAR
STARTCHAR U_3810
ENCODING 14352
SWIDTH 1000 0
DWIDTH 15 0
BBX 14 14 0 -1
BITMAP 
2108
3FF8
2008
03F0
3D00
0200
FFFC
0440
0FE0
1450
FFFC
1450
17D0
1030
ENDCHAR
STARTCHAR U_3811
ENCODING 14353
SWIDTH 1000 0
DWIDTH 15 0
BBX 14 14 0 -1
BITMAP 
0200
2210
3FF0
0000
7FF8
4488
7FF8
0480
FCFC
0480
7CF8
0480
F8FC
0880
ENDCHAR
STARTCHAR U_3812
ENCODING 14354
SWIDTH 1000 0
DWIDTH 15 0
BBX 14 14 0 -1
BITMAP 
27C4
2284
2FE4
2AB4
2FF4
A814
ABD4
A814
AFF4
A894
BAD4
EAA4
84A4
008C
ENDCHAR
STARTCHAR U_3813
ENCODING 14355
SWIDTH 1000 0
DWIDTH 15 0
BBX 14 14 0 -1
BITMAP 
0110
27BC
2110
2BFC
AC04
A9F0
A800
ABF8
A880
A948
BAB0
E930
86AC
0040
ENDCHAR
STARTCHAR U_3814
ENCODING 14356
SWIDTH 1000 0
DWIDTH 15 0
BBX 14 14 0 -1
BITMAP 
0200
2210
3FF0
0040
3DF0
24A0
3CC0
23F8
5C40
65F0
BC40
8040
0040
0000
ENDCHAR
STARTCHAR U_3815
ENCODING 14357
SWIDTH 1000 0
DWIDTH 15 0
BBX 14 14 0 -1
BITMAP 
4108
7FF8
0040
F888
93FC
A244
B3FC
8A44
8BFC
D0A8
A0A8
80BC
8120
861C
ENDCHAR
STARTCHAR U_3816
ENCODING 14358
SWIDTH 1000 0
DWIDTH 15 0
BBX 14 14 0 -1
BITMAP 
2210
3FF0
1020
7FF8
0200
3FF0
0208
FFFC
1CA0
2890
FFFC
0E48
7834
19DC
ENDCHAR
STARTCHAR U_3817
ENCODING 14359
SWIDTH 1000 0
DWIDTH 15 0
BBX 14 14 0 -1
BITMAP 
2080
2100
2BFC
AA6C
AAB4
ABFC
AA74
AAAC
AB24
B820
CBFC
8050
0088
0704
ENDCHAR
STARTCHAR U_3818
ENCODING 14360
SWIDTH 1000 0
DWIDTH 15 0
BBX 14 14 0 -1
BITMAP 
0200
2210
3FF0
1438
6788
7C78
4788
7AF8
4588
FFFC
0820
1010
2008
C008
ENDCHAR
STARTCHAR U_3819
ENCODING 14361
SWIDTH 1000 0
DWIDTH 15 0
BBX 14 14 0 -1
BITMAP 
2040
27FC
2800
A9F0
A910
AFFC
A804
ABF0
A888
ABD0
B8A0
EB70
80AC
0340
ENDCHAR
STARTCHAR U_381A
ENCODING 14362
SWIDTH 1000 0
DWIDTH 15 0
BBX 14 14 0 -1
BITMAP 
2288
26C8
2A88
AA88
AFFC
A808
AC48
AAA8
AFD8
A918
BBC8
E908
81C8
0718
ENDCHAR
STARTCHAR U_381B
ENCODING 14363
SWIDTH 1000 0
DWIDTH 15 0
BBX 14 14 0 -1
BITMAP 
2090
239C
2090
A920
ABFC
AE20
ABF8
AA20
ABF8
AA20
FBFC
8890
0060
079C
ENDCHAR
STARTCHAR U_381C
ENCODING 14364
SWIDTH 1000 0
DWIDTH 15 0
BBX 14 14 0 -1
BITMAP 
243C
2788
2430
2390
A87C
AA14
AB90
AD10
A950
AFDC
A950
F950
02B0
051C
ENDCHAR
STARTCHAR U_381D
ENCODING 14365
SWIDTH 1000 0
DWIDTH 15 0
BBX 14 14 0 -1
BITMAP 
2210
27BC
2210
2FBC
AA10
AB18
ACA4
ABF8
AA08
BBF8
EA08
83F8
0110
0208
ENDCHAR
STARTCHAR U_381E
ENCODING 14366
SWIDTH 1000 0
DWIDTH 15 0
BBX 14 14 0 -1
BITMAP 
1AA0
2FBC
5048
AFA8
6028
AF90
2210
2710
2228
2FC4
0100
2108
2108
3FF8
ENDCHAR
STARTCHAR U_381F
ENCODING 14367
SWIDTH 1000 0
DWIDTH 15 0
BBX 14 14 0 -1
BITMAP 
20D0
2310
213C
2FCC
A914
ABA4
AD44
A94C
A8A0
A910
BF5C
E8E0
8150
02CC
ENDCHAR
STARTCHAR U_3820
ENCODING 14368
SWIDTH 1000 0
DWIDTH 15 0
BBX 14 14 0 -1
BITMAP 
0040
2078
2040
23FC
2254
ABF8
AAA8
AAF8
AAA8
AAF8
AA00
FBFC
8554
0BFC
ENDCHAR
STARTCHAR U_3821
ENCODING 14369
SWIDTH 1000 0
DWIDTH 15 0
BBX 14 14 0 -1
BITMAP 
0040
27FC
2120
A9F8
A920
A9F8
A920
A9FC
A954
AAAC
F944
8B28
05D0
030C
ENDCHAR
STARTCHAR U_3822
ENCODING 14370
SWIDTH 1000 0
DWIDTH 15 0
BBX 14 14 0 -1
BITMAP 
4208
7FF8
1000
3FF0
2210
3FF0
2210
3FF0
0890
32A8
FFFC
1120
70C0
1C38
ENDCHAR
STARTCHAR U_3823
ENCODING 14371
SWIDTH 1000 0
DWIDTH 15 0
BBX 14 14 0 -1
BITMAP 
2008
33FC
2248
ABB0
AA90
ABFC
AAB0
ABD8
AAB4
AA20
FAA0
8CB8
04A0
09FC
ENDCHAR
STARTCHAR U_3824
ENCODING 14372
SWIDTH 1000 0
DWIDTH 15 0
BBX 14 14 0 -1
BITMAP 
0040
27FC
22A8
ABB8
A910
ABF8
A910
ABF8
A910
AFFC
F948
8B30
0590
030C
ENDCHAR
STARTCHAR U_3825
ENCODING 14373
SWIDTH 1000 0
DWIDTH 15 0
BBX 14 14 0 -1
BITMAP 
03F8
2248
23F8
2248
AFFC
A954
AFFC
A954
AFFC
A840
ABF8
F840
8848
07FC
ENDCHAR
STARTCHAR U_3826
ENCODING 14374
SWIDTH 1000 0
DWIDTH 15 0
BBX 14 14 0 -1
BITMAP 
0554
07FC
2554
27FC
2554
AFFC
A800
ABF8
A910
A910
F9F0
8910
00A0
07FC
ENDCHAR
STARTCHAR U_3827
ENCODING 14375
SWIDTH 1000 0
DWIDTH 15 0
BBX 14 14 0 -1
BITMAP 
0040
23FC
2288
23FC
AA98
ABDC
AAA8
AA50
ABDC
AA50
FBDC
8A50
05DC
0890
ENDCHAR
STARTCHAR U_3828
ENCODING 14376
SWIDTH 1000 0
DWIDTH 15 0
BBX 14 14 0 -1
BITMAP 
0110
27BC
2158
23B4
AD50
ABFC
AA94
ABFC
AA48
ABFC
AA68
FBD8
8A88
0358
ENDCHAR
STARTCHAR U_3829
ENCODING 14377
SWIDTH 1000 0
DWIDTH 15 0
BBX 14 14 0 -1
BITMAP 
2100
2100
2280
2440
3840
2010
3FF8
1220
1220
1220
1220
2220
4220
821C
ENDCHAR
STARTCHAR U_382A
ENCODING 14378
SWIDTH 1000 0
DWIDTH 15 0
BBX 14 14 0 -1
BITMAP 
0008
FFFC
0200
0200
0200
0220
03F0
0200
0200
0200
0200
0200
0208
FFFC
ENDCHAR
STARTCHAR U_382B
ENCODING 14379
SWIDTH 1000 0
DWIDTH 15 0
BBX 14 14 0 -1
BITMAP 
7DF0
1110
1110
11D0
1D30
3114
C20C
0200
3FF0
0208
FFFC
0480
0840
3038
ENDCHAR
STARTCHAR U_382C
ENCODING 14380
SWIDTH 1000 0
DWIDTH 15 0
BBX 14 14 0 -1
BITMAP 
0488
FEFC
1084
1084
1EFC
E084
0200
3FF0
0208
FFFC
0480
0840
1020
601C
ENDCHAR
STARTCHAR U_382D
ENCODING 14381
SWIDTH 1000 0
DWIDTH 15 0
BBX 14 14 0 -1
BITMAP 
0810
7CF8
1020
1020
1020
1428
FEFC
0810
7CF8
1020
1020
1020
1C28
E1FC
ENDCHAR
STARTCHAR U_382E
ENCODING 14382
SWIDTH 1000 0
DWIDTH 15 0
BBX 14 14 0 -1
BITMAP 
4408
28FC
FE20
2820
AA20
6A20
6C20
FE20
0820
7C20
4420
7C20
4428
7DFC
ENDCHAR
STARTCHAR U_382F
ENCODING 14383
SWIDTH 1000 0
DWIDTH 15 0
BBX 14 14 0 -1
BITMAP 
0000
7FE0
0020
0020
4020
7FE0
4000
4000
7FF0
4010
4010
4010
7FF0
4010
ENDCHAR
STARTCHAR U_3830
ENCODING 14384
SWIDTH 1000 0
DWIDTH 15 0
BBX 14 14 0 -1
BITMAP 
1000
1000
7EF8
1288
1288
2288
2AF8
4400
1FE0
0020
1FE8
1008
1008
0FF8
ENDCHAR
STARTCHAR U_3831
ENCODING 14385
SWIDTH 1000 0
DWIDTH 15 0
BBX 14 14 0 -1
BITMAP 
1FC0
0040
1FD0
1010
0FF0
0840
7FF8
0840
0E40
0BC0
0840
FFFC
0840
3030
ENDCHAR
STARTCHAR U_3832
ENCODING 14386
SWIDTH 1000 0
DWIDTH 15 0
BBX 14 14 0 -1
BITMAP 
2080
2080
2080
2080
FC8C
A4B0
A4C0
A480
A480
B480
A884
2084
2084
207C
ENDCHAR
STARTCHAR U_3833
ENCODING 14387
SWIDTH 1000 0
DWIDTH 15 0
BBX 14 14 0 -1
BITMAP 
0C00
0200
0500
08C0
3230
C20C
1FE0
1220
1220
1220
12A0
1240
0200
0200
ENDCHAR
STARTCHAR U_3834
ENCODING 14388
SWIDTH 1000 0
DWIDTH 15 0
BBX 14 14 0 -1
BITMAP 
2000
21FC
2044
FC44
A444
A544
A544
A644
A484
B484
A884
2104
2128
2210
ENDCHAR
STARTCHAR U_3835
ENCODING 14389
SWIDTH 1000 0
DWIDTH 15 0
BBX 14 14 0 -1
BITMAP 
0400
0200
FFF8
2000
2000
3FE0
0200
3FF0
2210
2210
2250
2220
0200
0200
ENDCHAR
STARTCHAR U_3836
ENCODING 14390
SWIDTH 1000 0
DWIDTH 15 0
BBX 14 14 0 -1
BITMAP 
2020
2040
20F0
FC90
A490
A490
A490
A490
A490
B490
A914
2114
2214
240C
ENDCHAR
STARTCHAR U_3837
ENCODING 14391
SWIDTH 1000 0
DWIDTH 15 0
BBX 14 14 0 -1
BITMAP 
2000
23F8
2088
FC90
A4A0
A4BC
A484
A484
A4C4
B528
A928
2110
2228
24C4
ENDCHAR
STARTCHAR U_3838
ENCODING 14392
SWIDTH 1000 0
DWIDTH 15 0
BBX 14 14 0 -1
BITMAP 
2040
2040
21F8
FC40
A440
A440
A7FC
A440
A4A0
B4A0
A910
2110
2208
2404
ENDCHAR
STARTCHAR U_3839
ENCODING 14393
SWIDTH 1000 0
DWIDTH 15 0
BBX 14 14 0 -1
BITMAP 
2040
2040
20A0
FC90
A508
A604
A490
A490
A490
B490
A890
2110
2110
2210
ENDCHAR
STARTCHAR U_383A
ENCODING 14394
SWIDTH 1000 0
DWIDTH 15 0
BBX 14 14 0 -1
BITMAP 
2020
2020
2020
FC20
A4A8
A4A4
A524
A620
A428
B410
A820
2040
2180
2600
ENDCHAR
STARTCHAR U_383B
ENCODING 14395
SWIDTH 1000 0
DWIDTH 15 0
BBX 14 14 0 -1
BITMAP 
0200
1FD0
0220
FFFC
0100
0600
1A00
FFE0
1220
1220
12A0
1240
0200
0200
ENDCHAR
STARTCHAR U_383C
ENCODING 14396
SWIDTH 1000 0
DWIDTH 15 0
BBX 14 14 0 -1
BITMAP 
2018
21E0
2100
FD00
A500
A5FC
A510
A510
A510
B510
A910
2210
2210
2410
ENDCHAR
STARTCHAR U_383D
ENCODING 14397
SWIDTH 1000 0
DWIDTH 15 0
BBX 14 14 0 -1
BITMAP 
2080
2080
20F0
FD10
A690
A4A0
A440
A4A0
A510
B64C
A820
2080
2060
2020
ENDCHAR
STARTCHAR U_383E
ENCODING 14398
SWIDTH 1000 0
DWIDTH 15 0
BBX 14 14 0 -1
BITMAP 
1000
1DE0
2520
5568
0908
12F8
2200
DFE0
1220
1220
12A0
1240
0200
0200
ENDCHAR
STARTCHAR U_383F
ENCODING 14399
SWIDTH 1000 0
DWIDTH 15 0
BBX 14 14 0 -1
BITMAP 
1100
1D30
51C0
5108
5D08
E0F8
0200
1FE0
1220
1220
12A0
1240
0200
0200
ENDCHAR
STARTCHAR U_3840
ENCODING 14400
SWIDTH 1000 0
DWIDTH 15 0
BBX 14 14 0 -1
BITMAP 
4210
2210
1220
1248
FFFC
8204
8A84
8A44
9224
9214
A214
C204
8214
8008
ENDCHAR
STARTCHAR U_3841
ENCODING 14401
SWIDTH 1000 0
DWIDTH 15 0
BBX 14 14 0 -1
BITMAP 
2040
27FC
F8A0
A910
AAE8
AC04
ABFC
A840
A888
B9F8
2008
2008
2070
2020
ENDCHAR
STARTCHAR U_3842
ENCODING 14402
SWIDTH 1000 0
DWIDTH 15 0
BBX 14 14 0 -1
BITMAP 
7F04
0844
1F44
2144
D244
0C44
191C
E108
3FF8
2108
2108
2138
2110
0100
ENDCHAR
STARTCHAR U_3843
ENCODING 14403
SWIDTH 1000 0
DWIDTH 15 0
BBX 14 14 0 -1
BITMAP 
2220
2220
FA50
AA88
AB00
ABFC
A800
AA48
AA48
AA48
BA48
2248
2248
240C
ENDCHAR
STARTCHAR U_3844
ENCODING 14404
SWIDTH 1000 0
DWIDTH 15 0
BBX 14 14 0 -1
BITMAP 
2200
2208
ABFC
FC04
A9E4
A924
A924
A9E4
A924
A924
B9E4
A804
201C
2008
ENDCHAR
STARTCHAR U_3845
ENCODING 14405
SWIDTH 1000 0
DWIDTH 15 0
BBX 14 14 0 -1
BITMAP 
2020
2020
2078
F888
A950
A820
A8D0
AB20
A83C
B844
A9A8
2010
2060
2380
ENDCHAR
STARTCHAR U_3846
ENCODING 14406
SWIDTH 1000 0
DWIDTH 15 0
BBX 14 14 0 -1
BITMAP 
2080
2040
27FC
FA00
AA00
AA00
A9F8
A800
AA48
AA48
BA48
AA48
2248
244C
ENDCHAR
STARTCHAR U_3847
ENCODING 14407
SWIDTH 1000 0
DWIDTH 15 0
BBX 14 14 0 -1
BITMAP 
2008
27FC
FA50
AA50
ABD0
AA50
AA50
ABD0
AA50
BAD0
AB50
2450
2054
205C
ENDCHAR
STARTCHAR U_3848
ENCODING 14408
SWIDTH 1000 0
DWIDTH 15 0
BBX 14 14 0 -1
BITMAP 
2080
20F0
2090
F920
ABFC
AA44
AA44
ABFC
AAA4
B8A0
A8A0
2120
2224
241C
ENDCHAR
STARTCHAR U_3849
ENCODING 14409
SWIDTH 1000 0
DWIDTH 15 0
BBX 14 14 0 -1
BITMAP 
2120
2790
F8FC
AA90
AB90
AC20
ACA8
AFE8
A890
B890
A8A0
20A8
276C
2234
ENDCHAR
STARTCHAR U_384A
ENCODING 14410
SWIDTH 1000 0
DWIDTH 15 0
BBX 14 14 0 -1
BITMAP 
2040
2078
2088
F910
AA20
A8C8
AB1C
AA04
AA04
BB9C
AA04
2204
23FC
2204
ENDCHAR
STARTCHAR U_384B
ENCODING 14411
SWIDTH 1000 0
DWIDTH 15 0
BBX 14 14 0 -1
BITMAP 
2040
2048
FBFC
A8A0
A950
AE4C
ABF8
AA48
ABF8
BA48
ABF8
2040
2040
203C
ENDCHAR
STARTCHAR U_384C
ENCODING 14412
SWIDTH 1000 0
DWIDTH 15 0
BBX 14 14 0 -1
BITMAP 
23FC
2204
FBFC
AA04
ABFC
A800
A9F8
A908
A9F8
A908
B9F8
A908
2118
2108
ENDCHAR
STARTCHAR U_384D
ENCODING 14413
SWIDTH 1000 0
DWIDTH 15 0
BBX 14 14 0 -1
BITMAP 
0400
3FF0
2010
3FF0
2010
3FF0
0400
FFFC
0A80
3260
DFFC
1220
1260
0200
ENDCHAR
STARTCHAR U_384E
ENCODING 14414
SWIDTH 1000 0
DWIDTH 15 0
BBX 14 14 0 -1
BITMAP 
2040
2090
2178
FBC8
A840
AFFC
A8A0
A950
AEAC
BB40
A890
2320
2040
2380
ENDCHAR
STARTCHAR U_384F
ENCODING 14415
SWIDTH 1000 0
DWIDTH 15 0
BBX 14 14 0 -1
BITMAP 
2040
20A0
A910
FA0C
ADF0
A800
ABC4
AA54
ABD4
BA54
ABD4
2254
22C4
244C
ENDCHAR
STARTCHAR U_3850
ENCODING 14416
SWIDTH 1000 0
DWIDTH 15 0
BBX 14 14 0 -1
BITMAP 
2108
2090
27FC
F800
ABC4
AA54
AA54
ABD4
AA54
AA54
BBD4
AA54
2244
24CC
ENDCHAR
STARTCHAR U_3851
ENCODING 14417
SWIDTH 1000 0
DWIDTH 15 0
BBX 14 14 0 -1
BITMAP 
1C20
F020
1124
FEA4
18A8
3420
5250
918C
0100
3FF8
2108
2108
2118
0100
ENDCHAR
STARTCHAR U_3852
ENCODING 14418
SWIDTH 1000 0
DWIDTH 15 0
BBX 14 14 0 -1
BITMAP 
2038
21C0
FA20
ABFC
AA40
AA88
AAF8
AA88
AAF8
AA88
BAF8
AA88
24F8
2888
ENDCHAR
STARTCHAR U_3853
ENCODING 14419
SWIDTH 1000 0
DWIDTH 15 0
BBX 14 14 0 -1
BITMAP 
27FC
2404
A040
FFFC
A840
ABF8
AA48
ABF8
AA48
ABF8
B840
AFFC
2040
2040
ENDCHAR
STARTCHAR U_3854
ENCODING 14420
SWIDTH 1000 0
DWIDTH 15 0
BBX 14 14 0 -1
BITMAP 
7C80
28FC
1948
FE48
2A50
2820
4850
998C
0200
7FF8
4208
4208
4218
0200
ENDCHAR
STARTCHAR U_3855
ENCODING 14421
SWIDTH 1000 0
DWIDTH 15 0
BBX 14 14 0 -1
BITMAP 
2110
27BC
A110
F840
AA48
ABF8
AA48
AA48
AFFC
B8A0
A890
2108
2204
2C04
ENDCHAR
STARTCHAR U_3856
ENCODING 14422
SWIDTH 1000 0
DWIDTH 15 0
BBX 14 14 0 -1
BITMAP 
2078
23C0
A040
FFFC
A840
ABF8
AA48
ABF8
AA48
ABF8
B840
ABF8
2040
27FC
ENDCHAR
STARTCHAR U_3857
ENCODING 14423
SWIDTH 1000 0
DWIDTH 15 0
BBX 14 14 0 -1
BITMAP 
201C
23E0
A238
FA20
AAFC
AAA4
AAF8
AAA0
AA9C
AA80
BAA8
AAA8
2528
2A4C
ENDCHAR
STARTCHAR U_3858
ENCODING 14424
SWIDTH 1000 0
DWIDTH 15 0
BBX 14 14 0 -1
BITMAP 
2110
20A0
A7FC
F8A0
ABF8
A8A8
AFFC
A8A8
ABF8
B8A0
A9B0
22A8
24A4
28A4
ENDCHAR
STARTCHAR U_3859
ENCODING 14425
SWIDTH 1000 0
DWIDTH 15 0
BBX 14 14 0 -1
BITMAP 
2080
2108
A3FC
FA94
AA64
AA94
ABFC
A800
AA20
ABBC
BA20
AA20
22A4
231C
ENDCHAR
STARTCHAR U_385A
ENCODING 14426
SWIDTH 1000 0
DWIDTH 15 0
BBX 14 14 0 -1
BITMAP 
2110
27FC
A110
FBF8
A910
AFFC
A840
ABF8
AA48
BBF8
AA48
27FC
2208
2218
ENDCHAR
STARTCHAR U_385B
ENCODING 14427
SWIDTH 1000 0
DWIDTH 15 0
BBX 14 14 0 -1
BITMAP 
20A0
27BC
A0A0
F800
AA20
AA20
AA50
AA88
ABFC
B950
A950
2150
2250
244C
ENDCHAR
STARTCHAR U_385C
ENCODING 14428
SWIDTH 1000 0
DWIDTH 15 0
BBX 14 14 0 -1
BITMAP 
2108
21FC
A254
FD54
AA88
A908
AA04
ADFC
A800
BBFC
A820
2128
2124
2264
ENDCHAR
STARTCHAR U_385D
ENCODING 14429
SWIDTH 1000 0
DWIDTH 15 0
BBX 14 14 0 -1
BITMAP 
2020
2478
A2C8
FA30
A8CC
AF20
AAF8
AA20
AAF8
AA20
BBFC
2220
2220
25FC
ENDCHAR
STARTCHAR U_385E
ENCODING 14430
SWIDTH 1000 0
DWIDTH 15 0
BBX 14 14 0 -1
BITMAP 
2040
23F8
A248
FFFC
AA48
ABF8
A840
ABF8
AA48
BBF8
A950
27FC
2110
27FC
ENDCHAR
STARTCHAR U_385F
ENCODING 14431
SWIDTH 1000 0
DWIDTH 15 0
BBX 14 14 0 -1
BITMAP 
2090
23FC
A090
FBFC
AA94
ABFC
AA94
ABFC
A800
B9F8
A908
21F8
2108
21F8
ENDCHAR
STARTCHAR U_3860
ENCODING 14432
SWIDTH 1000 0
DWIDTH 15 0
BBX 14 14 0 -1
BITMAP 
27A8
24B0
A2A4
F918
A910
AA08
ADF4
A800
A9F0
B910
A9F0
2110
20A0
27FC
ENDCHAR
STARTCHAR U_3861
ENCODING 14433
SWIDTH 1000 0
DWIDTH 15 0
BBX 14 14 0 -1
BITMAP 
2008
23FC
A200
FBE8
AA08
ABC8
AA7C
AA48
ABE8
AA18
BB48
2288
24C8
2B18
ENDCHAR
STARTCHAR U_3862
ENCODING 14434
SWIDTH 1000 0
DWIDTH 15 0
BBX 14 14 0 -1
BITMAP 
21F8
2108
F9F8
A908
ABFC
AA94
AA94
ABFC
A800
BBFC
A840
2078
2088
2318
ENDCHAR
STARTCHAR U_3863
ENCODING 14435
SWIDTH 1000 0
DWIDTH 15 0
BBX 14 14 0 -1
BITMAP 
1080
FEFC
4480
28F8
FE08
92F8
1080
7CF8
5480
54F8
5480
5CF8
1084
107C
ENDCHAR
STARTCHAR U_3864
ENCODING 14436
SWIDTH 1000 0
DWIDTH 15 0
BBX 14 14 0 -1
BITMAP 
24A4
22A4
A2A8
FFFC
AA08
A910
ABF8
A840
ABF8
B840
AFFC
2150
2248
2444
ENDCHAR
STARTCHAR U_3865
ENCODING 14437
SWIDTH 1000 0
DWIDTH 15 0
BBX 14 14 0 -1
BITMAP 
2038
23C4
A128
F9F8
A840
ABFC
A800
A9F8
A808
BBFC
A808
21F8
2248
25F4
ENDCHAR
STARTCHAR U_3866
ENCODING 14438
SWIDTH 1000 0
DWIDTH 15 0
BBX 14 14 0 -1
BITMAP 
2040
27FC
A404
FBF8
A948
AA50
A8F8
AF08
A9F8
B908
A9F8
2108
21F8
2204
ENDCHAR
STARTCHAR U_3867
ENCODING 14439
SWIDTH 1000 0
DWIDTH 15 0
BBX 14 14 0 -1
BITMAP 
2040
27FC
A514
FE0C
ABD0
AAA8
A910
ABF8
AC04
B9F0
A910
21F0
20A0
27FC
ENDCHAR
ENDFONT
